<?xml version="1.0" encoding="utf-8"?>
<!-- Generator: Adobe Adobe Illustrator 24.2.0, SVG Export Plug-In . SVG Version: 6.00 Build 0)  -->
<svg version="1.1" xmlns="http://www.w3.org/2000/svg" xmlns:xlink="http://www.w3.org/1999/xlink" x="0px" y="0px" width="2360px"
	 height="1640px" viewBox="0 0 2360 1640" style="enable-background:new 0 0 2360 1640;" xml:space="preserve">
<style type="text/css">
	.st0{fill:#BF6211;}
	.st1{fill:#592E08;}
	.st2{fill:#402915;}
</style>
<g id="Boden">
</g>
<g id="Gold">
</g>
<g id="Deckel_32_">
	<g id="DeckelAll">
		<path d="M2113.16,738.8C2113.16,738.8,2113.16,738.8,2113.16,738.8C2113.16,738.8,2113.16,738.8,2113.16,738.8z"/>
		<path d="M2128.39,618.62C2128.39,618.62,2128.39,618.62,2128.39,618.62C2128.39,618.62,2128.39,618.62,2128.39,618.62z"/>
		<path d="M2128.41,618.64C2128.41,618.64,2128.41,618.64,2128.41,618.64C2128.41,618.64,2128.41,618.64,2128.41,618.64z"/>
		<path d="M2111.28,737.98c0-0.37,0.14-0.68,0.28-0.84c0.34-0.39,0.62-0.81,0.92-1.17c0.57-0.68,1.08-1.4,1.61-2.11
			c0.34-0.46,0.69-0.93,1.03-1.4c0.92-1.26,1.8-2.54,2.68-3.83c0.46-0.68,0.91-1.36,1.36-2.05c0,0,0,0,0,0
			c0.02-0.02,0.03-0.04,0.04-0.07l0.02-0.04c0.03-0.04,0.05-0.09,0.07-0.12c2.72-4.24,5.22-8.64,7.42-13.17
			c0.19-0.4,0.39-0.79,0.5-1.04c0.05-0.11,0.11-0.23,0.21-0.45c2.09-4.43,3.93-8.98,5.5-13.62c0.09-0.25,0.17-0.51,0.25-0.76
			c0.03-0.07,0.05-0.15,0.07-0.23c0.01-0.02,0.02-0.04,0.02-0.07c0.09-0.29,0.19-0.58,0.28-0.87c0.17-0.53,0.33-1.05,0.49-1.58
			c0.53-1.75,1.02-3.5,1.47-5.27c0.53-2.08,1-4.18,1.41-6.29l0.02-0.09c0.77-4.06,1.34-8.16,1.67-12.28
			c0.03-0.29,0.05-0.57,0.06-0.86c0.01-0.12,0.02-0.24,0.03-0.36c0.24-3.94,0.27-7.9,0.05-11.71c-0.22-3.66-0.64-7.31-1.29-10.79
			c-0.61-3.24-1.4-6.44-2.38-9.54c-0.91-2.82-1.98-5.57-3.21-8.26c-0.03-0.07-0.07-0.14-0.07-0.15c-1.2-2.55-2.55-5.02-3.97-7.25
			c-1.43-2.24-2.99-4.41-4.7-6.45c-0.02-0.03-0.05-0.06-0.06-0.07c-0.02-0.03-0.05-0.06-0.07-0.09c-0.01-0.01-0.02-0.02-0.02-0.02
			s-0.01-0.01-0.01-0.01c-1.73-2.02-3.57-3.93-5.53-5.69c-2.06-1.82-4.22-3.49-6.5-5c0,0,0,0-0.01-0.01l-0.07-0.04
			c-2.44-1.59-5-2.99-7.52-4.13c-2.95-1.34-6-2.4-9.11-3.23c-0.04-0.01-0.07-0.02-0.11-0.03c-0.01,0-0.03-0.01-0.04-0.01
			c-3.27-0.85-6.62-1.41-9.83-1.71c-3.95-0.35-7.92-0.35-11.72-0.04c-4.41,0.38-8.77,1.14-13.06,2.23l-0.05,0.01
			c-4.66,1.21-9.22,2.83-13.62,4.77c-4.82,2.15-9.48,4.65-13.92,7.5c-0.07,0.05-0.14,0.09-0.17,0.11c-0.06,0.04-0.12,0.07-0.14,0.09
			c-4.62,3-9.01,6.34-13.16,9.96c-0.13,0.11-0.25,0.22-0.27,0.23c-3.87,3.41-7.52,7.06-10.94,10.92c-0.45,0.5-0.88,1.01-1.21,1.39
			l-0.11,0.12c-0.38,0.45-0.76,0.9-1.14,1.35c-0.04,0.05-0.09,0.1-0.13,0.15c-0.18,0.21-0.36,0.36-0.61,0.47
			c-0.48,0.21-1.08-0.09-1.24-0.58c-0.12-0.37-0.14-0.77,0.02-1.14c0.09-0.22,0.23-0.4,0.38-0.58c0.39-0.46,0.78-0.92,1.18-1.38
			c0.84-0.98,1.7-1.95,2.57-2.9c1.74-1.91,3.54-3.78,5.39-5.58c1.44-1.4,2.92-2.77,4.31-4c4.09-3.62,8.42-6.99,13-9.99
			c4.45-2.93,9.09-5.58,13.93-7.8c4.7-2.16,9.57-3.98,14.56-5.32c0.36-0.09,0.72-0.19,0.93-0.25c4.27-1.11,8.63-1.88,12.96-2.24
			c2.71-0.23,5.43-0.32,8.15-0.25c2.71,0.06,5.42,0.32,8.1,0.72c4.82,0.71,9.57,2.03,14.07,3.88c4.93,2.03,9.54,4.75,13.72,8.04
			c1.79,1.41,3.49,2.94,5.11,4.55c0.95,0.95,1.86,1.93,2.74,2.94c0.83,0.96,1.62,1.95,2.41,2.94c0.22,0.27,0.43,0.55,0.63,0.82
			c0.09,0.13,0.17,0.26,0.25,0.39c0-0.01,0-0.02-0.01-0.02c0.09,0.16,0.16,0.34,0.24,0.5c0.06,0.13,0.14,0.26,0.21,0.39
			c0.06,0.1,0.12,0.2,0.19,0.29c0.09,0.12,0.2,0.23,0.3,0.34c0.11,0.11,0.2,0.22,0.3,0.34c0,0,0,0,0,0c0,0,0,0,0,0l0,0
			c0,0,0,0,0.01,0.01c0,0,0,0-0.01-0.01c0,0,0,0.01,0.01,0.01c0,0,0.01,0.01,0.01,0.01c0,0,0,0,0,0c0,0,0,0.01,0.01,0.01
			c0,0,0,0,0,0c0.04,0.07,0.09,0.13,0.13,0.19c0,0,0,0,0,0s0,0,0,0c0,0,0,0,0,0s0,0,0,0c0,0,0,0,0,0c0,0,0,0,0,0c0,0,0,0,0,0
			s0,0,0,0c0.01,0.01,0.01,0.02,0.02,0.03c0-0.01-0.01-0.02-0.02-0.03c0.06,0.11,0.11,0.22,0.18,0.32c0.07,0.12,0.14,0.23,0.21,0.35
			c0.09,0.14,0.19,0.27,0.28,0.41c0.06,0.09,0.11,0.18,0.16,0.28c0.16,0.26,0.33,0.5,0.48,0.77c0.09,0.16,0.19,0.31,0.3,0.45
			c0.1,0.11,0.2,0.21,0.3,0.32c1.09,1.82,2.09,3.7,3,5.62c2.06,4.33,3.66,8.86,4.86,13.5c0.46,1.76,0.84,3.53,1.14,5.14
			c0.34,1.82,0.64,3.65,0.87,5.48c0.28,2.26,0.46,4.53,0.58,6.8c0.2,3.78,0.16,7.57-0.11,11.35l-0.01,0.16
			c-0.27,4.23-0.81,8.41-1.56,12.58c-0.07,0.39-0.14,0.77-0.18,0.98c-0.78,4.03-1.75,8.02-2.95,11.95c-0.26,0.85-0.53,1.7-0.8,2.54
			c-0.02,0.07-0.04,0.13-0.06,0.19c-1.15,3.49-2.45,6.93-3.89,10.31c-0.64,1.52-1.32,3.01-2,4.45c-2.24,4.73-4.75,9.33-7.53,13.77
			c-0.32,0.52-0.65,1.03-0.89,1.41l-0.13,0.21c-1.82,2.84-3.76,5.62-5.82,8.3c-0.01,0.02-0.03,0.03-0.04,0.05
			c-0.21,0.09-0.37,0.28-0.5,0.48c-0.23,0.33-0.44,0.67-0.65,1.01c-0.19,0.22-0.38,0.45-0.54,0.69c-0.02,0.04-0.04,0.07-0.07,0.11
			c0,0,0,0,0,0c-0.19,0.26-0.46,0.44-0.81,0.44C2111.69,739.23,2111.28,738.57,2111.28,737.98z"/>
		<path d="M2112.88,738.24c-0.44-0.41-0.87-0.81-1.31-1.21c-0.84-0.79-1.68-1.58-2.52-2.36c-1.8-1.68-3.59-3.36-5.39-5.03
			c-1.79-1.66-3.55-3.34-5.34-5c-1.87-1.74-3.73-3.48-5.59-5.23c-1.86-1.75-3.73-3.49-5.61-5.22c-1.85-1.72-3.68-3.46-5.53-5.18
			c-3.73-3.46-7.43-6.95-11.15-10.41c-3.71-3.46-7.39-6.94-11.11-10.38c-3.75-3.47-7.47-6.98-11.21-10.47
			c-3.65-3.4-7.3-6.81-10.94-10.22c-3.69-3.46-7.39-6.9-11.08-10.35c-3.5-3.27-7-6.53-10.5-9.8c-3.62-3.38-7.23-6.75-10.85-10.12
			c-0.7-0.65-1.4-1.3-2.11-1.96c-0.48-0.43-0.47-1.28-0.11-1.77c0.38-0.52,1.04-0.55,1.5-0.12c1.63,1.51,3.24,3.04,4.87,4.56
			c1.81,1.69,3.62,3.38,5.43,5.07c3.5,3.28,7.01,6.54,10.51,9.82c3.68,3.45,7.36,6.88,11.04,10.33c3.63,3.41,7.29,6.79,10.93,10.2
			c3.73,3.5,7.48,6.97,11.21,10.47c3.74,3.51,7.48,7.02,11.24,10.51c3.71,3.44,7.4,6.89,11.09,10.36
			c3.68,3.45,7.37,6.89,11.05,10.33c1.81,1.7,3.63,3.38,5.44,5.07c1.92,1.8,3.83,3.61,5.76,5.39c3.51,3.24,6.98,6.51,10.47,9.76
			c0.52,0.49,1.04,0.98,1.56,1.46c-0.08,0.08-0.15,0.18-0.22,0.27c-0.23,0.33-0.44,0.68-0.65,1.02c-0.11,0.17-0.21,0.34-0.31,0.52
			c-0.03,0.05-0.06,0.1-0.09,0.15C2113.2,738.53,2113.04,738.39,2112.88,738.24z"/>
		<path d="M2113.08,707.79c-0.27,0-0.49-0.11-0.66-0.28c-0.09-0.08-0.17-0.16-0.2-0.19c-0.27-0.29-0.58-0.55-0.87-0.83
			c-0.48-0.45-0.96-0.9-1.44-1.35c-0.84-0.79-1.68-1.57-2.53-2.36c-1.55-1.43-3.07-2.89-4.61-4.33c-3.54-3.3-7.07-6.61-10.61-9.91
			c-3.59-3.35-7.18-6.69-10.75-10.06c-3.63-3.43-7.3-6.83-10.96-10.24c-3.57-3.34-7.14-6.68-10.71-10.02
			c-3.51-3.27-7.02-6.55-10.52-9.84c-1.75-1.64-3.49-3.28-5.24-4.91c-0.91-0.85-1.82-1.7-2.74-2.55c-0.43-0.4-0.86-0.8-1.29-1.2
			c-0.32-0.29-0.64-0.57-0.95-0.88c-0.45-0.46-0.48-1.26-0.1-1.77c0.38-0.51,1.05-0.55,1.5-0.12c1.71,1.58,3.4,3.2,5.1,4.79
			c1.77,1.67,3.57,3.32,5.34,4.98c3.49,3.28,7,6.54,10.49,9.81c3.58,3.36,7.16,6.7,10.75,10.05c3.64,3.41,7.27,6.82,10.92,10.21
			c3.59,3.34,7.16,6.72,10.75,10.05c3.54,3.28,7.05,6.6,10.58,9.9c1.46,1.37,2.93,2.72,4.39,4.09c0.8,0.74,1.59,1.49,2.39,2.23
			c0.81,0.76,1.61,1.53,2.43,2.27c0.06,0.05,0.11,0.1,0.17,0.15c0.29,0.27,0.46,0.62,0.46,1.03
			C2114.15,707.13,2113.74,707.79,2113.08,707.79C2113.09,707.79,2113.09,707.79,2113.08,707.79z"/>
		<path d="M2110.19,709.24c0-0.2,0.04-0.39,0.12-0.56l0-0.01c0.01-0.03,0.03-0.06,0.04-0.09l0.01-0.02
			c0.04-0.08,0.08-0.16,0.11-0.23c0.01-0.01,0.01-0.03,0.02-0.04c0.02-0.04,0.04-0.07,0.04-0.09c0.03-0.05,0.05-0.11,0.08-0.16
			c0,0,0,0.01,0,0.01c0,0,0,0,0,0c0,0,0,0,0,0c0,0,0,0.01-0.01,0.01c0.01-0.01,0.01-0.02,0.02-0.04c0.01-0.03,0.03-0.05,0.04-0.08
			c-0.01,0.01-0.01,0.02-0.02,0.03c0,0.01-0.01,0.02-0.03,0.05c1.46-3.15,2.78-6.37,3.89-9.66c0.16-0.47,0.32-0.94,0.41-1.25
			c0.62-1.96,1.2-3.94,1.71-5.94c0.52-2.01,0.94-4.04,1.3-5.9c0.37-1.94,0.68-3.88,0.92-5.84c0.24-1.92,0.4-3.83,0.53-5.76
			c0.19-3.59,0.22-7.18,0.02-10.78c0-0.06-0.01-0.12-0.01-0.18l0-0.06c-0.21-3.33-0.64-6.63-1.22-9.73
			c-0.55-2.86-1.26-5.68-2.12-8.38c-0.02-0.05-0.03-0.1-0.05-0.14c0-0.01,0-0.01,0-0.01c-0.81-2.42-1.73-4.79-2.79-7.1
			c-1-2.11-2.14-4.14-3.39-6.11c-0.04-0.06-0.08-0.13-0.13-0.2c0,0,0,0,0,0c-1.07-1.63-2.23-3.19-3.48-4.69
			c-0.05-0.06-0.1-0.11-0.13-0.16c-1.21-1.39-2.49-2.71-3.77-3.86c-1.39-1.23-2.86-2.37-4.41-3.38c-1.49-0.96-3.04-1.82-4.59-2.53
			c-0.03-0.02-0.07-0.03-0.1-0.05l-0.02-0.01c-1.64-0.72-3.32-1.32-5.05-1.79l-0.03-0.01c-1.88-0.49-3.8-0.81-5.58-0.97
			c-1.98-0.16-3.98-0.15-5.85,0.01c-2.11,0.2-4.2,0.55-6.17,1.06c-2.31,0.62-4.56,1.43-6.75,2.39c-2.38,1.08-4.65,2.35-6.72,3.69
			c-1.13,0.75-2.24,1.52-3.32,2.34c-1.26,0.96-2.46,1.97-3.58,2.96c-2.34,2.09-4.52,4.35-6.51,6.68l-0.09,0.11
			c-0.8,0.95-1.58,1.92-2.33,2.91c-0.36,0.47-0.72,0.95-1.07,1.43c-0.37,0.51-0.75,1.26-1.49,1.14c-0.44-0.07-0.73-0.46-0.85-0.86
			c-0.13-0.45,0.01-0.91,0.27-1.27c0.14-0.19,0.28-0.38,0.41-0.57c0.36-0.48,0.71-0.96,1.08-1.43c0.75-0.97,1.51-1.92,2.3-2.86
			c1.6-1.9,3.29-3.71,5.07-5.44c2.75-2.68,5.76-5.13,8.93-7.2c4.14-2.69,8.64-4.91,13.41-6.21c2.4-0.66,4.82-1.12,7.3-1.34
			c2.27-0.2,4.56-0.18,6.83,0.05c4.74,0.48,9.39,2.01,13.54,4.36c4.09,2.32,7.73,5.44,10.66,8.9c3.08,3.6,5.56,7.65,7.56,11.94
			c2.09,4.48,3.59,9.2,4.66,14.02c0.89,4.01,1.41,8.11,1.66,12.12l0.01,0.12c0.24,3.74,0.23,7.49,0,11.09
			c-0.22,4.15-0.78,8.3-1.52,12.2c-0.02,0.12-0.05,0.24-0.06,0.3c-0.93,4.92-2.28,9.77-3.95,14.48c-1.03,2.91-2.19,5.77-3.47,8.49
			c-0.09,0.2-0.18,0.39-0.27,0.58c0,0,0,0.01,0,0.01c0,0,0,0,0,0c-0.02,0.03-0.03,0.07-0.05,0.1c0.02-0.03,0.03-0.07,0.05-0.1
			c0,0,0-0.01,0-0.01c-0.16,0.41-0.5,0.74-0.97,0.74C2110.6,710.49,2110.19,709.84,2110.19,709.24z"/>
		<path d="M2119.53,687.33c-0.03-0.03-0.06-0.06-0.09-0.09c-0.04-0.03-0.07-0.07-0.1-0.11c-0.3-0.29-0.62-0.55-0.93-0.83
			c-0.48-0.43-0.95-0.85-1.43-1.28c-0.86-0.77-1.72-1.55-2.59-2.32c-1.82-1.62-3.64-3.26-5.46-4.89c-3.61-3.24-7.22-6.49-10.85-9.72
			c-3.78-3.37-7.55-6.74-11.31-10.12c-1.47-1.32-2.94-2.63-4.39-3.94c0,0,0,0-0.01-0.01c-0.04-0.03-0.07-0.06-0.08-0.07
			c-0.2-0.17-0.39-0.35-0.54-0.49c-1.94-1.71-3.85-3.43-5.77-5.16c-1.92-1.72-3.85-3.43-5.76-5.15c-3.7-3.33-7.4-6.65-11.11-9.96
			c-2.82-2.51-5.63-5.02-8.33-7.43c-0.06-0.05-0.12-0.1-0.18-0.16l-0.15-0.13c-0.11-0.1-0.23-0.2-0.34-0.3
			c-0.46-0.45-0.48-1.26-0.11-1.77c0.35-0.47,0.94-0.55,1.38-0.23c0,0,0,0,0-0.01c0.43,0.36,0.83,0.75,1.25,1.12
			c0.46,0.42,0.93,0.84,1.39,1.25c1,0.9,2,1.8,3,2.7c1.95,1.75,3.89,3.49,5.85,5.23c2.32,2.07,4.63,4.16,6.92,6.19
			c0.31,0.28,0.63,0.55,0.82,0.73c1.89,1.67,3.76,3.37,5.64,5.05c1.95,1.74,3.89,3.48,5.83,5.22c0.33,0.3,0.66,0.59,0.94,0.84
			c1.3,1.16,2.6,2.33,3.78,3.39c0.25,0.23,0.51,0.45,0.64,0.57c2.09,1.84,4.15,3.71,6.11,5.46c0.1,0.09,0.2,0.18,0.23,0.21
			c0.2,0.17,0.39,0.34,0.54,0.48c3.77,3.34,7.5,6.72,11.25,10.07c3.6,3.21,7.2,6.43,10.8,9.65c1.41,1.27,2.82,2.54,4.24,3.79
			c0.04,0.03,0.07,0.07,0.11,0.1c0.04,0.03,0.09,0.07,0.13,0.1l0.03,0.03c0.07,0.06,0.13,0.12,0.18,0.19
			c0.36,0.54,0.37,1.29-0.1,1.77c-0.19,0.2-0.45,0.3-0.71,0.3C2119.97,687.64,2119.71,687.54,2119.53,687.33z"/>
		<path d="M2123.32,664.55c-0.29,0-0.53-0.13-0.7-0.31c-0.3-0.27-0.58-0.57-0.87-0.85c-0.53-0.51-1.05-1.03-1.57-1.54
			c-1.61-1.57-3.2-3.14-4.8-4.71c-3.47-3.41-6.95-6.81-10.41-10.22c-3.64-3.58-7.29-7.14-10.93-10.71
			c-3.68-3.61-7.36-7.21-11.03-10.82c-3.61-3.54-7.25-7.05-10.86-10.59c-0.02-0.02-0.04-0.03-0.05-0.05
			c-0.47-0.44-0.47-1.27-0.11-1.77c0.38-0.51,1.04-0.55,1.5-0.12c0.85,0.8,1.67,1.65,2.51,2.47c0.9,0.88,1.79,1.77,2.68,2.64
			c1.86,1.81,3.7,3.63,5.55,5.46c3.66,3.62,7.37,7.19,11.04,10.8c3.64,3.57,7.29,7.13,10.93,10.7c1.76,1.72,3.52,3.44,5.28,5.15
			c1.72,1.67,3.42,3.37,5.14,5.04c1.59,1.54,3.17,3.09,4.75,4.64c0.56,0.55,1.13,1.1,1.7,1.66c0.29,0.28,0.57,0.58,0.87,0.85
			c0.31,0.23,0.47,0.66,0.47,1.04C2124.39,663.89,2123.98,664.55,2123.32,664.55C2123.32,664.55,2123.32,664.55,2123.32,664.55z"/>
		<path d="M1736,610.78c0.02-0.12,0.05-0.24,0.07-0.36c-0.01,0.06-0.01,0.11-0.02,0.17c0,0.01,0,0.02,0,0.03c0,0,0-0.01,0-0.01
			c0,0,0,0.01,0,0.01c-0.01,0.08-0.02,0.15-0.04,0.23C1736.01,610.83,1736,610.81,1736,610.78z"/>
		<path d="M1736.1,611.46c0,0.01,0,0.03,0,0.04C1736.1,611.49,1736.1,611.48,1736.1,611.46z"/>
		<path d="M2004.18,637.61c-0.05,0-0.1-0.01-0.14-0.01c0,0-0.01,0-0.01,0c-0.09,0-0.18-0.02-0.26-0.04
			c-0.11-0.01-0.21-0.02-0.31-0.02c-0.27-0.03-0.54-0.05-0.8-0.08c-0.62-0.06-1.23-0.12-1.86-0.18c-1-0.09-2-0.2-3-0.29
			c-4.39-0.43-8.79-0.86-13.18-1.29c-10.75-1.04-21.49-2.08-32.23-3.12c-10.89-1.05-21.79-2.07-32.68-3.15
			c-10.57-1.05-21.15-2.04-31.73-3.05c-10.61-1.02-21.22-2.07-31.84-3.08c-10.61-1.01-21.21-2.06-31.82-3.07
			c-10.62-1.01-21.23-2.06-31.86-3.08c-10.61-1.02-21.21-2.04-31.82-3.06c-8.04-0.78-16.09-1.56-24.1-2.31
			c0.05-0.26,0.09-0.51,0.13-0.77c0.03-0.21,0.05-0.42,0.07-0.63c0.02-0.17,0.02-0.34,0.03-0.5c0.01-0.19,0.01-0.39,0.01-0.58
			c1.32,0.13,2.63,0.27,3.95,0.4c2.68,0.26,5.35,0.52,8.02,0.79c5.24,0.51,10.48,1.01,15.72,1.52c10.5,1.02,21,2.04,31.51,3.04
			c10.67,1.02,21.34,2.05,32.01,3.09c10.67,1.04,21.34,2.05,32.02,3.09c10.55,1.03,21.11,2.02,31.66,3.04
			c10.57,1.03,21.13,2.05,31.7,3.06c10.97,1.05,21.93,2.13,32.9,3.18c10.71,1.03,21.43,2.05,32.14,3.09
			c3.45,0.34,6.89,0.66,10.34,0.98c1.75,0.16,3.5,0.35,5.25,0.5c0.01,0,0.02,0,0.04,0c0.07,0,0.14,0.01,0.21,0.02
			c0.03,0,0.05,0,0.08,0.01c0,0,0.01,0,0.01,0c0.56,0.1,0.91,0.68,0.91,1.24c0,0.54-0.39,1.25-1,1.25
			C2004.22,637.62,2004.2,637.61,2004.18,637.61z"/>
		<path id="Deckel_31_" d="M2098.84,596.6c-86.29-11.7-172.58-23.41-258.88-35.05c-0.01,0-0.02-0.01-0.04-0.01
			c-0.09-0.02-0.19-0.05-0.28-0.06c-0.2-0.04-0.41-0.05-0.62-0.09c0,0,0,0-0.01,0c0.01,0,0.01,0,0.01,0c0,0-0.01,0-0.02,0
			c-0.16-0.03-0.31-0.07-0.47-0.1c-0.23-0.04-0.47-0.07-0.7-0.11c-0.18-0.03-0.37-0.05-0.55-0.06c-0.01,0-0.02-0.01-0.03-0.01
			c-0.07-0.02-0.14-0.04-0.21-0.06c0.12-0.04,0.2-0.14,0.22-0.26c0.04-0.18,0.04-0.37,0.05-0.55c0.01-0.13,0.02-0.26,0.02-0.39
			c0.01-0.09,0.02-0.19,0.02-0.28c0-0.1-0.03-0.17-0.08-0.25c-0.02-0.02-0.04-0.04-0.05-0.06c0-0.19,0.01-0.39,0.02-0.58
			c1.52,0.21,3.05,0.43,4.59,0.63c85.07,11.53,170.14,23.05,255.21,34.53c0.1,0.05,0.2,0.09,0.3,0.14c0.21,0.1,0.43,0.2,0.65,0.29
			c0.24,0.1,0.49,0.2,0.74,0.26c0.22,0.06,0.44,0.1,0.66,0.16c0.19,0.05,0.39,0.1,0.58,0.15c0.28,0.74-0.09,1.78-0.98,1.78
			C2098.93,596.61,2098.89,596.6,2098.84,596.6z"/>
		<path id="Deckel_30_" d="M1737.58,611.41c-0.23-0.02-0.45-0.1-0.67-0.26c-0.1-0.07-0.17-0.16-0.23-0.27
			c0.02-0.16,0.04-0.33,0.05-0.5s0.02-0.34,0.03-0.5c0-0.09,0.01-0.17,0.01-0.26c0.03-0.05,0.06-0.1,0.09-0.14
			c0.09-0.41,0.2-0.81,0.3-1.04c0.23-0.48,0.43-0.97,0.7-1.43c0.21-0.35,0.43-0.7,0.66-1.04c0.04-0.05,0.08-0.09,0.13-0.14
			c0.13-0.15,0.25-0.31,0.37-0.47c0.06-0.09,0.12-0.18,0.17-0.27c0.29-0.37,0.59-0.73,0.9-1.08c0.68-0.76,1.34-1.55,1.99-2.13
			c0.76-0.69,1.5-1.4,2.26-2.08c0.91-0.82,1.84-1.62,2.79-2.4c0.65-0.54,1.33-1.04,2-1.56c0.85-0.66,1.71-1.3,2.57-1.94
			c2.09-1.53,4.23-3.01,6.37-4.4c3.86-2.52,7.8-4.93,11.79-7.23c4.08-2.36,8.25-4.57,12.45-6.71c1.74-0.89,3.5-1.75,5.27-2.6
			c1.83-0.88,3.67-1.76,5.5-2.58c0.07-0.04,0.15-0.07,0.22-0.1c0,0,0,0,0,0c0.08-0.04,0.17-0.07,0.22-0.1
			c1.94-0.87,3.89-1.71,5.86-2.53c1.98-0.84,3.98-1.65,6-2.41c2.17-0.81,4.33-1.62,6.53-2.36c2.12-0.71,4.27-1.38,6.43-1.98
			c2.29-0.64,4.61-1.2,6.96-1.6c1.11-0.2,2.23-0.34,3.36-0.44c0.55-0.05,1.11-0.08,1.66-0.09c-0.09,0.43-0.19,0.86-0.3,1.29
			c-0.08,0.34-0.17,0.67-0.26,1.01v0c-0.12,0.02-0.23,0.03-0.34,0.05c-0.09,0.02-0.17,0.05-0.26,0.07c-0.08,0-0.16,0-0.24,0
			c-0.16,0-0.32,0.01-0.48,0.02c-0.16,0.01-0.31,0.05-0.46,0.09c-0.18,0.04-0.36,0.08-0.53,0.12c-0.05,0.02-0.11,0.03-0.17,0.04
			c-2.55,0.33-5.07,0.91-7.54,1.55c-2.19,0.58-4.35,1.23-6.5,1.95c-2.21,0.74-4.41,1.51-6.59,2.34c-4.02,1.54-7.98,3.2-11.9,4.95
			l-0.07,0.03c-1.97,0.89-3.93,1.78-5.88,2.71c-1.99,0.96-3.98,1.94-5.95,2.93c-4.19,2.11-8.31,4.38-12.38,6.7
			c-3.44,1.96-6.83,4.03-10.15,6.19c0,0,0,0,0,0c-1.89,1.24-3.78,2.5-5.63,3.8c-1.74,1.22-3.46,2.49-5.12,3.82
			c-1.43,1.14-2.84,2.29-4.09,3.39c-0.69,0.61-1.37,1.24-2,1.9c-0.64,0.68-1.32,1.33-1.83,1.93c-0.63,0.75-1.24,1.53-1.78,2.35
			c-0.23,0.38-0.45,0.76-0.57,1.01c-0.06,0.13-0.12,0.26-0.17,0.4c-0.04,0.11-0.07,0.21-0.11,0.32c-0.04,0.13-0.07,0.26-0.11,0.39
			c0,0.03-0.01,0.05-0.01,0.08c0,0.04-0.01,0.08-0.01,0.1c-0.01,0.07-0.02,0.15-0.04,0.22c0,0,0,0,0,0
			c-0.12,0.47-0.49,0.89-1.02,0.89C1737.74,611.44,1737.66,611.43,1737.58,611.41z"/>
		<path id="Deckel_29_" d="M1827.16,561.48c-0.64-0.23-0.83-0.96-0.71-1.56c0.01-0.04,0.02-0.07,0.04-0.11
			c0-0.02,0.01-0.03,0.02-0.05c0,0,0-0.01,0,0c0-0.01,0.01-0.02,0.01-0.03c0.01-0.02,0.01-0.03,0.03-0.07
			c0.17-0.32,0.41-0.55,0.79-0.64c0.16-0.04,0.31-0.02,0.46,0.04c0.06-0.02,0.12-0.03,0.14-0.04c0.23-0.06,0.45-0.14,0.68-0.19
			c0.27-0.06,0.55-0.05,0.82-0.06c0.41-0.04,0.8-0.16,1.21-0.2c0.34-0.04,0.67-0.09,1-0.13c1.13-0.13,2.27,0.05,3.39,0.16
			c0.57,0.04,1.15,0,1.71,0.08c0.36,0.05,0.72,0.15,1.07,0.26c0.11,0.04,0.23,0.08,0.35,0.12c0.28,0.11,0.5,0.3,0.64,0.56
			c0.29,0.52,0.2,1.28-0.26,1.68c-0.01,0-0.02,0-0.04,0c-0.23-0.04-0.47-0.07-0.7-0.11c-0.19-0.03-0.37-0.05-0.56-0.06
			c-0.01,0-0.02,0-0.03-0.01c-0.13-0.03-0.26-0.07-0.39-0.1c-0.25-0.05-0.51-0.06-0.77-0.07c-0.41-0.02-0.81-0.03-1.22-0.05
			c-0.47-0.02-0.95-0.03-1.42-0.03c-0.38,0-0.76,0-1.14,0.01c-0.44,0.01-0.88,0.09-1.32,0.12c0.01,0,0.01,0,0.01,0c0,0,0,0,0.01,0
			c0,0,0,0-0.01,0c-0.09,0-0.18,0-0.26,0c-0.07,0-0.15,0-0.22,0c-0.12,0-0.24,0.01-0.36,0.03c-0.1,0.02-0.2,0.04-0.3,0.05
			c-0.14,0.03-0.3,0.04-0.44,0.07c-0.09,0.02-0.17,0.04-0.26,0.06c-0.08,0-0.15,0-0.23,0.01c-0.16,0-0.32,0.01-0.48,0.02
			c-0.16,0.01-0.31,0.05-0.46,0.09c-0.18,0.04-0.36,0.08-0.53,0.12c-0.08,0.02-0.16,0.04-0.23,0.05
			C1827.19,561.49,1827.17,561.48,1827.16,561.48z"/>
		<path id="Deckel_28_" d="M1780.35,597.55c-1.79-0.4-3.46-1.92-4.15-3.6c-0.45-1.99,2.13-2.42,2.32-0.38
			c0.73,0.7,1.55,1.76,2.65,1.46c0.85-0.32,2.31-1.18,1.9-2.25c0.01,0.02,0.02,0.04,0.02,0.05c0.01,0.03,0.02,0.06,0.03,0.09
			c-1.38-2.46-5.03-1.8-7.36-1.43c1.74-1.4,4.33-2.46,6.62-1.91C1787.56,591.23,1784.99,597.76,1780.35,597.55z"/>
		<path id="Deckel_27_" d="M1986.73,624.9c-5.22-3.05-2.39-9.47,2.57-10.93c1.07-0.34,2.67-0.91,3.47,0.16
			c0.73,0.93-0.23,2.32-1.36,1.89c-3.83,0.18-8.25,5.16-2.86,7.02c4.13,1.04,9.43-3.23,9.69-7.32c0.01,0.04,0.01,0.08,0.02,0.11
			c-0.19-1.41-1.69-1.94-2.77-2.41c3.62-0.61,5.24,2.55,3.82,5.62C1997.39,623.58,1991.5,627.33,1986.73,624.9z"/>
		<path id="Deckel_26_" d="M2017.41,603.68c-4.21-0.15-4.84-6.59-0.76-7.5c0.64-0.11,1.14,0.46,1.21,1.05
			c0.1,0.74-0.4,1.43-1.16,1.48c-0.76,0.36-0.98,1.49-0.34,2.04c2.59,1.92,10.07-2.62,7.04-5.7c-2.34-1.6-5.52-1.27-8.21-1.71
			c-1.24-0.12-2.47-0.22-3.71-0.23c1.97-0.54,4.19-0.68,6.27-0.85C2030.44,590.47,2027.52,603.52,2017.41,603.68z"/>
		<path id="Deckel_25_" d="M1973.18,610.5c0,0.01,0,0.01,0,0.02c0.01,0.04,0.02,0.07,0.04,0.11c0,0.02,0.01,0.03,0.02,0.05
			c-0.01-0.03-0.02-0.05-0.03-0.08l-0.04-0.13c-0.63-1.95-0.25-4.02,0.54-5.87c0.47-1.09,1.12-2.11,1.82-3.07
			c0.7-0.97,1.5-1.88,2.32-2.74c1.65-1.71,3.52-3.22,5.45-4.61c1.89-1.36,3.88-2.57,5.93-3.68c4.48-2.43,9.25-4.34,14.2-5.6
			c1.83-0.47,3.69-0.83,5.56-1.07c1.29-0.17,2.59-0.28,3.89-0.27c0.65,0,1.06,0.65,1.06,1.25c0,0.56-0.41,1.29-1.06,1.25
			c-0.68,0-1.35,0.04-2.02,0.08c-1.3,0.11-2.6,0.28-3.89,0.5c-1.23,0.21-2.45,0.5-3.66,0.81c-2.75,0.74-5.44,1.68-8.03,2.78
			c-0.49,0.15-0.97,0.29-1.45,0.46c-0.14,0.05-0.29,0.09-0.42,0.16c-0.14,0.07-0.27,0.17-0.39,0.29c-0.09,0.08-0.19,0.17-0.28,0.25
			c-2.13,1.02-4.2,2.16-6.18,3.45c-1.95,1.28-3.84,2.66-5.51,4.12c-1.06,0.95-2.07,1.95-2.99,3.02c-0.52,0.62-1,1.26-1.43,1.9
			c-0.01,0.01-0.02,0.02-0.03,0.04l-0.02,0.03c-0.33,0.52-0.64,1.06-0.9,1.62c-0.13,0.31-0.26,0.62-0.37,0.93
			c-0.09,0.3-0.17,0.6-0.24,0.91c-0.04,0.23-0.07,0.46-0.09,0.69c-0.01,0.19-0.01,0.37,0,0.55c0.01,0.14,0.03,0.29,0.05,0.43
			c0.03,0.14,0.06,0.27,0.07,0.3c0.02,0.05,0.03,0.09,0.05,0.14v0c0.07,0.2,0.14,0.39,0.14,0.62c0,0.6-0.41,1.25-1.07,1.25
			C1973.67,611.41,1973.3,610.98,1973.18,610.5z"/>
		<path id="Deckel_24_" d="M1796.52,590.9c-0.04,0-0.08,0.01-0.11,0.01c-0.6,0.02-1.2,0.01-1.8-0.05c-0.55-0.05-1.12-0.16-1.6-0.43
			c-0.35-0.2-0.64-0.52-0.8-0.9c-0.23-0.57-0.18-1.18,0.07-1.74c0.36-0.8,1.04-1.39,1.7-1.94c0.47-0.38,0.98-0.72,1.49-1.05
			c1.08-0.7,2.2-1.34,3.34-1.94c4.3-2.27,8.81-4.16,13.32-5.96c4.41-1.77,8.89-3.36,13.39-4.89c4.49-1.52,9.03-2.93,13.59-4.22
			c1.42-0.4,2.85-0.79,4.28-1.17c0,0,0,0,0,0c0.01,0,0.03-0.01,0.04-0.01c0.04-0.01,0.07-0.02,0.1-0.03c2.19-0.58,4.4-1.1,6.62-1.59
			c2.42-0.53,4.86-0.99,7.32-1.3c0.99-0.12,1.99-0.23,2.99-0.24c0.38,0,0.75,0,1.13,0.03c0.29,0.02,0.6,0.04,0.88,0.11
			c0.64,0.15,0.97,0.79,0.89,1.42c-0.07,0.59-0.57,1.17-1.21,1.05c-0.23-0.04-0.46-0.07-0.69-0.09c-0.85-0.06-1.7,0-2.52,0.06
			c-2.44,0.23-4.85,0.66-7.25,1.15c-2.29,0.47-4.55,1.02-6.81,1.59c-0.41,0.1-0.82,0.21-1.23,0.32c0,0,0,0,0,0
			c-0.01,0-0.02,0.01-0.03,0.01c-0.04,0.01-0.08,0.02-0.1,0.03c-4.59,1.21-9.15,2.55-13.67,4.03c-4.57,1.5-9.12,3.05-13.62,4.76
			c-3.67,1.4-7.31,2.87-10.9,4.46c-3.06,1.38-6.12,2.83-8.96,4.63c-0.56,0.38-1.11,0.77-1.61,1.21c-0.04,0.04-0.08,0.08-0.13,0.12
			l0.18,0.03c0.76,0.06,1.53,0.06,2.29,0c0.01,0,0.02,0,0.02,0c0.01,0,0.01,0,0.02,0c0.6-0.04,1.05,0.49,1.12,1.06
			c0.08,0.63-0.26,1.28-0.9,1.43c-0.18,0.04-0.36,0.06-0.55,0.06C1796.71,590.92,1796.61,590.91,1796.52,590.9z"/>
		<path id="Deckel_23_" d="M1795.92,588.63c1.42,0,1.41,2.53,0,2.53S1794.51,588.63,1795.92,588.63z"/>
		<path id="Deckel_22_" d="M1974.26,611.8c-0.04,0-0.09-0.01-0.13-0.01c-0.05-0.01-0.1-0.02-0.15-0.03
			c-0.49-0.07-0.98-0.1-1.47-0.15c-0.67-0.08-1.34-0.15-2.01-0.23c-3.21-0.41-6.44-0.75-9.66-1.11c-6.73-0.77-13.46-1.56-20.19-2.33
			c-7.17-0.82-14.33-1.64-21.5-2.46c-7.14-0.81-14.29-1.63-21.43-2.45c-7.22-0.83-14.44-1.65-21.66-2.48
			c-7.26-0.84-14.53-1.66-21.8-2.49c-7.21-0.82-14.41-1.65-21.61-2.47c-6.79-0.77-13.59-1.54-20.38-2.32
			c-2.91-0.33-5.83-0.66-8.75-1c-1.52-0.18-3.03-0.35-4.55-0.52c-0.73-0.08-1.46-0.16-2.2-0.25c-0.41-0.04-0.82-0.08-1.23-0.14
			c-0.64-0.09-0.97-0.84-0.89-1.42c0.04-0.28,0.16-0.55,0.36-0.76c0.24-0.24,0.52-0.32,0.86-0.29c0.44,0.04,0.88,0.11,1.32,0.16
			c0.75,0.09,1.49,0.18,2.24,0.26c1.57,0.18,3.15,0.36,4.73,0.54c3.05,0.34,6.11,0.7,9.16,1.05c6.81,0.77,13.62,1.56,20.43,2.35
			c7.28,0.85,14.56,1.66,21.84,2.5c7.21,0.83,14.41,1.66,21.62,2.48c7.2,0.82,14.4,1.65,21.6,2.47c7.16,0.81,14.32,1.63,21.48,2.45
			c7.19,0.82,14.38,1.65,21.57,2.47c6.72,0.76,13.44,1.52,20.16,2.29c2.96,0.34,5.93,0.71,8.9,1.01c1.14,0.11,2.27,0.28,3.39,0.38
			c0.03,0,0.06,0.01,0.09,0.01c0.02,0,0.04,0,0.06,0.01c0.05,0,0.09,0.01,0.14,0.02c0.65,0.09,0.97,0.84,0.9,1.43
			c-0.07,0.53-0.49,1.07-1.05,1.07C1974.37,611.82,1974.32,611.81,1974.26,611.8z"/>
		<path id="Deckel_21_" d="M1998.42,589.11C1998.42,589.11,1998.42,589.11,1998.42,589.11
			C1998.42,589.11,1998.42,589.11,1998.42,589.11C1998.42,589.11,1998.42,589.11,1998.42,589.11z"/>
		<path id="Deckel_20_" d="M1986.35,590.09c-6.75-0.66-13.5-1.34-20.25-2c-6.74-0.66-13.47-1.36-20.21-2.02
			c-7.03-0.69-14.07-1.38-21.1-2.08c-7.04-0.7-14.08-1.41-21.11-2.11c-7.11-0.71-14.21-1.41-21.32-2.11
			c-7.25-0.71-14.51-1.43-21.76-2.14c-6.99-0.69-13.98-1.39-20.98-2.08c-4.05-0.4-8.11-0.81-12.16-1.17
			c-0.65-0.07-0.97-0.86-0.89-1.43c0.04-0.28,0.15-0.55,0.35-0.76c0.24-0.24,0.53-0.32,0.86-0.29c0,0,0,0,0.01,0
			c1.3,0.12,2.6,0.27,3.89,0.4c1.74,0.18,3.48,0.36,5.23,0.53c3.43,0.34,6.87,0.68,10.31,1.02c7.17,0.71,14.33,1.44,21.5,2.14
			c7.15,0.7,14.3,1.41,21.45,2.12c7.09,0.7,14.19,1.4,21.28,2.11c7.06,0.7,14.12,1.39,21.18,2.09c6.92,0.68,13.84,1.39,20.77,2.05
			c6.7,0.64,13.39,1.32,20.09,1.97c6.74,0.66,13.47,1.34,20.21,2c1.78,0.17,3.56,0.36,5.34,0.53c-0.12,0.05-0.24,0.09-0.35,0.14
			c-0.08,0.03-0.16,0.06-0.23,0.09c0,0,0,0,0,0c0,0,0,0,0,0c0,0,0,0,0,0h0h0c0,0,0,0-0.01,0l0,0c-0.06,0.02-0.11,0.05-0.17,0.07
			c0,0,0.01,0,0.02,0c-0.11,0.04-0.21,0.08-0.31,0.12c-0.14,0.06-0.29,0.12-0.44,0.18c0.02-0.01,0.03-0.01,0.04-0.02
			c-0.72,0.27-1.44,0.52-2.17,0.75c-0.53,0.16-1.05,0.32-1.57,0.5c-0.1,0.03-0.21,0.07-0.31,0.11
			C1991.12,590.57,1988.73,590.33,1986.35,590.09z"/>
		<path id="Deckel_19_" d="M1739.35,608.92c1.42,0,1.41,2.53,0,2.53C1737.94,611.45,1737.94,608.92,1739.35,608.92z"/>
		<path id="Deckel_18_" d="M1736.83,608.66c0,0.01-0.01,0.02-0.02,0.03C1736.81,608.68,1736.82,608.68,1736.83,608.66z"/>
		<path id="Deckel_17_" d="M1860.69,696.79c-3.5-2.47-7-4.96-10.5-7.44c-3.91-2.76-7.81-5.53-11.71-8.29
			c-3.96-2.8-7.91-5.61-11.87-8.4c-4.03-2.85-8.05-5.71-12.08-8.55c-4-2.82-7.98-5.67-11.98-8.49c-4.14-2.92-8.27-5.85-12.4-8.77
			c-4.11-2.91-8.21-5.81-12.32-8.71c-4.04-2.86-8.09-5.73-12.13-8.59c-4.14-2.93-8.27-5.89-12.42-8.8
			c-3.66-2.57-7.3-5.18-10.96-7.75c-1.66-1.17-3.3-2.38-4.98-3.52c-0.01,0-0.02-0.01-0.03-0.02c-0.18-0.11-0.35-0.23-0.53-0.36
			c0.01-0.03,0.02-0.06,0.02-0.09c0-0.01,0-0.03,0-0.04c0,0,0,0,0-0.01c0.01-0.11,0.03-0.23,0.04-0.34c0.13-0.25,0.27-0.5,0.41-0.75
			c0.17-0.32,0.34-0.63,0.5-0.95c0.01-0.01,0.01-0.03,0.02-0.04c0.19,0.13,0.38,0.27,0.57,0.4c0.35,0.21,0.67,0.47,1,0.71
			c0.79,0.57,1.59,1.12,2.39,1.69c1.61,1.14,3.22,2.28,4.83,3.43c3.88,2.77,7.78,5.51,11.67,8.26c4.13,2.92,8.25,5.84,12.38,8.76
			c4.05,2.88,8.11,5.75,12.16,8.61c4.11,2.91,8.23,5.82,12.34,8.73c4.11,2.91,8.22,5.83,12.34,8.73c4.02,2.83,8.03,5.69,12.04,8.52
			c3.99,2.82,7.97,5.65,11.96,8.46c4,2.82,7.99,5.66,11.99,8.49c3.88,2.74,7.75,5.49,11.62,8.23c2.26,1.59,4.52,3.2,6.79,4.79
			c0.52,0.38,0.61,1.2,0.31,1.73c-0.2,0.36-0.54,0.56-0.89,0.56C1861.07,696.98,1860.87,696.92,1860.69,696.79z"/>
		<path id="Deckel_16_" d="M2100.64,595.01C2100.64,595.01,2100.64,595.01,2100.64,595.01
			C2100.64,595.01,2100.64,595.01,2100.64,595.01z"/>
		<path id="Deckel_15_" d="M2119.42,606.38C2119.42,606.37,2119.42,606.37,2119.42,606.38
			C2119.42,606.37,2119.42,606.38,2119.42,606.38z"/>
		<path id="Deckel_14_" d="M2123.28,610.74C2123.28,610.74,2123.28,610.75,2123.28,610.74
			C2123.28,610.75,2123.28,610.75,2123.28,610.74z"/>
		<path id="Deckel_13_" d="M2107.5,598.21C2107.5,598.21,2107.5,598.21,2107.5,598.21C2107.5,598.21,2107.5,598.21,2107.5,598.21z"
			/>
		<path id="Deckel_12_" d="M2125.75,614.54C2125.75,614.54,2125.75,614.54,2125.75,614.54
			C2125.75,614.54,2125.76,614.54,2125.75,614.54C2125.76,614.54,2125.75,614.54,2125.75,614.54z"/>
		<path id="Deckel_11_" d="M2126.69,616.05C2126.69,616.05,2126.69,616.05,2126.69,616.05
			C2126.69,616.05,2126.69,616.05,2126.69,616.05C2126.69,616.05,2126.69,616.05,2126.69,616.05z"/>
		<path id="Deckel_10_" d="M2126.2,618.9c-1.42-1.9-2.63-3.85-3.84-5.88c-1.06-1.27-2.3-2.43-3.25-3.77
			c-3.44-3.79-7.92-6.34-12.36-8.73c-1.06,2.57-4.44-1.99-6.04-2.22c-1.27-0.73-4.28-0.66-3.55-2.81c-0.1-0.75,0-1.21,0.23-1.47
			c0.19,0.09,0.38,0.18,0.58,0.26c0.24,0.1,0.49,0.2,0.74,0.26c0.22,0.06,0.44,0.1,0.66,0.16c0.43,0.1,0.85,0.21,1.27,0.34
			c0,0,0,0,0,0c0.46,0.14,0.93,0.27,1.38,0.47c-0.02,0-0.03-0.01-0.04-0.02c0.29,0.13,0.58,0.26,0.87,0.4
			c0.31,0.16,0.63,0.31,0.93,0.49c-0.01-0.01-0.02-0.02-0.04-0.02c0.13,0.08,0.25,0.17,0.39,0.24c0.12,0.06,0.25,0.12,0.38,0.17
			c0.24,0.09,0.48,0.16,0.72,0.23c0.21,0.15,0.44,0.28,0.66,0.42c0.12,0.07,0.25,0.16,0.38,0.23c0.16,0.09,0.32,0.16,0.49,0.24l0,0
			c0.15,0.07,0.29,0.14,0.44,0.21c0.11,0.05,0.21,0.09,0.31,0.14c0,0,0,0,0.01,0c0.01,0,0.02,0.01,0.03,0.01c0,0,0,0,0,0
			c0.18,0.09,0.35,0.2,0.52,0.3c0.28,0.17,0.58,0.3,0.87,0.45c0,0,0,0,0,0c0.38,0.18,0.73,0.4,1.08,0.63c0,0,0,0,0,0
			c0.2,0.13,0.4,0.27,0.6,0.41c0.19,0.12,0.39,0.21,0.6,0.3c0,0,0,0,0.01,0c0,0,0,0-0.01,0c0,0,0,0,0,0
			c0.27,0.13,0.52,0.27,0.79,0.4c0.27,0.16,0.55,0.33,0.82,0.49c0.07,0.05,0.14,0.1,0.21,0.15c0.42,0.29,0.86,0.53,1.28,0.82
			c-0.01-0.01-0.02-0.02-0.04-0.02c0.23,0.17,0.45,0.33,0.67,0.51c0.17,0.14,0.34,0.27,0.51,0.41c0.36,0.28,0.74,0.54,1.11,0.81
			c0,0,0,0-0.01-0.01c0.05,0.04,0.11,0.08,0.16,0.12c0,0-0.01-0.01-0.01-0.01c0,0,0.01,0,0.01,0.01h0h0l0,0h0
			c0.31,0.23,0.6,0.48,0.89,0.74c0.19,0.17,0.38,0.33,0.56,0.51c0.17,0.16,0.35,0.32,0.53,0.47c0.26,0.21,0.51,0.44,0.75,0.67
			c0,0,0,0,0,0c0.01,0.01,0.01,0.01,0.02,0.02c0,0,0,0-0.01,0c0.32,0.33,0.59,0.69,0.86,1.05c0.12,0.16,0.24,0.3,0.38,0.44
			c0.12,0.12,0.23,0.25,0.35,0.37c-0.01-0.01-0.02-0.02-0.03-0.03c0.26,0.28,0.5,0.57,0.74,0.86c0.11,0.12,0.21,0.25,0.32,0.37
			c-0.01-0.01-0.02-0.02-0.03-0.03c0.14,0.16,0.29,0.31,0.44,0.46c0.29,0.27,0.55,0.56,0.82,0.85l0,0c0,0,0.01,0.01,0.01,0.01
			c0,0.01,0.01,0.01,0.01,0.02l0,0c0.14,0.17,0.28,0.34,0.41,0.51c0.13,0.2,0.27,0.39,0.39,0.59c0.15,0.26,0.3,0.53,0.44,0.79
			c0.07,0.14,0.14,0.27,0.23,0.39c0.22,0.33,0.44,0.67,0.66,1c0,0.01,0.01,0.01,0.01,0.02c0-0.01-0.01-0.01-0.01-0.02
			c0,0,0-0.01-0.01-0.01c0.09,0.15,0.18,0.29,0.29,0.43l0,0c0,0,0,0,0.01,0.01c0,0.01,0.01,0.02,0.02,0.03
			c0-0.01-0.01-0.01-0.01-0.02c0.01,0.01,0.02,0.02,0.03,0.03c0,0,0,0,0,0c0,0,0,0,0,0c0,0,0,0,0,0.01c0,0,0,0.01,0.01,0.01
			c0,0.01,0.01,0.01,0.01,0.02c-0.01-0.01-0.01-0.01-0.01-0.02c0,0,0,0,0,0c0.01,0.01,0.01,0.01,0.02,0.02c0,0,0,0,0,0c0,0,0,0,0,0
			c0,0,0,0,0,0c0.19,0.25,0.36,0.51,0.53,0.78c-0.01-0.01-0.02-0.02-0.02-0.04c0.13,0.24,0.26,0.48,0.4,0.72c0,0,0,0,0,0.01
			c0,0,0,0.01,0.01,0.01c0.15,0.24,0.31,0.47,0.45,0.72c0,0,0,0,0,0c0.09,0.16,0.16,0.33,0.25,0.5c0.06,0.13,0.14,0.26,0.21,0.39
			c0.06,0.1,0.12,0.2,0.19,0.29c0.09,0.12,0.2,0.23,0.3,0.34c0.1,0.11,0.21,0.23,0.3,0.35c0,0,0,0,0,0c0,0,0,0,0,0
			c0,0,0,0.01,0,0.01c0,0,0-0.01,0-0.01c0.01,0.01,0.01,0.02,0.02,0.02c-0.01-0.01-0.01-0.01-0.02-0.02
			c0.03,0.04,0.05,0.07,0.08,0.11c-0.09,0.73-0.51,1.07-0.98,1.07C2127.03,619.81,2126.52,619.49,2126.2,618.9z"/>
		<path id="Deckel_9_" class="st0" d="M2116.97,685.03c0.29,0.26,0.58,0.52,0.87,0.77c-0.34,1.72-0.73,3.55-1.2,5.38
			c-0.51,2-1.09,3.97-1.71,5.94c-0.1,0.3-0.25,0.78-0.41,1.25c-0.67,1.98-1.41,3.93-2.21,5.85c-0.4-0.38-0.79-0.76-1.19-1.13
			c-0.8-0.75-1.59-1.49-2.39-2.23c-1.46-1.37-2.93-2.72-4.39-4.09c-3.53-3.3-7.04-6.62-10.58-9.9c-3.6-3.34-7.16-6.71-10.75-10.05
			c-3.65-3.39-7.28-6.81-10.92-10.21c-3.58-3.35-7.17-6.69-10.75-10.05c-3.49-3.27-7-6.53-10.49-9.81
			c-1.77-1.66-3.57-3.31-5.34-4.98c-1.7-1.59-3.38-3.21-5.1-4.79c-0.02-0.02-0.05-0.05-0.07-0.07c0.3-0.4,0.59-0.8,0.89-1.19
			c0.75-0.99,1.53-1.96,2.33-2.91l0.09-0.11c1.99-2.33,4.17-4.6,6.51-6.68c0.14-0.13,0.29-0.26,0.44-0.39
			c0.05,0.05,0.11,0.1,0.17,0.14c2.7,2.4,5.51,4.91,8.33,7.43c3.71,3.31,7.42,6.63,11.11,9.96c1.91,1.72,3.84,3.43,5.76,5.15
			c1.92,1.73,3.84,3.45,5.78,5.16c0.15,0.14,0.35,0.31,0.54,0.49c0.01,0.01,0.05,0.04,0.09,0.07l0,0c1.46,1.31,2.93,2.62,4.39,3.94
			c3.76,3.38,7.53,6.76,11.31,10.12c3.62,3.23,7.23,6.48,10.85,9.72c1.82,1.63,3.63,3.27,5.46,4.89
			C2115.25,683.48,2116.11,684.25,2116.97,685.03z"/>
		<path id="Deckel_8_" class="st0" d="M2119.42,662.9c0.2,3.59,0.17,7.18-0.02,10.78c-0.14,1.93-0.29,3.84-0.54,5.76
			c-0.16,1.23-0.34,2.46-0.54,3.69c-0.66-0.59-1.32-1.18-1.98-1.77c-3.59-3.22-7.2-6.44-10.8-9.65c-3.75-3.35-7.48-6.74-11.25-10.07
			c-0.15-0.14-0.35-0.31-0.54-0.48c-0.03-0.03-0.13-0.12-0.23-0.21c-1.96-1.75-4.02-3.62-6.11-5.46c-0.14-0.12-0.39-0.35-0.64-0.57
			c-1.18-1.05-2.48-2.23-3.78-3.39c-0.28-0.25-0.61-0.54-0.94-0.84c-1.94-1.75-3.88-3.48-5.83-5.22c-1.88-1.68-3.74-3.38-5.64-5.05
			c-0.19-0.18-0.5-0.45-0.82-0.73c-2.29-2.03-4.6-4.12-6.92-6.2c-1.95-1.74-3.9-3.48-5.85-5.23c-1-0.9-2-1.8-3-2.7
			c-0.46-0.42-0.93-0.84-1.39-1.25c-0.07-0.07-0.14-0.13-0.22-0.2c0.44-0.36,0.88-0.71,1.34-1.05c1.08-0.82,2.19-1.59,3.32-2.34
			c2.06-1.34,4.33-2.61,6.71-3.69c2.19-0.97,4.44-1.78,6.75-2.39c0.43-0.11,0.86-0.21,1.3-0.31c0.06,0.16,0.15,0.31,0.28,0.43
			c0.02,0.02,0.03,0.03,0.05,0.05c3.61,3.54,7.26,7.05,10.86,10.59c3.67,3.61,7.35,7.21,11.03,10.82c3.64,3.57,7.3,7.13,10.93,10.71
			c3.47,3.41,6.95,6.81,10.41,10.22c1.3,1.27,2.59,2.55,3.89,3.82c0.05,0.57,0.09,1.14,0.13,1.71l0,0.06
			C2119.41,662.78,2119.41,662.84,2119.42,662.9z"/>
		<path id="Deckel_7_" class="st0" d="M2118.88,657.31c-0.75-0.74-1.51-1.47-2.27-2.2c-1.72-1.67-3.42-3.36-5.14-5.04
			c-1.76-1.71-3.52-3.43-5.28-5.15c-3.64-3.57-7.29-7.13-10.93-10.7c-3.67-3.61-7.38-7.18-11.04-10.8
			c-1.84-1.82-3.69-3.64-5.55-5.46c-0.9-0.88-1.79-1.76-2.68-2.64c-0.51-0.5-1.01-1-1.51-1.51c0.73-0.11,1.46-0.19,2.2-0.26
			c1.87-0.16,3.87-0.18,5.85-0.01c1.78,0.16,3.7,0.48,5.58,0.97l0.03,0.01c1.73,0.47,3.41,1.07,5.05,1.79l0.02,0.01
			c0.04,0.02,0.07,0.03,0.11,0.04c1.55,0.71,3.1,1.57,4.59,2.53c1.54,1.02,3.01,2.15,4.41,3.39c1.29,1.15,2.57,2.47,3.77,3.86
			c0.04,0.04,0.08,0.1,0.13,0.16c1.26,1.49,2.41,3.05,3.48,4.68c0.04,0.07,0.08,0.13,0.12,0.2c1.25,1.98,2.38,4.01,3.39,6.11
			c1.07,2.32,1.98,4.69,2.79,7.1c0,0,0,0.01,0,0.01c0.02,0.05,0.04,0.09,0.05,0.14c0.85,2.7,1.57,5.52,2.12,8.38
			C2118.45,654.35,2118.68,655.82,2118.88,657.31z"/>
		<path id="Deckel_6_" class="st0" d="M1989.41,590.4c-0.06,0.03-0.12,0.07-0.18,0.1c-2.04,1.11-4.04,2.32-5.93,3.68
			c-1.93,1.39-3.8,2.9-5.45,4.61c-0.83,0.86-1.62,1.77-2.32,2.74c-0.7,0.96-1.35,1.98-1.82,3.07c-0.61,1.43-0.98,3-0.82,4.54
			c-0.66-0.08-1.32-0.16-1.99-0.23c-2.97-0.3-5.94-0.67-8.9-1.01c-6.72-0.77-13.44-1.53-20.16-2.29
			c-7.19-0.82-14.38-1.64-21.57-2.47c-7.16-0.82-14.32-1.64-21.48-2.45c-7.2-0.82-14.4-1.65-21.6-2.47
			c-7.21-0.82-14.41-1.64-21.62-2.48c-7.28-0.84-14.56-1.66-21.84-2.5c-6.81-0.79-13.62-1.59-20.43-2.35
			c-3.05-0.35-6.11-0.71-9.16-1.05c-1.58-0.18-3.15-0.36-4.73-0.54c-0.41-0.05-0.83-0.1-1.24-0.14c-0.16-0.45-0.55-0.82-1.05-0.79
			c-0.01,0-0.01,0-0.02,0c0,0-0.01,0-0.02,0c-0.76,0.06-1.53,0.07-2.29,0l-0.18-0.03c0.04-0.04,0.08-0.08,0.12-0.12
			c0.51-0.44,1.05-0.84,1.61-1.21c2.84-1.8,5.89-3.25,8.96-4.63c3.59-1.6,7.23-3.06,10.89-4.46c3.54-1.35,7.11-2.59,10.7-3.79
			c0.14,0.14,0.32,0.25,0.53,0.27c4.06,0.36,8.11,0.77,12.16,1.17c7,0.69,13.99,1.39,20.98,2.08c7.25,0.71,14.51,1.43,21.76,2.14
			c7.11,0.7,14.21,1.4,21.32,2.11c7.04,0.7,14.08,1.41,21.12,2.11c7.03,0.7,14.06,1.39,21.09,2.08c6.74,0.66,13.48,1.35,20.21,2.02
			c6.75,0.66,13.5,1.34,20.25,2C1987.37,590.2,1988.39,590.29,1989.41,590.4z"/>
		<path id="Deckel_5_" class="st0" d="M2006.92,584.14c-1.18,0.21-2.35,0.46-3.5,0.76c-3.37,0.86-6.66,2.02-9.83,3.44
			c-6.71-0.66-13.41-1.33-20.13-1.99c-6.7-0.66-13.38-1.33-20.09-1.97c-6.92-0.66-13.84-1.37-20.77-2.05
			c-7.06-0.7-14.12-1.39-21.18-2.09c-7.09-0.71-14.19-1.4-21.28-2.11c-7.15-0.7-14.3-1.41-21.45-2.12
			c-7.16-0.71-14.33-1.43-21.5-2.14c-3.44-0.34-6.88-0.67-10.3-1.02c-1.55-0.16-3.09-0.31-4.62-0.47c3.72-1.18,7.47-2.25,11.24-3.25
			c0.03-0.01,0.07-0.02,0.11-0.03c0.01,0,0.02-0.01,0.03-0.01c0.41-0.11,0.82-0.21,1.23-0.32c2.26-0.58,4.52-1.12,6.8-1.59
			c2.4-0.49,4.81-0.93,7.25-1.15c0.82-0.07,1.67-0.12,2.52-0.06c0.23,0.02,0.46,0.05,0.69,0.09c0.64,0.11,1.13-0.46,1.21-1.05
			c0.01-0.09,0.02-0.19,0.01-0.29C1911.22,571.17,1959.07,577.65,2006.92,584.14z"/>
		<path id="Deckel_4_" class="st1" d="M2112.23,709.75C2112.23,709.75,2112.23,709.75,2112.23,709.75
			C2112.22,709.75,2112.22,709.75,2112.23,709.75z"/>
		<path id="Deckel_3_" class="st1" d="M2124.39,663.3c0-0.38-0.16-0.81-0.47-1.04c-0.3-0.28-0.58-0.57-0.87-0.85
			c-0.57-0.55-1.13-1.11-1.7-1.66c-0.03-0.03-0.06-0.06-0.09-0.09c-0.29-3.1-0.75-6.22-1.44-9.29c-1.07-4.82-2.57-9.54-4.66-14.02
			c-2-4.29-4.48-8.34-7.56-11.94c-2.93-3.46-6.57-6.58-10.66-8.9c-4.14-2.35-8.8-3.88-13.54-4.36c-2.27-0.23-4.55-0.25-6.83-0.05
			c-2.48,0.21-4.9,0.68-7.3,1.34c-4.77,1.31-9.27,3.52-13.41,6.21c-3.17,2.07-6.18,4.52-8.93,7.2c-1.78,1.73-3.47,3.54-5.07,5.44
			c-0.79,0.93-1.55,1.89-2.3,2.86c-0.36,0.47-0.72,0.95-1.08,1.43c-0.14,0.19-0.27,0.38-0.41,0.57c-0.26,0.36-0.4,0.83-0.27,1.27
			c0.12,0.41,0.41,0.8,0.85,0.86c0.01,0,0.02,0,0.03,0c0.06,0.21,0.16,0.41,0.32,0.57c0.3,0.3,0.63,0.58,0.95,0.88
			c0.43,0.4,0.86,0.8,1.29,1.2c0.92,0.85,1.83,1.7,2.74,2.55c1.75,1.63,3.49,3.27,5.24,4.91c3.5,3.29,7.01,6.56,10.52,9.84
			c3.57,3.34,7.14,6.68,10.71,10.02c3.65,3.41,7.32,6.81,10.96,10.24c3.57,3.37,7.17,6.71,10.75,10.06
			c3.54,3.3,7.07,6.61,10.61,9.91c1.54,1.44,3.06,2.89,4.61,4.33c0.84,0.79,1.69,1.57,2.53,2.36c0.47,0.44,0.94,0.88,1.41,1.32
			c-0.22,0.5-0.45,1-0.68,1.5c0,0,0,0.01,0,0.01c0,0,0,0,0,0.01s0,0,0,0.01c0,0.01,0,0.01-0.01,0.02c0,0,0,0.01-0.01,0.01
			c0,0,0,0,0,0.01v0l0,0v0c-0.03,0.05-0.05,0.1-0.07,0.14c-0.01,0.02-0.03,0.05-0.04,0.09c-0.01,0.02-0.02,0.03-0.02,0.04
			c-0.04,0.07-0.07,0.15-0.11,0.23l-0.01,0.02c-0.02,0.03-0.03,0.06-0.04,0.09l0,0c-0.07,0.18-0.11,0.37-0.11,0.56
			c0,0.6,0.41,1.25,1.07,1.25c0.42,0,0.74-0.27,0.92-0.62c0.02-0.03,0.03-0.07,0.05-0.1v0l0,0c0.09-0.19,0.18-0.39,0.27-0.58
			c0.21-0.46,0.43-0.93,0.64-1.39c0.62-0.03,1.02-0.66,1.02-1.25c0-0.25-0.06-0.48-0.18-0.68c0.71-1.69,1.38-3.42,1.99-5.16
			c1.53-4.32,2.79-8.74,3.7-13.23c0.17,0.12,0.36,0.19,0.57,0.19c0.25,0,0.52-0.1,0.71-0.3c0.47-0.48,0.46-1.23,0.1-1.77
			c-0.05-0.08-0.11-0.13-0.18-0.19l-0.04-0.04c-0.04-0.04-0.09-0.07-0.13-0.1c-0.04-0.04-0.07-0.07-0.11-0.1
			c-0.14-0.12-0.27-0.24-0.41-0.36c0.64-3.57,1.11-7.32,1.31-11.08c0.22-3.43,0.24-6.99,0.03-10.55c0.07,0.08,0.15,0.15,0.23,0.23
			c0.29,0.29,0.57,0.58,0.87,0.85c0.17,0.18,0.41,0.31,0.7,0.31h0C2123.98,664.55,2124.39,663.89,2124.39,663.3z M2138.75,657.71
			c0.22,3.81,0.19,7.77-0.05,11.71c-0.01,0.12-0.02,0.24-0.03,0.36c-0.02,0.29-0.04,0.57-0.06,0.86c-0.32,4.12-0.9,8.21-1.67,12.28
			l-0.02,0.09c-0.41,2.11-0.88,4.21-1.41,6.29c-0.45,1.77-0.94,3.52-1.47,5.27c-0.16,0.53-0.32,1.05-0.49,1.58
			c-0.09,0.29-0.19,0.58-0.28,0.87c0,0.02-0.01,0.04-0.02,0.07c-0.02,0.07-0.05,0.15-0.07,0.23c-0.08,0.25-0.17,0.51-0.25,0.76
			c-1.56,4.64-3.41,9.19-5.5,13.62c-0.11,0.22-0.16,0.34-0.21,0.45c-0.12,0.25-0.31,0.64-0.5,1.04c-2.2,4.53-4.7,8.93-7.42,13.17
			c-0.02,0.03-0.05,0.08-0.07,0.12l-0.02,0.04c-0.01,0.02-0.03,0.04-0.04,0.07c0,0,0,0,0,0c-0.45,0.69-0.89,1.38-1.36,2.05
			c-0.88,1.29-1.76,2.57-2.68,3.83c-0.34,0.47-0.69,0.94-1.03,1.4c-0.34,0.46-0.68,0.93-1.03,1.38c-3.49-3.25-6.96-6.51-10.46-9.75
			c-1.93-1.78-3.84-3.59-5.76-5.39c-1.8-1.7-3.62-3.38-5.44-5.07c-3.69-3.44-7.38-6.88-11.05-10.33
			c-3.69-3.46-7.38-6.91-11.09-10.36c-3.76-3.49-7.5-7-11.24-10.51c-3.73-3.5-7.47-6.98-11.2-10.47c-3.64-3.4-7.3-6.79-10.93-10.2
			c-3.68-3.45-7.36-6.88-11.04-10.33c-3.5-3.28-7.02-6.54-10.52-9.82c-1.8-1.69-3.62-3.38-5.42-5.07c-1.42-1.33-2.82-2.66-4.25-3.98
			c0.02-0.03,0.04-0.05,0.07-0.08c0.38-0.45,0.75-0.91,1.14-1.35l0.11-0.12c0.33-0.38,0.77-0.89,1.21-1.39
			c3.42-3.86,7.07-7.51,10.94-10.92c0.01-0.01,0.14-0.12,0.27-0.23c4.15-3.62,8.54-6.96,13.16-9.96c0.03-0.02,0.09-0.05,0.14-0.09
			c0.04-0.02,0.11-0.07,0.17-0.11c4.44-2.86,9.1-5.36,13.92-7.5c4.41-1.95,8.96-3.56,13.62-4.77l0.05-0.01
			c4.29-1.09,8.65-1.85,13.06-2.23c3.8-0.31,7.77-0.31,11.72,0.04c3.21,0.29,6.57,0.86,9.83,1.71c0.01,0,0.02,0.01,0.04,0.01
			c0.04,0.01,0.07,0.02,0.11,0.03c3.11,0.83,6.16,1.89,9.11,3.23c0.24,0.11,0.48,0.22,0.73,0.34c0.54,0.38,1.07,0.68,1.52,0.74
			c1.78,0.9,3.55,1.93,5.27,3.05l0.07,0.04c0,0,0,0,0.01,0.01c2.28,1.52,4.45,3.19,6.5,5c1.96,1.76,3.8,3.67,5.53,5.69
			c0,0,0.01,0.01,0.01,0.01s0.01,0.01,0.02,0.02c0.03,0.03,0.05,0.06,0.07,0.09c0.02,0.02,0.04,0.04,0.06,0.07
			c1.71,2.04,3.28,4.21,4.7,6.45c1.43,2.23,2.78,4.71,3.97,7.25c0,0.01,0.04,0.08,0.07,0.15c1.23,2.69,2.3,5.44,3.21,8.26
			c0.98,3.1,1.78,6.3,2.38,9.54C2138.11,650.4,2138.54,654.05,2138.75,657.71z"/>
		<path id="Deckel_2_" class="st1" d="M1783.11,592.91c0.25,1-1.13,1.81-1.94,2.12c-1.1,0.3-1.92-0.76-2.65-1.46
			c-0.19-2.03-2.77-1.61-2.32,0.38c0.69,1.68,2.36,3.2,4.15,3.6c4.64,0.21,7.2-6.32,2.04-7.96c-2.29-0.55-4.88,0.51-6.62,1.91
			C1778.09,591.13,1781.72,590.47,1783.11,592.91z M1999.3,619.05c1.42-3.07-0.2-6.23-3.82-5.62c1.06,0.46,2.52,0.98,2.75,2.32
			c-0.28,4.08-5.57,8.33-9.69,7.3c-5.38-1.86-0.96-6.84,2.86-7.02c1.14,0.43,2.1-0.96,1.36-1.89c-0.8-1.08-2.4-0.5-3.47-0.16
			c-4.96,1.46-7.78,7.88-2.56,10.93C1991.5,627.33,1997.39,623.58,1999.3,619.05z M2023.4,595.06c3.04,3.08-4.45,7.62-7.04,5.7
			c-0.63-0.56-0.41-1.68,0.34-2.04c0.76-0.05,1.26-0.75,1.16-1.48c-0.07-0.59-0.57-1.16-1.21-1.05c-4.08,0.91-3.45,7.36,0.76,7.5
			c10.11-0.16,13.03-13.21,0.34-11.41c-2.08,0.16-4.3,0.31-6.27,0.85c1.25,0.02,2.48,0.12,3.71,0.23
			C2017.88,593.79,2021.05,593.46,2023.4,595.06z M2013.9,585.08c19.05,2.58,38.11,5.17,57.16,7.75c-4.02,0.39-8.07,1.13-12.04,2.16
			c-0.21,0.05-0.57,0.15-0.93,0.25c-5,1.35-9.86,3.16-14.56,5.32c-4.84,2.23-9.48,4.88-13.93,7.8c-4.57,3-8.9,6.37-13,9.99
			c-1.39,1.23-2.87,2.59-4.31,4c-1.85,1.8-3.65,3.66-5.39,5.58c-0.87,0.95-1.73,1.92-2.57,2.9c-0.39,0.46-0.79,0.92-1.18,1.38
			c-0.15,0.18-0.29,0.36-0.38,0.58c-0.08,0.19-0.12,0.39-0.11,0.59c-0.04,0.04-0.08,0.08-0.12,0.13c-0.29,0.38-0.36,0.98-0.14,1.43
			c-1.22-0.12-2.44-0.24-3.66-0.36c-3.45-0.32-6.89-0.64-10.34-0.98c-10.71-1.05-21.43-2.07-32.14-3.09
			c-10.97-1.05-21.93-2.13-32.9-3.18c-10.57-1.01-21.13-2.03-31.7-3.06c-10.55-1.03-21.11-2.01-31.66-3.04
			c-10.67-1.05-21.34-2.05-32.02-3.09c-10.67-1.04-21.34-2.07-32.01-3.09c-10.5-1-21-2.03-31.51-3.04c-5.24-0.51-10.48-1-15.72-1.52
			c-2.27-0.22-4.54-0.45-6.8-0.66c-0.07-0.05-0.14-0.11-0.22-0.16c-0.67-0.48-1.34-0.95-2.01-1.42c0.04-0.07,0.09-0.15,0.14-0.22
			c0.54-0.82,1.14-1.6,1.78-2.35c0.5-0.59,1.18-1.24,1.83-1.93c0.63-0.66,1.31-1.29,2-1.9c1.25-1.11,2.66-2.25,4.09-3.39
			c1.66-1.33,3.39-2.59,5.12-3.82c1.85-1.3,3.74-2.57,5.63-3.8c3.32-2.16,6.7-4.22,10.14-6.19c4.07-2.33,8.19-4.59,12.38-6.7
			c1.98-1,3.96-1.98,5.95-2.93c1.95-0.93,3.91-1.82,5.88-2.71l0.07-0.03c3.92-1.75,7.88-3.42,11.9-4.95
			c2.18-0.83,4.38-1.6,6.59-2.34c2.14-0.72,4.31-1.37,6.5-1.95c2.45-0.64,4.94-1.21,7.47-1.54c0,0,0.01,0,0.01,0
			c0.02,0,0.03-0.01,0.05-0.01h0c0,0,0.01,0,0.01,0c0.05-0.01,0.11-0.02,0.16-0.04c0.18-0.04,0.36-0.09,0.53-0.12
			c0.15-0.04,0.31-0.08,0.46-0.09c0.16-0.02,0.32-0.02,0.48-0.02c0.08,0,0.15,0,0.23,0c0.09-0.02,0.17-0.04,0.26-0.07
			c0.02,0,0.04-0.01,0.07-0.02c0.04-0.01,0.07-0.01,0.1-0.02c0.06-0.01,0.12-0.02,0.18-0.02c0.03,0,0.06-0.01,0.09-0.02
			c0.1-0.02,0.2-0.04,0.3-0.05c0.12-0.02,0.24-0.03,0.36-0.03c0.07,0,0.14,0,0.22,0c0.08,0,0.17,0,0.26,0c0,0-0.01,0-0.01,0
			c0.44-0.02,0.88-0.11,1.32-0.12c0.38-0.01,0.76-0.01,1.14-0.01c0.48,0,0.95,0.01,1.42,0.03c0.41,0.02,0.81,0.03,1.22,0.05
			c0.26,0.02,0.52,0.02,0.77,0.07c0.07,0.01,0.13,0.03,0.2,0.05c0.07,0.02,0.13,0.03,0.2,0.05c0.01,0,0.02,0,0.03,0.01
			c0.18,0.01,0.37,0.04,0.55,0.06c0.23,0.04,0.47,0.07,0.7,0.11h0c0.16,0.03,0.31,0.07,0.47,0.1c0.01,0,0.02,0,0.02,0
			c0.21,0.03,0.42,0.05,0.62,0.09c0.09,0.02,0.19,0.04,0.28,0.06c0.02,0,0.03,0.01,0.04,0.01c5.54,0.75,11.09,1.5,16.63,2.25
			c-2.17,0.3-4.32,0.71-6.45,1.18c-2.21,0.49-4.42,1.01-6.61,1.59c-0.03,0.01-0.07,0.02-0.11,0.03c-0.01,0-0.02,0-0.04,0.01
			c-1.43,0.38-2.85,0.77-4.28,1.17c-4.56,1.29-9.09,2.7-13.59,4.22c-4.5,1.52-8.98,3.12-13.4,4.89c-4.52,1.81-9.02,3.7-13.32,5.96
			c-1.14,0.6-2.27,1.24-3.34,1.94c-0.52,0.33-1.02,0.67-1.49,1.05c-0.66,0.54-1.34,1.14-1.7,1.94c-0.25,0.56-0.3,1.16-0.07,1.74
			c0.15,0.38,0.45,0.7,0.8,0.9c0.48,0.28,1.05,0.38,1.6,0.43c0.08,0.01,0.16,0.02,0.25,0.02c0.15,0.25,0.39,0.44,0.69,0.49
			c0.41,0.06,0.82,0.09,1.23,0.14c0.73,0.08,1.46,0.16,2.2,0.25c1.52,0.17,3.03,0.34,4.55,0.52c2.91,0.34,5.83,0.67,8.75,1
			c6.79,0.78,13.59,1.54,20.38,2.32c7.21,0.82,14.41,1.66,21.61,2.47c7.27,0.82,14.54,1.65,21.8,2.49
			c7.22,0.83,14.45,1.65,21.66,2.48c7.14,0.82,14.29,1.64,21.43,2.45c7.17,0.82,14.33,1.64,21.5,2.46
			c6.73,0.77,13.46,1.56,20.19,2.33c3.22,0.36,6.45,0.71,9.66,1.11c0.67,0.08,1.34,0.16,2.01,0.23c0.48,0.05,0.98,0.09,1.47,0.15
			c0.05,0.02,0.1,0.03,0.15,0.04c0.05,0,0.09,0.01,0.13,0.01c0.05,0.01,0.11,0.02,0.16,0.02c0.56,0,0.98-0.53,1.05-1.07
			c0.05-0.35-0.05-0.77-0.29-1.06c-0.02-0.05-0.04-0.1-0.05-0.15v0c-0.02-0.05-0.03-0.09-0.05-0.14c-0.01-0.03-0.04-0.16-0.07-0.3
			c-0.02-0.14-0.04-0.28-0.05-0.43c-0.01-0.18-0.01-0.37,0-0.55c0.02-0.23,0.05-0.46,0.09-0.69c0.07-0.31,0.14-0.61,0.24-0.91
			c0.11-0.32,0.23-0.62,0.37-0.93c0.27-0.56,0.57-1.1,0.9-1.62l0.02-0.03c0.01-0.02,0.02-0.03,0.03-0.04
			c0.43-0.64,0.91-1.29,1.43-1.9c0.93-1.08,1.93-2.08,2.99-3.02c1.67-1.47,3.55-2.84,5.51-4.12c1.98-1.28,4.06-2.43,6.18-3.45
			c0.09-0.09,0.18-0.17,0.28-0.25c0.12-0.11,0.25-0.21,0.39-0.29c0.07-0.03,0.14-0.06,0.21-0.09c0.07-0.03,0.14-0.05,0.21-0.07
			c0.48-0.16,0.97-0.31,1.46-0.46c0.01,0,0.01,0,0.02-0.01c0.04-0.01,0.07-0.02,0.1-0.03c0.71-0.22,1.42-0.47,2.12-0.73
			c0.15-0.06,0.3-0.12,0.44-0.18c0.1-0.04,0.2-0.09,0.31-0.12c-0.01,0-0.02,0-0.02,0c0.06-0.02,0.12-0.04,0.17-0.07v0
			c0,0,0,0,0.01,0c0,0,0,0,0,0h0c0.07-0.03,0.15-0.06,0.23-0.09c0.12-0.05,0.23-0.1,0.36-0.14c-0.06-0.01-0.12-0.01-0.19-0.02
			c1.46-0.52,2.96-0.99,4.47-1.4c1.21-0.31,2.43-0.6,3.66-0.81c1.29-0.23,2.59-0.39,3.89-0.5c0.68-0.05,1.35-0.08,2.02-0.08
			C2013.42,586.09,2013.8,585.58,2013.9,585.08z"/>
		<path id="Deckel_1_" d="M2111.24,739.8c-0.09-0.01-0.17-0.03-0.24-0.06c-1.72-0.32-3.45-0.57-5.16-0.85
			c-1.08-0.18-2.16-0.36-3.25-0.54c-3.96-0.69-7.92-1.34-11.89-2c-8.8-1.46-17.61-2.97-26.41-4.43c-9.16-1.52-18.31-3.09-27.46-4.61
			c-8.73-1.45-17.46-2.95-26.19-4.4c-8.57-1.42-17.14-2.89-25.71-4.31c-3.95-0.66-7.9-1.34-11.86-2c-4.72-0.79-9.45-1.58-14.17-2.38
			c-9.09-1.52-18.17-3.05-27.26-4.58c-9.14-1.54-18.28-3.06-27.42-4.59c-7.46-1.25-14.92-2.48-22.37-3.75
			c-7.29-1.24-14.59-2.46-21.88-3.67c-0.19-0.03-0.38-0.06-0.57-0.09c-0.73-0.12-1.19-0.85-1.04-1.56c0.09-0.44,0.43-0.82,0.87-0.92
			c0.22-0.05,0.43,0,0.65,0.04c0.43,0.07,0.85,0.14,1.27,0.22c1.7,0.29,3.39,0.57,5.09,0.86c4.16,0.7,8.31,1.39,12.46,2.09
			c7.34,1.23,14.68,2.46,22.01,3.69c8.82,1.48,17.64,2.97,26.46,4.45c9.13,1.54,18.27,3.07,27.4,4.6c9.23,1.54,18.46,3.13,27.7,4.64
			c4.11,0.67,8.21,1.39,12.32,2.08c3.95,0.67,7.91,1.31,11.87,1.98c8.95,1.5,17.9,3.06,26.86,4.51c4.68,0.75,9.34,1.59,14.01,2.37
			c4.25,0.71,8.5,1.41,12.74,2.12c8.8,1.48,17.6,2.96,26.39,4.43c7.25,1.21,14.5,2.41,21.75,3.65c0.78,0.13,1.56,0.27,2.34,0.4
			c0.23,0.04,0.46,0.08,0.69,0.12c0.06,0,0.13,0,0.2,0.01h0c0.2,0.04,0.4,0.07,0.6,0.11c0.63,0.15,0.89,0.96,0.78,1.53
			c-0.12,0.56-0.58,0.97-1.14,0.92c0,0,0,0,0,0.01C2111.54,739.85,2111.39,739.82,2111.24,739.8z"/>
		<path id="Deckel" class="st2" d="M2111.62,737.07c-0.02,0.02-0.04,0.05-0.06,0.07c-0.04,0.04-0.08,0.1-0.11,0.17
			c-0.07-0.02-0.14-0.02-0.2-0.02c-0.23-0.04-0.46-0.08-0.68-0.12c-0.78-0.13-1.56-0.27-2.34-0.4c-7.25-1.23-14.5-2.44-21.75-3.65
			c-8.8-1.47-17.6-2.95-26.39-4.43c-4.25-0.71-8.5-1.41-12.74-2.12c-4.67-0.79-9.34-1.62-14.01-2.37
			c-8.96-1.45-17.91-3.01-26.86-4.51c-3.96-0.66-7.92-1.31-11.87-1.98c-4.11-0.69-8.21-1.41-12.32-2.08
			c-9.24-1.5-18.46-3.09-27.7-4.64c-9.13-1.53-18.27-3.07-27.4-4.6c-8.82-1.48-17.64-2.98-26.46-4.45
			c-7.34-1.23-14.67-2.46-22.01-3.69c-4.15-0.7-8.31-1.39-12.46-2.09c-1.31-0.22-2.62-0.44-3.93-0.66c-0.05-0.32-0.2-0.62-0.46-0.8
			c-2.27-1.59-4.52-3.2-6.79-4.79c-3.88-2.74-7.75-5.49-11.62-8.23c-3.99-2.83-7.98-5.66-11.98-8.49
			c-3.99-2.82-7.97-5.65-11.96-8.46c-4.02-2.84-8.02-5.69-12.05-8.52c-4.12-2.9-8.23-5.82-12.34-8.73
			c-4.11-2.91-8.22-5.82-12.34-8.73c-4.05-2.87-8.11-5.74-12.16-8.61c-4.12-2.93-8.24-5.84-12.38-8.76
			c-3.89-2.75-7.79-5.5-11.67-8.26c-0.2-0.14-0.39-0.28-0.58-0.41c4.88,0.46,9.77,0.94,14.65,1.41c10.61,1.03,21.21,2.05,31.82,3.06
			c10.62,1.02,21.23,2.07,31.86,3.08c10.61,1.01,21.21,2.06,31.82,3.07c10.61,1.01,21.22,2.06,31.84,3.08
			c10.57,1.02,21.15,2.01,31.73,3.05c10.89,1.07,21.79,2.09,32.68,3.15c10.75,1.04,21.49,2.09,32.23,3.12
			c4.39,0.42,8.79,0.86,13.18,1.29c1,0.1,2,0.2,3,0.29c0.62,0.06,1.24,0.12,1.86,0.18c0.27,0.02,0.54,0.05,0.8,0.08
			c0.1,0.01,0.21,0.01,0.31,0.02c0.08,0.02,0.17,0.03,0.26,0.04c0,0,0.01,0,0.01,0c0.04,0,0.09,0.01,0.14,0.01c0.02,0,0.05,0,0.07,0
			c0.24,0,0.45-0.11,0.61-0.28c3.59,3.34,7.16,6.68,10.74,10.02c3.5,3.27,7,6.53,10.5,9.8c3.69,3.45,7.39,6.89,11.08,10.35
			c3.64,3.41,7.29,6.82,10.94,10.22c3.74,3.48,7.46,7,11.21,10.47c3.72,3.44,7.41,6.93,11.11,10.38c3.72,3.47,7.42,6.96,11.15,10.41
			c1.85,1.71,3.68,3.46,5.53,5.18c1.88,1.73,3.75,3.48,5.61,5.22c1.86,1.75,3.72,3.5,5.59,5.23c1.79,1.66,3.55,3.34,5.34,5
			c1.8,1.67,3.59,3.35,5.39,5.03c0.84,0.79,1.68,1.58,2.52,2.36C2111.59,737.04,2111.61,737.05,2111.62,737.07z"/>
	</g>
</g>
</svg>
