<?xml version="1.0" encoding="utf-8"?>
<!-- Generator: Adobe Adobe Illustrator 24.2.0, SVG Export Plug-In . SVG Version: 6.00 Build 0)  -->
<svg version="1.1" id="Vektorebene_1_" xmlns="http://www.w3.org/2000/svg" xmlns:xlink="http://www.w3.org/1999/xlink" x="0px"
	 y="0px" width="2360px" height="1640px" viewBox="0 0 2360 1640" style="enable-background:new 0 0 2360 1640;"
	 xml:space="preserve">
<style type="text/css">
	.st0{fill:#592E08;}
	.st1{fill:#BF6211;}
	.st2{fill:#F2E641;}
	.st3{fill:#8C8884;}
	.st4{fill:#59544F;}
</style>
<path d="M2042.56,685.66c0-0.21-0.03-0.41-0.11-0.61c-0.2-0.46-0.52-0.77-0.93-0.95c1.01-0.14,2.01-0.25,2.99-0.33
	c1.46-0.13,2.94-0.19,4.41-0.19c-0.15,0.05-0.29,0.11-0.44,0.17c-0.53,0.1-1.06,0.21-1.59,0.32c-1.13,0.23-2.28,0.43-3.38,0.77
	c-0.39,0.12-0.71,0.44-0.9,0.81C2042.59,685.66,2042.57,685.66,2042.56,685.66z"/>
<path d="M1841.43,675.36C1841.43,675.36,1841.43,675.36,1841.43,675.36C1841.43,675.36,1841.43,675.36,1841.43,675.36
	C1841.43,675.36,1841.43,675.36,1841.43,675.36z"/>
<path d="M1841.43,675.36C1841.43,675.36,1841.43,675.36,1841.43,675.36h-0.01c-0.1,0.01-0.2,0.02-0.3,0.04
	c-0.21,0.05-0.41,0.14-0.62,0.19c0.01,0,0.02,0,0.02,0c-0.2,0.04-0.4,0.08-0.61,0.11c-0.22,0.04-0.44,0.11-0.66,0.16
	c-0.16,0.04-0.32,0.06-0.48,0.07c-0.2,0.02-0.39,0.05-0.59,0.09c-0.17,0.04-0.34,0.06-0.51,0.1c-0.02-0.01-0.04-0.02-0.05-0.03h0
	c-0.58-0.28-1.16-0.54-1.74-0.79c-0.71-0.29-1.42-0.57-2.14-0.84c0.23-0.05,0.47-0.09,0.7-0.14c0,0,0.01,0,0.01,0
	c0.04-0.01,0.08-0.02,0.12-0.03c0,0,0.01,0,0.01,0c0.04-0.01,0.09-0.02,0.12-0.03c0,0,0.01,0,0.01,0c0.04-0.01,0.09-0.02,0.12-0.03
	c0,0,0.01,0,0.01,0c0.04-0.01,0.09-0.03,0.13-0.04c0,0,0,0,0.01,0c0.01,0,0.01,0,0.02-0.01c0.06-0.02,0.12-0.04,0.18-0.06
	c0.02,0,0.03-0.01,0.05-0.02c0.05-0.02,0.1-0.04,0.15-0.05c0.04-0.01,0.09-0.02,0.14-0.03c0.05-0.01,0.11-0.02,0.16-0.02
	c0.01,0,0.03,0,0.04,0c0,0,0,0,0.01,0c0.12,0,0.23,0,0.35-0.01c0.06,0,0.12-0.01,0.19-0.02c0.01,0,0.01,0,0.02,0
	c0.06-0.01,0.12-0.02,0.18-0.03c0,0,0.01,0,0.01,0c0.06-0.01,0.13-0.02,0.19-0.03c0,0,0.01,0,0.01,0c0.07-0.01,0.13-0.03,0.19-0.04
	c0,0,0.01,0,0.01,0c0.06-0.02,0.12-0.04,0.19-0.06c0.04-0.01,0.07-0.02,0.11-0.03l0,0c0.02,0.01,0.05,0.02,0.08,0.03l0,0
	c0,0,0.01,0,0.02,0c0.02,0,0.04,0,0.07,0h0c0.01,0,0.01,0,0.02,0c0.01,0,0.02,0,0.02,0c0.01,0,0.02,0,0.03,0c0.01,0,0.01,0,0.02,0
	c0,0,0,0,0,0l0,0c0.02,0,0.03-0.01,0.04-0.02c0.02,0,0.02-0.01,0.04-0.02c0,0,0,0,0,0c0,0,0,0,0,0h0c0.02,0,0.04,0,0.06,0
	c0,0,0.01,0,0.01,0c0.04,0,0.09,0.01,0.13,0.02h0c0.05,0,0.09,0.01,0.14,0.01c0.02,0,0.03,0,0.04,0c0.04,0,0.09,0,0.13,0
	c0.01,0,0.02,0,0.03,0c0.01,0,0.02,0,0.02,0c0.02,0,0.05-0.01,0.07-0.01c0.02,0,0.05,0,0.08-0.01c1.07,0.5,2.11,1.04,3.13,1.62
	C1841.41,675.35,1841.42,675.35,1841.43,675.36z"/>
<path d="M1836.62,672.97c-0.03,0-0.06,0-0.09,0c-0.13,0.01-0.26,0.02-0.39,0.03c-0.17,0-0.34,0-0.52,0c-0.33,0-0.65,0-0.98,0
	c-0.07,0-0.15,0-0.22,0c-0.42,0-0.85-0.02-1.27,0.01c-0.23,0.01-0.47,0-0.7,0c-0.25,0-0.5,0.01-0.75,0h0c-0.01,0-0.01,0-0.02,0
	c-0.14-0.02-0.28-0.04-0.41-0.06c-0.13-0.01-0.27-0.02-0.4-0.02c-0.07,0-0.13-0.01-0.2-0.01c-0.23-0.02-0.45-0.05-0.67-0.08
	c-0.26-0.03-0.52-0.04-0.78-0.05c-0.01,0-0.02,0-0.04,0c0.02,0,0.03,0,0.04,0c-0.04,0-0.09,0-0.13-0.01
	c-0.16-0.04-0.31-0.09-0.47-0.12c-0.04-0.01-0.09-0.02-0.13-0.02h0c0,0-0.01,0-0.01,0c-0.08-0.01-0.16-0.02-0.25-0.03
	c-0.11-0.01-0.21-0.03-0.32,0c0,0-0.01,0-0.02,0s0,0-0.01,0c0,0,0,0-0.01,0h0c-0.05-0.01-0.11-0.01-0.16-0.02c-0.01,0-0.03,0-0.04,0
	c-0.01,0-0.02,0-0.02,0c-0.14-0.01-0.27-0.03-0.41-0.04c-0.03,0-0.05,0-0.08-0.01c0,0,0,0-0.01,0c-0.01,0-0.01,0-0.02,0
	c-2.95-0.64-5.94-1.05-8.94-1.28c-2.06-0.12-4.12-0.19-6.19-0.14c-0.87,0.02-1.73,0.05-2.59,0.1c-0.05,0-0.1,0-0.14,0.01
	c-0.12,0-0.25,0-0.37,0c-0.02,0-0.04,0-0.05,0c-0.05,0-0.11,0.01-0.16,0.03h0c-0.97,0.06-1.94,0.14-2.9,0.23
	c-0.02,0-0.04,0-0.06,0.01l-0.04,0c-0.56,0.06-1.11,0.12-1.67,0.2c-0.62,0.07-1.25,0.16-1.88,0.25c-0.19,0.02-0.38,0.05-0.56,0.09
	c-1.16,0.17-2.33,0.37-3.48,0.59c0,0,0,0-0.01,0c-0.31,0.05-0.62,0.12-0.93,0.18c-2.15,0.44-4.28,0.97-6.37,1.54
	c-2.8,0.79-5.57,1.68-8.3,2.71c-2.82,1.07-5.58,2.25-8.27,3.51c-2.56,1.22-5.07,2.54-7.54,3.94c-2.46,1.39-4.84,2.91-7.11,4.44
	c-2.31,1.58-4.57,3.23-6.77,4.96c-2.16,1.69-4.23,3.5-6.25,5.34c-0.85,0.79-1.69,1.6-2.52,2.41c-0.11,0.1-0.21,0.2-0.31,0.31
	c-0.11,0.1-0.21,0.2-0.31,0.31c-0.21,0.2-0.41,0.41-0.61,0.62c-0.41,0.41-0.82,0.84-1.22,1.26c-1.7,1.8-3.33,3.66-4.9,5.58
	c-2.45,3.01-4.71,6.15-6.75,9.45c-1.77,2.9-3.38,5.88-4.75,8.87c-1.14,2.57-2.14,5.19-2.97,7.87c-0.67,2.24-1.23,4.51-1.64,6.78
	c0,0.02-0.01,0.04-0.01,0.06l-0.01,0.05c-0.35,2.09-0.59,4.18-0.7,6.3c-0.07,1.84-0.05,3.68,0.09,5.48v0.02
	c0,0.04,0.01,0.08,0.01,0.12v0.03c0.05,0.58,0.11,1.16,0.2,1.74c0.1,0.84,0.23,1.67,0.39,2.5v0c0,0,0,0,0.01,0
	c0.01,0.06,0.02,0.12,0.04,0.19s0.02,0.12,0.04,0.18c0.13,0.62,0.27,1.24,0.43,1.85c0.01,0.03,0.02,0.06,0.02,0.09
	c0.05,0.18,0.09,0.36,0.13,0.5c0,0.02,0.01,0.05,0.02,0.07c0,0.02,0.01,0.03,0.01,0.04c-0.1-0.02-0.2-0.04-0.3-0.05v0
	c-0.3-0.05-0.61-0.11-0.91-0.16c-0.13-0.02-0.27-0.05-0.4-0.07c-0.09-0.02-0.2-0.05-0.3-0.02c-0.11-0.04-0.21-0.09-0.32-0.13
	c-0.04-0.01-0.07-0.03-0.11-0.04c-0.14-0.6-0.27-1.2-0.39-1.8c-0.32-1.58-0.53-3.19-0.65-4.73c-0.43-5.47,0.15-10.94,1.41-16.27
	c1.33-5.62,3.56-10.98,6.22-16.1c2.68-5.14,6-9.95,9.64-14.45c0.21-0.25,0.42-0.51,0.53-0.64c3.14-3.86,6.66-7.42,10.31-10.76
	c2.12-1.96,4.36-3.79,6.64-5.56c2.36-1.82,4.79-3.55,7.28-5.19c4.66-3.07,9.56-5.74,14.48-8.04c5.36-2.52,10.96-4.54,16.67-6.11
	c5.69-1.56,11.53-2.58,17.41-2.98c5.83-0.39,11.68-0.1,17.43,0.96c0.57,0.11,1.14,0.22,1.7,0.34c0,0,0,0,0.01,0
	C1830.66,670.79,1833.71,671.73,1836.62,672.97z"/>
<path d="M2039.74,684.45C2039.74,684.45,2039.73,684.45,2039.74,684.45C2039.73,684.45,2039.74,684.45,2039.74,684.45z"/>
<path d="M1838.15,673.06C1838.15,673.06,1838.15,673.06,1838.15,673.06C1838.15,673.06,1838.15,673.06,1838.15,673.06
	L1838.15,673.06z"/>
<path d="M2042.55,685.67c0-0.21-0.03-0.41-0.11-0.61c-0.34-0.76-1-1.13-1.82-1.09c-0.45,0.02-0.91,0.13-1.34,0.24
	c-0.42,0.11-0.83,0.22-1.25,0.34c-0.39,0.12-0.78,0.23-1.16,0.36c-0.66,0.09-1.33,0.19-1.99,0.32c-1.49-0.09-2.98-0.18-4.48-0.27
	c-8.85-0.55-17.7-1.09-26.55-1.63c-9.7-0.6-19.39-1.2-29.09-1.79c-9.8-0.59-19.6-1.19-29.4-1.79c-9.67-0.59-19.34-1.2-29.01-1.79
	c-9.78-0.59-19.55-1.18-29.33-1.77c-9.39-0.57-18.78-1.15-28.17-1.72c-6.73-0.41-13.45-0.82-20.17-1.23
	c-0.05-0.15-0.21-0.25-0.37-0.23c-0.05,0.01-0.1,0.02-0.15,0.03v0c0,0,0,0-0.01,0h0c-0.01,0-0.01,0-0.02,0c0,0,0,0-0.01,0h0
	c0,0-0.01,0-0.02,0c-0.04,0.01-0.09,0.01-0.13,0.02c0.02,0,0.03,0,0.05,0c-0.05,0-0.11,0-0.17,0c0.02,0,0.03,0,0.05,0
	c-0.05,0-0.11-0.01-0.16-0.02c-0.06-0.01-0.12-0.01-0.19-0.01c-0.13-0.13-0.34-0.12-0.51-0.11c-0.17,0.02-0.34,0.04-0.51,0.04
	c-0.11,0-0.21,0.01-0.32,0.02c-0.02,0-0.05,0-0.07,0c-0.17,0-0.34,0-0.52,0c-0.32,0-0.65,0-0.98,0c-1.54-0.09-3.09-0.19-4.64-0.28
	c-0.51-0.03-1.02-0.06-1.53-0.09c-0.08-0.01-0.16-0.02-0.25-0.02c-0.11-0.01-0.21-0.02-0.32-0.01c-0.09-0.01-0.17-0.01-0.26-0.02
	c0,0,0.01,0,0.02,0c-0.29-0.02-0.57-0.07-0.86-0.09c-0.07,0-0.14,0-0.2,0.02c-0.24-0.01-0.48-0.03-0.73-0.04
	c-0.08-0.01-0.17-0.02-0.25-0.03c-0.31-0.04-0.63-0.08-0.95-0.11c-0.32-0.03-0.65-0.05-0.98-0.07c-0.23-0.02-0.47-0.02-0.71-0.02
	c0.02,0,0.03,0,0.04,0c-0.48-0.01-0.96-0.07-1.44-0.09c-0.2-0.01-0.41-0.02-0.61-0.02c-0.29,0-0.58,0-0.86-0.03
	c0.02,0,0.03,0,0.04,0.01c-0.14-0.02-0.28-0.05-0.42-0.08c-0.14-0.02-0.27-0.04-0.41-0.06c0.02,0,0.03,0,0.04,0.01
	c-0.27-0.04-0.54-0.05-0.81-0.07c-0.22-0.02-0.44-0.05-0.66-0.07c0.02,0,0.03,0,0.04,0c-0.12-0.02-0.25-0.04-0.38-0.05
	c-0.14-0.01-0.28-0.02-0.43-0.03c-0.29-0.01-0.58-0.01-0.87-0.04c-0.36-0.04-0.72-0.09-1.09-0.13c-0.31-0.04-0.62-0.05-0.94-0.08
	c-0.08-0.01-0.16-0.02-0.24-0.03c0,0,0,0,0,0c0,0,0,0,0,0c0,0,0,0,0,0c0,0,0,0-0.01,0h0c-0.01,0-0.02,0-0.03,0c0.01,0,0.02,0,0.03,0
	c-0.01,0-0.02,0-0.04,0c0,0,0.01,0,0.01,0c-0.22-0.05-0.45-0.09-0.68-0.11c-0.2-0.02-0.39-0.02-0.59-0.02c-0.28,0-0.55,0-0.83,0.01
	c-0.1-0.03-0.2-0.05-0.3-0.07c-0.16-0.03-0.32-0.05-0.48-0.07c-0.43-0.04-0.87-0.04-1.3-0.03c-0.12,0-0.24,0.01-0.37,0.01
	c-0.24-0.24-0.37-0.58-0.37-0.94c0-0.57,0.41-1.29,1.07-1.25c0.02,0,0.05,0,0.07,0c0.01,0,0.02,0,0.03,0
	c8.28,0.5,16.56,1.03,24.85,1.54c9.56,0.58,19.12,1.17,28.68,1.75c9.44,0.57,18.88,1.14,28.31,1.73c9.81,0.61,19.62,1.22,29.43,1.81
	c9.63,0.58,19.26,1.15,28.89,1.75c9.86,0.61,19.71,1.21,29.57,1.81c9.59,0.58,19.17,1.16,28.75,1.74
	c8.79,0.53,17.57,1.05,26.35,1.59c2.64,0.16,5.28,0.32,7.91,0.48c0.82,0.05,1.64,0.1,2.45,0.15c0.82,0.05,1.65,0.13,2.48,0.15
	c0.02,0,0.03,0,0.05,0c0.03,0,0.06,0,0.09,0c0.21,0,0.39,0.07,0.55,0.18c-0.04,0.02-0.08,0.03-0.12,0.05
	c-0.53,0.1-1.06,0.21-1.59,0.32c-1.13,0.23-2.28,0.43-3.38,0.77c-0.39,0.12-0.71,0.44-0.9,0.81
	C2042.59,685.67,2042.57,685.67,2042.55,685.67z"/>
<path d="M1945.54,763.7C1945.54,763.7,1945.54,763.71,1945.54,763.7C1945.54,763.71,1945.54,763.7,1945.54,763.7z"/>
<path d="M2006.71,684.32c0.19,0.49,0.1,1.23-0.35,1.56l0,0c-0.01,0.01-0.03,0.02-0.04,0.03c-0.04,0.03-0.08,0.05-0.12,0.07
	c-1.1,0.56-2.2,1.11-3.28,1.72c-1.29,0.73-2.55,1.5-3.67,2.21l-0.09,0.06c0,0,0,0,0,0c-0.12,0.07-0.24,0.16-0.37,0.23
	c-0.02,0.01-0.04,0.02-0.05,0.04c-1.1,0.72-2.18,1.47-3.25,2.24c-2.05,1.48-4.05,3.05-5.99,4.67c-0.83,0.7-1.66,1.41-2.36,2.02l0,0
	c-0.11,0.1-0.21,0.19-0.31,0.27c-1.17,1.04-2.32,2.11-3.45,3.18c-0.12,0.11-0.23,0.23-0.35,0.34l0,0c-0.25,0.24-0.5,0.48-0.75,0.72
	c0,0,0,0-0.01,0c-0.25,0.25-0.49,0.49-0.74,0.73h0h0c-0.25,0.25-0.49,0.49-0.74,0.73c-0.25,0.25-0.49,0.5-0.74,0.75
	c0,0-0.01,0.01-0.01,0.01c-0.14,0.09-0.28,0.18-0.42,0.28c-0.1,0.07-0.15,0.18-0.14,0.3c-0.46,0.47-0.92,0.95-1.38,1.43
	c-0.75,0.79-1.49,1.59-2.22,2.39c-1.01,1.11-2,2.24-2.94,3.34c-0.03,0.03-0.06,0.07-0.06,0.07c-0.02,0.02-0.04,0.04-0.05,0.06
	c-0.01,0.01-0.02,0.03-0.03,0.04l-0.12,0.14c-0.77,0.91-1.53,1.83-2.28,2.76h0c-0.47,0.58-0.94,1.16-1.4,1.75
	c-1.99,2.52-3.91,5.08-5.75,7.71c-1.05,1.5-2.07,3.03-3.07,4.56c-0.04,0.05-0.07,0.11-0.1,0.16c-0.02,0.03-0.04,0.05-0.05,0.07
	c-0.02,0.03-0.04,0.05-0.04,0.05c-1.05,1.64-2.06,3.3-3.05,4.98c-0.04,0.06-0.07,0.12-0.11,0.19v0c-0.22,0.37-0.43,0.75-0.64,1.12
	c0,0,0,0,0,0c-0.39,0.68-0.78,1.37-1.16,2.06c-0.94,1.7-1.84,3.43-2.7,5.18c-0.15,0.3-0.3,0.61-0.44,0.91
	c-0.02,0.03-0.03,0.06-0.05,0.09c0,0.01,0,0.02-0.01,0.02c0,0.01,0,0.01,0,0.01c-0.03,0.07-0.06,0.13-0.09,0.18
	c-1.65,3.5-3.11,7.09-4.27,10.61l0,0l-0.05,0.17c-0.74,2.3-1.37,4.64-1.84,7.02c0,0.03-0.01,0.05-0.02,0.08c0,0,0,0,0,0.01
	c0,0.01,0,0.02-0.01,0.04c-0.07,0.39-0.14,0.78-0.2,1.17c-0.1,0.59-0.18,1.18-0.25,1.78c-0.04,0.29-0.07,0.58-0.09,0.87
	c-0.04,0.34-0.07,0.68-0.09,1.02c-0.01,0.11-0.01,0.21-0.01,0.32c-0.02,0.23-0.03,0.45-0.03,0.68c0,0,0,0,0,0
	c-0.01,0.33-0.02,0.66-0.02,1c0,0.52,0.02,1.04,0.04,1.55v0c0.01,0.14,0.02,0.27,0.03,0.41c0,0.02,0.01,0.04,0.01,0.07v0
	c0,0.04,0.01,0.09,0.01,0.13c0,0.04,0.01,0.06,0.01,0.1v0h0c0,0,0,0,0,0.01c0.07,0.56-0.18,1.2-0.75,1.4
	c-0.11,0.04-0.21,0.05-0.3,0.05c-0.55,0-0.99-0.52-1.05-1.07c-0.02-0.15-0.04-0.31-0.04-0.46c0-0.03,0-0.06,0-0.09
	c0-0.05-0.01-0.11-0.01-0.16c-0.01-0.19-0.02-0.38-0.03-0.57c-0.01-0.19-0.02-0.38-0.02-0.57c-0.01-0.38-0.02-0.76-0.02-1.14
	c0-0.29,0-0.59,0.02-0.88s0.02-0.59,0.05-0.88c0.13-1.82,0.38-3.63,0.69-5.25c0.12-0.64,0.25-1.27,0.39-1.9
	c0.07-0.32,0.15-0.65,0.23-0.97c0.07-0.3,0.15-0.61,0.23-0.91c0.16-0.62,0.34-1.24,0.52-1.86c0.01-0.04,0.02-0.07,0.03-0.11
	c0.08-0.27,0.16-0.54,0.25-0.81c0.09-0.31,0.19-0.61,0.29-0.92c0.01-0.03,0.02-0.05,0.02-0.07c0,0,0-0.01,0-0.01
	c0.01-0.02,0.01-0.04,0.02-0.06c1.19-3.66,2.64-7.24,4.27-10.66l0.04-0.08c0.62-1.31,1.26-2.61,1.92-3.9
	c0.2-0.39,0.4-0.78,0.61-1.16c0.47-0.89,0.96-1.78,1.45-2.66c0.33-0.6,0.67-1.19,1.01-1.78c0.41-0.72,0.84-1.44,1.27-2.15
	c0.14-0.24,0.29-0.48,0.44-0.72c0.25-0.41,0.51-0.83,0.77-1.24c0.1-0.16,0.21-0.32,0.31-0.49c0.31-0.49,0.61-0.97,0.91-1.43
	c0.78-1.21,1.58-2.41,2.4-3.6c0.23-0.34,0.46-0.68,0.71-1.02c0.1-0.16,0.21-0.31,0.32-0.46c0.21-0.31,0.43-0.61,0.65-0.92
	c0.21-0.3,0.43-0.6,0.64-0.9c0.29-0.41,0.59-0.8,0.88-1.21c0.7-0.95,1.41-1.89,2.13-2.83c0.03-0.04,0.06-0.08,0.09-0.12
	c0.41-0.53,0.82-1.05,1.23-1.58c0.05-0.06,0.09-0.11,0.14-0.17c0.19-0.23,0.38-0.47,0.56-0.7c0.19-0.24,0.38-0.48,0.57-0.71
	c0.71-0.87,1.41-1.71,2.08-2.5c0.42-0.49,0.84-0.98,1.26-1.46c0.39-0.45,0.79-0.9,1.18-1.35c0.04-0.05,0.09-0.1,0.13-0.15
	c0.39-0.44,0.79-0.88,1.19-1.32c0.32-0.35,0.64-0.7,0.96-1.05c0.27-0.29,0.53-0.57,0.8-0.86c0.12-0.14,0.26-0.28,0.39-0.41
	c0.25-0.27,0.5-0.54,0.76-0.8c0.33-0.34,0.66-0.68,0.99-1.02c0.56-0.58,1.14-1.15,1.71-1.72c0.38-0.38,0.75-0.75,1.14-1.11
	c0.46-0.44,0.92-0.88,1.38-1.32c0.36-0.34,0.72-0.68,1.09-1.01c0.21-0.19,0.42-0.39,0.63-0.57c0.21-0.19,0.41-0.38,0.62-0.56
	c0.23-0.21,0.46-0.41,0.7-0.62c0.42-0.37,0.84-0.73,1.26-1.1c0.46-0.39,0.92-0.78,1.38-1.17c0.06-0.05,0.12-0.11,0.19-0.16
	c0.33-0.27,0.66-0.54,0.99-0.81c0.32-0.26,0.64-0.52,0.96-0.77c0.01-0.01,0.02-0.02,0.04-0.03c0.72-0.57,1.44-1.14,2.18-1.68
	c0.06-0.05,0.12-0.09,0.18-0.14c2.03-1.52,4.12-2.97,6.28-4.32c1.08-0.68,2.18-1.33,3.3-1.95c0.77-0.43,1.56-0.87,2.36-1.25
	c0.12-0.06,0.25-0.12,0.37-0.18C2005.88,683.44,2006.48,683.73,2006.71,684.32z"/>
<path d="M1945.28,775.22c0,0.04,0.02,0.09,0.04,0.12c-0.06,0.01-0.12,0.02-0.18,0.02c-0.26,0-0.54-0.07-0.79-0.11
	c-0.36-0.05-0.71-0.1-1.06-0.15c-0.77-0.11-1.53-0.22-2.3-0.33c-1.05-0.15-2.1-0.3-3.15-0.45c0,0-0.01,0-0.01,0
	c-0.4-0.06-0.8-0.12-1.2-0.18c-0.12-0.02-0.25-0.04-0.37-0.05c-0.52-0.08-1.05-0.16-1.57-0.23c-6.33-0.91-12.67-1.8-19-2.75
	c-3.76-0.56-7.53-1.07-11.29-1.62c-3.84-0.56-7.69-1.11-11.53-1.67c-7.88-1.14-15.76-2.27-23.64-3.4
	c-7.75-1.12-15.5-2.22-23.25-3.34c-7.7-1.11-15.4-2.23-23.11-3.33c-7.84-1.12-15.68-2.24-23.53-3.38c-7.64-1.11-15.29-2.2-22.93-3.3
	c-3.76-0.54-7.52-1.07-11.28-1.61c-1.8-0.26-3.6-0.52-5.4-0.77c-0.83-0.12-1.66-0.23-2.5-0.35c-0.05-0.01-0.11-0.02-0.17-0.02
	c-0.22-0.03-0.43-0.05-0.64-0.13c-0.23-0.08-0.44-0.24-0.62-0.41c-0.25-0.24-0.5-0.7-0.39-1.06c0.11-0.34,0.35-0.59,0.66-0.76
	c0.08-0.04,0.16-0.08,0.24-0.1c0.04-0.02,0.08-0.02,0.12-0.03c0.04-0.01,0.08-0.02,0.12-0.02c0.08-0.01,0.16-0.02,0.24-0.02
	c0.06,0,0.11,0,0.17,0.01c0.04,0,0.09,0.01,0.13,0.01h0c0.18,0.02,0.36,0.05,0.54,0.08c0.24,0.04,0.48,0.07,0.72,0.11
	c0.66,0.09,1.32,0.19,1.99,0.29c1.86,0.27,3.71,0.54,5.57,0.8c3.76,0.54,7.52,1.09,11.28,1.63c7.66,1.11,15.32,2.21,22.98,3.3
	c7.85,1.12,15.69,2.28,23.53,3.39c7.7,1.1,15.39,2.21,23.09,3.31c7.73,1.11,15.46,2.23,23.2,3.34c7.94,1.14,15.88,2.29,23.82,3.43
	c3.82,0.55,7.64,1.09,11.46,1.63c3.75,0.54,7.49,1.1,11.23,1.62c6.33,0.88,12.65,1.81,18.97,2.72c2.45,0.35,4.89,0.7,7.34,1.05
	c0.71,0.1,1.43,0.2,2.14,0.31v0h0c0.09,0.01,0.17,0.02,0.25,0.04c0,0.04,0,0.09,0.01,0.13c0.03,0.34,0.04,0.69,0.05,1.04
	c0.01,0.21,0.01,0.43,0.02,0.64c0,0.13,0,0.26,0.01,0.39C1945.28,775.11,1945.28,775.17,1945.28,775.22z"/>
<path d="M1757.59,745.67c1.42,0,1.41,2.53,0,2.53C1756.18,748.2,1756.18,745.67,1757.59,745.67z"/>
<path d="M1847.07,672.44c0.26,0.36,0.32,0.89,0.18,1.33c-0.07,0.22-0.18,0.41-0.35,0.55c-0.02,0.02-0.05,0.04-0.08,0.06
	c-0.03,0.02-0.06,0.04-0.09,0.05c-0.03,0.02-0.07,0.04-0.11,0.05c-0.02,0.01-0.05,0.02-0.08,0.02c-0.02,0.01-0.04,0.01-0.07,0.02
	c-0.03,0.01-0.05,0.01-0.09,0.02c-0.62,0.09-1.25,0.18-1.88,0.28s-1.25,0.2-1.87,0.3c-0.36,0.06-0.71,0.12-1.06,0.19
	c-0.06,0.01-0.12,0.02-0.18,0.03c-0.1,0.02-0.19,0.04-0.29,0.05c-0.88,0.16-1.75,0.32-2.62,0.5c-0.29,0.06-0.59,0.12-0.88,0.18h0
	c-0.04,0.01-0.09,0.02-0.12,0.03c-0.52,0.11-1.04,0.22-1.56,0.34c-0.07,0.02-0.14,0.03-0.21,0.05c-0.41,0.09-0.82,0.18-1.23,0.28
	c-0.04,0.01-0.08,0.02-0.12,0.03c-0.39,0.09-0.78,0.18-1.16,0.28c-0.02,0.01-0.04,0.01-0.06,0.02c-0.3,0.07-0.61,0.14-0.91,0.22
	c-0.52,0.13-1.05,0.26-1.57,0.4c-0.03,0.01-0.06,0.02-0.09,0.02c-0.02,0-0.04,0.01-0.04,0.01c-0.59,0.16-1.18,0.32-1.77,0.48
	c-0.5,0.14-0.99,0.28-1.49,0.42c-0.36,0.1-0.72,0.21-1.08,0.32h0c-0.09,0.03-0.19,0.06-0.29,0.09c-0.35,0.11-0.71,0.21-1.06,0.32
	c-0.27,0.08-0.55,0.17-0.82,0.25c-0.46,0.14-0.91,0.29-1.37,0.44c-0.46,0.15-0.92,0.3-1.38,0.45c-0.16,0.05-0.31,0.1-0.46,0.16
	c-0.39,0.13-0.77,0.26-1.16,0.39c-1.04,0.36-2.07,0.73-3.1,1.11c-3.39,1.25-6.72,2.61-10.02,4.08c-0.25,0.11-0.51,0.23-0.76,0.35h0
	c-0.05,0.02-0.09,0.04-0.14,0.07c-0.39,0.18-0.79,0.36-1.19,0.55c-0.25,0.12-0.51,0.23-0.76,0.36c-0.42,0.2-0.84,0.39-1.25,0.6h0
	c-0.8,0.39-1.6,0.78-2.4,1.19c-0.32,0.16-0.64,0.32-0.96,0.49c-0.16,0.08-0.32,0.16-0.48,0.25c-0.31,0.16-0.62,0.32-0.93,0.49
	c-0.52,0.27-1.04,0.55-1.55,0.83c-0.48,0.26-0.96,0.53-1.44,0.8c-0.02,0.01-0.05,0.02-0.07,0.04c-0.54,0.3-1.09,0.61-1.63,0.93
	c-2.19,1.27-4.34,2.59-6.38,3.91c-1.01,0.66-2.01,1.34-3,2.03c-0.42,0.29-0.83,0.58-1.24,0.88c-0.57,0.41-1.14,0.82-1.7,1.24
	c-0.16,0.11-0.32,0.23-0.49,0.36c-0.43,0.32-0.85,0.64-1.28,0.96c-0.02,0.01-0.03,0.02-0.05,0.04c-0.41,0.32-0.83,0.64-1.24,0.97
	c-0.18,0.14-0.37,0.29-0.55,0.44c-0.38,0.3-0.75,0.6-1.12,0.91c-0.49,0.4-0.97,0.81-1.45,1.22c-0.45,0.39-0.89,0.78-1.21,1.06
	c-2.86,2.55-5.58,5.27-8.03,8.14c-0.08,0.09-0.16,0.18-0.23,0.28c-0.33,0.39-0.66,0.79-0.98,1.2c-0.19,0.23-0.38,0.47-0.56,0.71
	c-0.17,0.21-0.34,0.43-0.5,0.65c-0.1,0.13-0.2,0.25-0.29,0.38c-0.17,0.23-0.34,0.46-0.51,0.7c-0.08,0.11-0.16,0.23-0.24,0.34
	c-0.14,0.19-0.28,0.38-0.41,0.58c-0.4,0.57-0.79,1.15-1.17,1.74c-0.99,1.57-1.9,3.18-2.66,4.76c-0.05,0.11-0.11,0.23-0.14,0.29
	c-0.56,1.23-1.06,2.47-1.5,3.75c-0.04,0.12-0.08,0.23-0.09,0.27c-0.07,0.22-0.14,0.45-0.2,0.67s-0.13,0.45-0.19,0.66
	c-0.03,0.12-0.06,0.23-0.09,0.35c-0.03,0.12-0.06,0.24-0.09,0.36c-0.09,0.39-0.18,0.77-0.25,1.13c0,0.03-0.01,0.06-0.02,0.09
	c-0.18,0.98-0.31,1.97-0.38,2.97c-0.04,0.82-0.04,1.65,0,2.47c0.06,0.8,0.17,1.61,0.31,2.4c0.15,0.69,0.32,1.38,0.54,2.05
	c0.05,0.16,0.11,0.32,0.17,0.48c0.1,0.28,0.21,0.56,0.32,0.83c0.05,0.14,0.11,0.27,0.18,0.41c0.02,0.07,0.05,0.13,0.08,0.19
	c0.07,0.14,0.14,0.29,0.21,0.43c0.16,0.3,0.32,0.6,0.48,0.91c0.13,0.22,0.18,0.49,0.17,0.75c0,0.07-0.01,0.14-0.02,0.2c0,0,0,0,0,0
	h0c-0.02,0.07-0.04,0.15-0.06,0.22c-0.13-0.02-0.26-0.04-0.39-0.06c-0.28-0.04-0.56-0.07-0.84-0.11c-0.3-0.04-0.61-0.07-0.91-0.11
	c-0.21-0.39-0.4-0.8-0.58-1.2c-0.51-1.11-0.91-2.29-1.2-3.48c-0.36-1.5-0.56-3.03-0.61-4.56c-0.01-0.39-0.01-0.79,0-1.18
	c0-0.01,0-0.02,0-0.02c0.01-0.33,0.02-0.66,0.05-1c0-0.02,0-0.05,0-0.07c0.01-0.16,0.02-0.32,0.04-0.48
	c0.05-0.58,0.12-1.16,0.21-1.74c0.18-1.16,0.44-2.31,0.76-3.45c0.08-0.28,0.16-0.57,0.25-0.84c0.09-0.28,0.18-0.56,0.28-0.84
	c0.87-2.52,2.04-4.95,3.37-7.23c0.64-1.1,1.32-2.18,2.04-3.23c0.48-0.7,0.97-1.39,1.48-2.06c0.77-1.02,1.56-2.01,2.38-2.97
	c2.49-2.94,5.18-5.72,7.96-8.17c1.45-1.3,2.93-2.55,4.44-3.77c1.01-0.81,2.03-1.6,3.06-2.38c1.55-1.17,3.13-2.3,4.74-3.39
	c4.26-2.9,8.71-5.54,13.27-7.95c1.68-0.88,3.38-1.74,5.09-2.57c1.14-0.55,2.29-1.08,3.44-1.61c1.73-0.79,3.48-1.54,5.24-2.26
	c1.69-0.69,3.39-1.36,5.11-2c1.14-0.42,2.29-0.83,3.44-1.23c0.58-0.2,1.16-0.39,1.73-0.59c1.16-0.38,2.32-0.75,3.49-1.11
	c2.15-0.66,4.32-1.26,6.5-1.83c0.01,0,0.02-0.01,0.04-0.01c0.01,0,0.02,0,0.03,0c0.17-0.04,0.34-0.09,0.5-0.13
	c0.06,0.04,0.13,0.07,0.21,0.07c0.05,0,0.1-0.01,0.14-0.03l0,0c0.01,0,0.02-0.01,0.02-0.01c0.13-0.05,0.27-0.1,0.4-0.14
	c0.41-0.14,0.82-0.26,1.24-0.34c0.05-0.01,0.1-0.02,0.15-0.03h0c0,0,0,0,0.01,0c0.23-0.05,0.47-0.09,0.7-0.14c0,0,0.01,0,0.01,0
	c0.04-0.01,0.08-0.02,0.12-0.03c0,0,0.01,0,0.01,0c0.04-0.01,0.09-0.02,0.12-0.03c0,0,0.01,0,0.01,0c0.04-0.01,0.09-0.02,0.12-0.03
	c0,0,0.01,0,0.01,0c0.04-0.01,0.09-0.03,0.13-0.04c0,0,0,0,0.01,0c0.01,0,0.01,0,0.02-0.01c0.06-0.02,0.12-0.04,0.18-0.06
	c0.02,0,0.03-0.01,0.05-0.02c0.05-0.02,0.1-0.04,0.15-0.05c0.04-0.01,0.09-0.02,0.14-0.03c0.05-0.01,0.11-0.02,0.16-0.02
	c0.01,0,0.03,0,0.04,0c0,0,0,0,0.01,0c0.12,0,0.23,0,0.35-0.01c0.06,0,0.12-0.01,0.19-0.02c0.01,0,0.01,0,0.02,0
	c0.06-0.01,0.12-0.02,0.18-0.03c0,0,0.01,0,0.01,0c0.06-0.01,0.13-0.02,0.19-0.03c0,0,0.01,0,0.01,0c0.07-0.01,0.13-0.03,0.19-0.04
	c0,0,0.01,0,0.01,0c0.06-0.02,0.12-0.04,0.19-0.06c0.04-0.01,0.07-0.02,0.11-0.03l0,0c0.02,0.01,0.05,0.02,0.08,0.03l0,0
	c0,0,0.01,0,0.02,0c0.02,0,0.04,0,0.07,0h0c0.01,0,0.01,0,0.02,0c0,0,0,0,0.01,0c0.02,0,0.03,0,0.04,0c0.01,0,0.01,0,0.02,0
	c0,0,0,0,0,0l0,0c0.02,0,0.03-0.01,0.04-0.02c0.02,0,0.02-0.01,0.04-0.02c0,0,0,0,0,0c0,0,0,0,0,0h0c0.02,0,0.04,0,0.06,0
	c0,0,0.01,0,0.01,0c0.04,0,0.09,0.01,0.13,0.02h0c0.05,0,0.09,0.01,0.14,0.01c0.02,0,0.03,0,0.04,0c0.04,0,0.09,0,0.13,0
	c0.01,0,0.02,0,0.03,0c0.01,0,0.02,0,0.02,0c0.02,0,0.05-0.01,0.07-0.01c0.02,0,0.05,0,0.08-0.01c0.01,0,0.02,0,0.02,0
	c0.02,0,0.04-0.01,0.05-0.01c0,0,0.01,0,0.02,0c0.01,0,0.03,0,0.04-0.01c0.02,0,0.04-0.01,0.06-0.02c0.08-0.03,0.14-0.08,0.18-0.15
	c0.01-0.02,0.02-0.04,0.03-0.07c0,0,0-0.01,0-0.02c0.02-0.04,0.02-0.08,0.02-0.12c0.08-0.02,0.16-0.04,0.25-0.05c0,0,0,0,0.01,0h0
	c0.52-0.1,1.05-0.2,1.57-0.3c1.04-0.19,2.07-0.37,3.11-0.54c0.58-0.09,1.16-0.18,1.75-0.27c0.29-0.04,0.6-0.12,0.89-0.12
	c0.32,0,0.57,0.13,0.75,0.34C1847.04,672.4,1847.05,672.42,1847.07,672.44z"/>
<path d="M2088.05,738.36c0.04,0.16,0.06,0.32,0.05,0.47c-0.02,0.49-0.25,1.02-0.75,1.2c-0.46,0.17-0.97-0.08-1.2-0.51
	c-0.04-0.08-0.07-0.16-0.1-0.24c-0.02-0.05-0.04-0.11-0.05-0.16c-0.02-0.09-0.04-0.17-0.06-0.26c0-0.02-0.01-0.05-0.02-0.07
	c-0.01-0.05-0.02-0.11-0.04-0.16c-0.11-0.48-0.23-0.96-0.36-1.44c-0.27-1.07-0.59-2.13-0.89-3.1c-0.05-0.15-0.1-0.3-0.13-0.4
	c-0.72-2.16-1.57-4.27-2.52-6.25c-0.67-1.36-1.38-2.7-2.16-3.99c-0.11-0.19-0.23-0.37-0.34-0.55c-0.17-0.28-0.35-0.56-0.53-0.84
	c-0.15-0.23-0.3-0.46-0.46-0.69c-0.41-0.61-0.84-1.21-1.28-1.79c-0.14-0.18-0.28-0.37-0.42-0.55c-0.15-0.2-0.3-0.39-0.46-0.58
	c-0.12-0.16-0.25-0.32-0.38-0.47c-0.18-0.22-0.37-0.44-0.55-0.66c-0.02-0.03-0.05-0.06-0.08-0.09l-0.01-0.01
	c-1.22-1.39-2.54-2.71-3.81-3.84c-0.23-0.2-0.47-0.4-0.71-0.6c-0.04-0.03-0.07-0.06-0.11-0.09c-0.24-0.2-0.48-0.39-0.72-0.58
	c-0.21-0.16-0.42-0.33-0.63-0.49c-0.12-0.09-0.24-0.18-0.36-0.27c-0.18-0.14-0.37-0.27-0.55-0.4c-0.02-0.01-0.03-0.02-0.04-0.03
	c-0.12-0.09-0.25-0.18-0.38-0.26c-0.12-0.09-0.24-0.17-0.37-0.25c-0.19-0.13-0.39-0.26-0.58-0.39c-0.08-0.05-0.17-0.11-0.17-0.11
	c-0.09-0.06-0.19-0.12-0.29-0.18c-0.3-0.19-0.61-0.37-0.91-0.55c-0.18-0.11-0.37-0.21-0.55-0.31c-0.98-0.55-1.98-1.05-2.99-1.5
	c-1.73-0.75-3.52-1.36-5.32-1.84c-0.01,0-0.02-0.01-0.03-0.01l-0.02-0.01c-1.87-0.45-3.75-0.76-5.66-0.93
	c-2.03-0.14-4.04-0.12-6.06,0.07c-1.95,0.2-3.87,0.56-5.74,1.04c-0.02,0-0.04,0.01-0.06,0.02l-0.04,0.01
	c-2.2,0.61-4.34,1.4-6.42,2.34c-1.9,0.91-3.75,1.91-5.38,2.99c-0.2,0.13-0.4,0.27-0.6,0.4c-1.85,1.27-3.6,2.65-5.25,4.11
	c-1.77,1.62-3.41,3.34-4.88,5.04c-0.88,1.06-1.75,2.13-2.55,3.26c-0.8,1.1-1.56,2.23-2.28,3.34c-0.01,0.02-0.02,0.04-0.04,0.06
	l-0.02,0.02c-1.32,2.14-2.5,4.34-3.56,6.57c-0.07,0.17-0.15,0.33-0.23,0.5c-0.32,0.7-0.62,1.4-0.91,2.11
	c-0.11,0.27-0.22,0.53-0.32,0.8c-0.13,0.32-0.25,0.65-0.38,0.98c-0.11,0.28-0.21,0.56-0.31,0.84c-0.08,0.21-0.16,0.43-0.23,0.64
	c-0.11,0.29-0.2,0.58-0.3,0.88c-0.13,0.38-0.25,0.75-0.38,1.12c-0.79,2.55-1.45,5.15-1.94,7.75c0,0.03-0.01,0.05-0.01,0.07
	l-0.01,0.05c-0.02,0.07-0.03,0.15-0.04,0.18c-0.48,2.73-0.8,5.48-0.96,8.21c-0.03,0.58-0.05,1.15-0.07,1.73v0
	c-0.01,0.32-0.02,0.65-0.02,0.98c-0.01,0.33-0.01,0.65-0.01,0.98c0,1.4,0.05,2.77,0.14,4.09c0.01,0.11,0.02,0.23,0.02,0.3
	c0.19,2.5,0.52,4.97,0.96,7.25c0.16,0.8,0.33,1.59,0.52,2.38c0.12,0.46,0.21,0.93,0.35,1.38c0.01,0.02,0.02,0.05,0.02,0.08
	c0,0,0.01,0.01,0.01,0.02v0.01c0.04,0.12,0.05,0.25,0.05,0.38c0,0.59-0.4,1.25-1.05,1.26h0c-0.47,0-0.82-0.34-0.97-0.75
	c0,0,0,0,0-0.01c-0.01-0.02-0.02-0.04-0.02-0.06c-0.01-0.02-0.02-0.05-0.02-0.07c0-0.02-0.01-0.04-0.01-0.05
	c-0.11-0.47-0.25-0.93-0.36-1.4c-0.16-0.67-0.3-1.35-0.44-2.03c-0.47-2.3-0.82-4.62-1.03-6.96c-0.43-4.83-0.32-9.69,0.28-14.49
	c0.16-1.33,0.38-2.65,0.61-3.93c0.22-1.21,0.48-2.43,0.77-3.62c0,0,0,0,0-0.01c0.3-1.2,0.62-2.39,0.96-3.57
	c0.72-2.42,1.57-4.83,2.58-7.14c0.31-0.72,0.63-1.43,0.89-1.98c1.09-2.36,2.34-4.64,3.71-6.85c1.38-2.21,2.89-4.36,4.56-6.37
	c3.21-3.85,6.87-7.37,11.05-10.16c0.01,0,0.02-0.01,0.04-0.02c0.01-0.01,0.02-0.01,0.02-0.02c1.11-0.73,2.23-1.45,3.39-2.09
	c1.17-0.65,2.36-1.24,3.58-1.8c2.38-1.08,4.89-1.9,7.45-2.48c2.45-0.57,4.95-0.87,7.47-0.94c2.5-0.07,5.05,0.12,7.51,0.62
	c4.54,0.9,8.89,2.59,12.66,5.02c0.26,0.16,0.52,0.33,0.77,0.5c0.18,0.12,0.36,0.24,0.54,0.37h0c0.07,0.05,0.14,0.1,0.21,0.15
	c0.25,0.18,0.5,0.36,0.75,0.54c0.1,0.07,0.19,0.14,0.29,0.21v0c0.04,0.02,0.07,0.05,0.1,0.07c0.04,0.03,0.09,0.06,0.13,0.1
	c0.11,0.08,0.21,0.16,0.32,0.25c0.2,0.15,0.39,0.3,0.58,0.46c0.03,0.02,0.06,0.05,0.09,0.07c0.22,0.18,0.43,0.36,0.65,0.54
	c0.23,0.2,0.47,0.4,0.7,0.6c0.23,0.2,0.46,0.41,0.68,0.62c0.23,0.22,0.46,0.44,0.69,0.66c1.59,1.55,3.05,3.23,4.41,4.99
	c0.19,0.25,0.38,0.5,0.57,0.76c0.18,0.24,0.35,0.49,0.53,0.73c0.2,0.29,0.39,0.57,0.59,0.86c0.04,0.06,0.09,0.12,0.12,0.19h0
	c0.34,0.51,0.66,1.02,0.98,1.55c0.01,0.02,0.02,0.03,0.02,0.04c0.17,0.28,0.34,0.56,0.5,0.84c0.09,0.16,0.18,0.31,0.27,0.47
	c0.18,0.31,0.35,0.63,0.52,0.95c0.19,0.35,0.37,0.71,0.55,1.06c0.17,0.33,0.34,0.67,0.5,1.01c0.04,0.09,0.08,0.18,0.12,0.26
	c0.16,0.34,0.32,0.7,0.48,1.04c0,0.02,0.01,0.03,0.02,0.05c0.16,0.36,0.31,0.71,0.46,1.07c0.03,0.07,0.05,0.14,0.08,0.2
	c0.11,0.27,0.23,0.54,0.33,0.82c0.06,0.15,0.12,0.3,0.18,0.46c0.13,0.32,0.25,0.65,0.37,0.98c0.25,0.67,0.48,1.35,0.64,1.87
	c0.36,1.09,0.69,2.2,0.99,3.31c0.13,0.49,0.25,0.99,0.38,1.48c0.02,0.08,0.04,0.17,0.06,0.26c0.02,0.09,0.05,0.19,0.07,0.28h0
	C2088.05,738.36,2088.05,738.36,2088.05,738.36z"/>
<path d="M2088.65,740.7c0,0.02,0,0.04,0.01,0.06c-0.21,0.1-0.43,0.21-0.64,0.3c-0.04,0.02-0.07,0.03-0.11,0.05
	c-0.01,0-0.02,0.01-0.03,0.01c-1.52,0.68-3.04,1.4-4.55,2.11c-1.88,0.88-3.77,1.73-5.65,2.61c-4.54,2.1-9.08,4.19-13.61,6.29
	c-4.61,2.14-9.23,4.26-13.84,6.4c-4.62,2.14-9.25,4.28-13.88,6.42c-4.64,2.14-9.27,4.3-13.91,6.44c-4.55,2.11-9.11,4.21-13.66,6.32
	c-1.95,0.9-3.88,1.83-5.84,2.72c-0.1-0.37-0.27-0.72-0.43-1.07c0-0.01-0.01-0.03-0.02-0.04c-0.02-0.05-0.04-0.09-0.06-0.14
	c-0.15-0.33-0.32-0.66-0.49-0.98c0.07-0.04,0.14-0.07,0.21-0.1c0.66-0.31,1.31-0.61,1.97-0.91c1.19-0.54,2.38-1.09,3.57-1.63
	c2.3-1.06,4.59-2.12,6.88-3.18c4.53-2.1,9.07-4.2,13.61-6.3c1.16-0.54,2.32-1.07,3.48-1.61c1.16-0.54,2.32-1.07,3.48-1.61
	c2.32-1.07,4.64-2.15,6.97-3.22c4.7-2.16,9.37-4.35,14.05-6.51c2.27-1.04,4.53-2.09,6.79-3.14c2.26-1.05,4.52-2.1,6.79-3.15
	c2.09-0.97,4.17-1.93,6.26-2.9c2.09-0.96,4.17-1.93,6.26-2.9c1.24-0.57,2.48-1.14,3.72-1.72c0.02-0.01,0.04-0.02,0.06-0.03
	c0.36-0.16,0.72-0.32,1.07-0.5c0.3-0.15,0.61-0.29,0.92-0.43c0.02-0.01,0.04-0.02,0.06-0.03c0.02,0.05,0.03,0.09,0.05,0.14
	c0.09,0.29,0.16,0.58,0.25,0.86c0,0,0,0.01,0,0.01c0,0,0,0,0,0c0,0,0,0.01,0,0.01c0.02,0.07,0.04,0.14,0.05,0.21
	c0.02,0.18,0.03,0.35,0.05,0.53c0.01,0.13,0.02,0.26,0.05,0.38c0.01,0.05,0.02,0.11,0.04,0.15
	C2088.62,740.66,2088.63,740.68,2088.65,740.7z"/>
<path d="M2114.5,736.11c0.16,0.36,0.21,0.71,0.14,1.11c-0.11,0.55-0.74,1.07-1.3,0.82c-0.37-0.16-0.55-0.41-0.72-0.77
	c-0.04-0.07-0.07-0.14-0.1-0.21c-0.06-0.12-0.11-0.25-0.17-0.37c0,0,0,0,0-0.01c-0.03-0.07-0.07-0.14-0.1-0.21
	c-0.06-0.14-0.12-0.28-0.18-0.4c-0.03-0.07-0.06-0.13-0.09-0.19c-1.91-4.02-4.05-7.92-6.43-11.64c-2.26-3.53-4.73-6.92-7.43-10.12
	c-0.01-0.01-0.02-0.02-0.02-0.03c-0.03-0.03-0.05-0.06-0.06-0.07c-0.06-0.07-0.13-0.15-0.24-0.28c-1.67-1.96-3.42-3.84-5.24-5.64
	c-1.09-1.08-2.21-2.14-3.36-3.16c-2.96-2.61-6.09-5-9.26-7.07c-3.12-2.04-6.4-3.82-9.8-5.36c-3.23-1.44-6.57-2.62-9.98-3.53
	c-3.31-0.86-6.69-1.46-10.04-1.75c-3.32-0.28-6.65-0.28-9.85-0.01c-3.13,0.29-6.23,0.82-9.25,1.6c-0.03,0-0.05,0.01-0.08,0.02
	c-0.02,0.01-0.04,0.01-0.05,0.01c-2.98,0.8-5.89,1.83-8.72,3.09c-2.82,1.28-5.53,2.76-8.07,4.42c-2.62,1.73-5.11,3.65-7.47,5.73
	c-2.29,2.06-4.43,4.25-6.33,6.47c-0.09,0.1-0.18,0.21-0.27,0.31c-2.07,2.47-3.97,5.05-5.71,7.73c-0.05,0.08-0.11,0.17-0.16,0.25
	c-1.89,2.98-3.59,6.09-5.04,9.14c-1.54,3.29-2.88,6.68-3.96,9.97c-0.04,0.14-0.09,0.29-0.13,0.4c-1.25,3.87-2.25,7.81-2.98,11.63
	c-0.02,0.12-0.05,0.25-0.07,0.34c-0.76,4.13-1.29,8.29-1.57,12.48c0,0.11-0.01,0.21-0.02,0.31c0,0.06,0,0.11-0.01,0.17
	c-0.25,4.5-0.23,9,0.03,13.5c0.3,4.63,0.87,9.24,1.7,13.62l0.03,0.17c0.09,0.46,0.18,0.91,0.27,1.37c0.64,3.18,1.42,6.33,2.34,9.44
	c0.2,0.68,0.4,1.35,0.61,2c0.07,0.21,0.13,0.43,0.2,0.63c0,0,0,0,0,0.01c0.01,0.03,0.02,0.06,0.03,0.09
	c0.01,0.04,0.03,0.09,0.04,0.13l0,0.01c0.04,0.1,0.07,0.2,0.1,0.3c0.01,0.04,0.02,0.07,0.04,0.11c0.02,0.07,0.04,0.13,0.07,0.2
	c0.09,0.28,0.19,0.57,0.28,0.85c0.08,0.23,0.11,0.48,0.08,0.73c-0.04,0.37-0.22,0.71-0.55,0.91c-0.01,0.01-0.03,0.02-0.04,0.03
	c-0.14,0.07-0.29,0.11-0.43,0.11c-0.28,0-0.55-0.12-0.75-0.34c-0.11-0.11-0.18-0.24-0.23-0.38c-0.04-0.11-0.07-0.21-0.07-0.22
	c-0.01-0.04-0.02-0.07-0.04-0.11c-0.04-0.11-0.07-0.22-0.11-0.32c-0.06-0.19-0.14-0.39-0.2-0.58c-0.01-0.03-0.02-0.05-0.02-0.08
	c-0.03-0.08-0.05-0.16-0.11-0.36c-0.07-0.21-0.13-0.42-0.2-0.62c-0.42-1.3-0.8-2.61-1.17-3.93c-0.16-0.57-0.31-1.15-0.46-1.73
	c-0.15-0.57-0.3-1.15-0.44-1.73c-0.09-0.38-0.18-0.77-0.27-1.16c-0.38-1.62-0.71-3.25-1.01-4.84c-0.95-5.04-1.56-10.15-1.84-15.27
	c-0.23-4.23-0.21-8.47,0.06-12.69l0.02-0.27c0.28-4.45,0.83-8.89,1.64-13.1c0.81-4.28,1.9-8.49,3.2-12.46
	c0.11-0.32,0.21-0.65,0.32-0.98c1.64-4.87,3.71-9.6,6.17-14.12c0.89-1.65,1.86-3.26,2.84-4.8c2.89-4.52,6.22-8.74,10.01-12.54
	c0.64-0.64,1.3-1.27,1.95-1.88c0.26-0.24,0.52-0.48,0.77-0.71c0.13-0.12,0.26-0.23,0.39-0.35c3.8-3.38,8.01-6.33,12.52-8.68
	c1.74-0.91,3.53-1.73,5.34-2.47c0.52-0.21,1.04-0.41,1.57-0.61s1.05-0.38,1.58-0.56c0.27-0.09,0.53-0.18,0.8-0.27
	c1.07-0.35,2.14-0.66,3.23-0.95c0.36-0.09,0.71-0.18,1.06-0.27c0.26-0.06,0.52-0.12,0.78-0.18c0.46-0.11,0.93-0.21,1.39-0.3
	c0.34-0.07,0.69-0.13,1.04-0.19c0,0,0,0,0.01,0c0.86-0.15,1.72-0.29,2.59-0.4c0.88-0.12,1.77-0.21,2.65-0.29
	c0.67-0.06,1.34-0.11,2-0.14c0,0,0,0,0.01,0c0.86-0.05,1.73-0.07,2.59-0.08c0,0,0.01,0,0.01,0c0.21,0,0.42,0,0.63,0
	c0.54,0,1.07,0.01,1.6,0.03c2.04,0.06,4.06,0.23,6.08,0.5c0.27,0.04,0.54,0.07,0.81,0.12c0.59,0.09,1.18,0.18,1.77,0.29
	c5.02,0.89,9.9,2.41,14.57,4.45c4.83,2.11,9.43,4.75,13.7,7.83c4.22,3.05,8.14,6.5,11.75,10.26c1.33,1.39,2.61,2.82,3.79,4.21
	c3.12,3.66,5.89,7.58,8.46,11.64c2.24,3.54,4.23,7.27,5.95,10.95c0.07,0.16,0.15,0.31,0.15,0.32c0.09,0.19,0.18,0.38,0.27,0.57
	C2114.36,735.83,2114.43,735.97,2114.5,736.11z"/>
<path d="M1984.01,804.2c-0.23-0.57-0.05-1.36,0.52-1.66c0.98-0.52,1.98-1.01,2.96-1.52c1.16-0.6,2.33-1.2,3.49-1.79
	c2.13-1.1,4.26-2.21,6.39-3.3c4.38-2.24,8.76-4.5,13.13-6.76c4.44-2.29,8.88-4.57,13.32-6.86c4.48-2.31,8.96-4.62,13.45-6.93
	c2.43-1.25,4.87-2.5,7.3-3.76c2.29-1.18,4.56-2.37,6.85-3.54c4.46-2.27,8.89-4.58,13.34-6.88c4.25-2.18,8.49-4.38,12.74-6.56
	c4.3-2.22,8.59-4.44,12.89-6.65c4.38-2.25,8.76-4.49,13.13-6.77c1.75-0.91,3.52-1.81,5.28-2.72c1.06-0.55,2.13-1.09,3.2-1.64
	c0.57-0.29,1.14-0.58,1.71-0.88c0.26-0.14,0.53-0.27,0.79-0.4c0.05-0.04,0.11-0.07,0.16-0.1c0.15-0.08,0.3-0.16,0.45-0.23
	c0,0,0,0,0,0c0,0,0,0,0,0c0.05-0.02,0.09-0.04,0.14-0.06c0.6-0.26,1.18,0.29,1.32,0.84c0.14,0.57-0.08,1.21-0.58,1.48
	c0,0,0,0.01,0,0.01c-0.14,0.09-0.3,0.16-0.45,0.24c-0.06,0.03-0.12,0.05-0.18,0.07c-0.26,0.14-0.52,0.28-0.79,0.41
	c-0.58,0.3-1.16,0.6-1.74,0.9c-1.13,0.59-2.26,1.17-3.39,1.75c-1.83,0.95-3.66,1.89-5.5,2.83c-4.36,2.24-8.71,4.5-13.07,6.74
	c-4.31,2.21-8.61,4.43-12.91,6.65c-4.25,2.2-8.52,4.39-12.77,6.58c-4.46,2.29-8.9,4.59-13.36,6.89c-4.72,2.43-9.44,4.86-14.16,7.29
	c-4.48,2.3-8.96,4.61-13.43,6.92c-4.45,2.3-8.91,4.59-13.36,6.89c-4.36,2.25-8.72,4.5-13.08,6.75c-2.06,1.07-4.14,2.12-6.2,3.19
	c-1.09,0.56-2.18,1.12-3.27,1.69c-0.98,0.5-1.94,1.03-2.92,1.52c-0.15,0.07-0.3,0.11-0.44,0.11
	C1984.56,804.91,1984.18,804.62,1984.01,804.2z"/>
<path d="M1721.16,759.28c0.5,0.52,0.46,1.58-0.09,2.03c-0.16,0.13-0.37,0.21-0.62,0.21c-1.24,0-1.39-1.96-0.45-2.43
	c0.13-0.07,0.28-0.1,0.45-0.1c0.03,0,0.06,0,0.09,0v0c0,0,0,0,0.01,0c0.12,0.01,0.24,0.04,0.34,0.09c0.05,0.03,0.1,0.05,0.14,0.09
	c0.04,0.03,0.08,0.07,0.12,0.11L1721.16,759.28C1721.15,759.28,1721.15,759.28,1721.16,759.28z"/>
<path d="M1987.04,804.12c0,0.34-0.12,0.7-0.36,0.95c-0.16,0.17-0.43,0.32-0.69,0.32c-0.05,0-0.11-0.01-0.16-0.02
	c-0.06-0.02-0.13-0.03-0.2-0.04c-0.03,0-0.06-0.01-0.09-0.01c-0.2-0.04-0.41-0.07-0.61-0.1c-0.18-0.03-0.35-0.06-0.53-0.09
	c-0.3-0.05-0.61-0.1-0.91-0.15c-1.04-0.17-2.09-0.35-3.14-0.52c-2.6-0.42-5.19-0.86-7.79-1.29c-6.61-1.08-13.22-2.19-19.83-3.27
	c-7.37-1.21-14.73-2.42-22.1-3.63c-5.36-0.88-10.72-1.75-16.07-2.64c-10.12-1.7-20.25-3.33-30.38-5c-5.85-0.96-11.7-1.91-17.54-2.89
	c-4.19-0.7-8.38-1.38-12.57-2.07c-4.08-0.67-8.16-1.35-12.24-2.02c-7.03-1.15-14.05-2.3-21.07-3.46c-7.25-1.2-14.51-2.38-21.77-3.59
	c-6.39-1.06-12.77-2.11-19.16-3.15c-8.12-1.33-16.23-2.69-24.36-4.02c-8.87-1.45-17.74-2.92-26.61-4.38
	c-2.56-0.42-5.12-0.84-7.67-1.25c-0.48-0.08-0.96-0.16-1.45-0.23c-0.25-0.01-0.49-0.14-0.66-0.31c-0.25-0.25-0.37-0.6-0.37-0.95
	c0-0.66,0.5-1.36,1.22-1.24c0.02,0,0.04,0,0.05,0.01c0.19,0.03,0.39,0.06,0.58,0.09s0.38,0.06,0.57,0.09l0,0c0,0,0,0,0.01,0
	c3.15,0.51,6.3,1.05,9.46,1.57c4.64,0.77,9.29,1.52,13.93,2.29c8.52,1.41,17.04,2.81,25.57,4.21c3.66,0.6,7.31,1.2,10.96,1.8h0
	c3.66,0.61,7.31,1.21,10.96,1.8c2.74,0.45,5.48,0.9,8.22,1.35c4.3,0.71,8.61,1.45,12.91,2.13c2.89,0.46,5.79,0.95,8.68,1.42
	c2.57,0.43,5.15,0.85,7.72,1.28c8.67,1.44,17.35,2.86,26.02,4.28c7.1,1.16,14.2,2.34,21.31,3.5c8.21,1.34,16.42,2.72,24.63,4.09
	c7.08,1.17,14.17,2.3,21.25,3.46c6.3,1.04,12.6,2.08,18.9,3.12c4.29,0.7,8.58,1.42,12.87,2.12c3.58,0.59,7.16,1.16,10.74,1.76
	c5.37,0.9,10.75,1.77,16.12,2.65c0.67,0.11,1.34,0.22,2,0.33c0,0,0,0,0-0.01c0,0,0,0,0.01,0c0.23,0.04,0.47,0.07,0.7,0.11
	c0.1,0.02,0.2,0.03,0.29,0.05c0.31,0.05,0.62,0.1,0.93,0.15c0.17,0.03,0.35,0.06,0.48,0.09c0.06,0.01,0.12,0.02,0.15,0.03
	c0.27,0.02,0.5,0.11,0.7,0.3c0.21,0.21,0.33,0.5,0.36,0.8C1987.04,804.02,1987.04,804.07,1987.04,804.12z"/>
<path d="M2045.77,686.85c-2.21-0.12-4.49,0.1-6.66-0.33c-1.26-0.33-2.55-0.7-3.83-1.05c-0.89-0.1-1.69-0.28-1.7-1.37
	c0-0.55,0.41-1.3,1.06-1.25c1.99,0.25,3.83,1.15,5.77,1.38c2.07,0.04,4.14,0.11,6.21,0.13
	C2048.4,684.93,2047.56,687.25,2045.77,686.85z"/>
<path d="M2052.02,687.18c-1.15-0.48-2.4-0.45-3.61-0.51c-3.35-0.38-6.8-0.96-10.11-1.21c-1.39-0.04-1.4-2.46,0-2.5
	c3.28,0.3,6.52,0.7,9.76,1.19c1.59,0.1,3.32,0.04,4.81,0.75C2054.12,685.59,2053.45,687.71,2052.02,687.18z"/>
<path d="M2052.61,687.33c-0.61-0.14-1.24-0.12-1.84-0.32c-0.86-0.37-1.43-0.81-2.34-0.79c-0.61,0.01-1.19,0.04-1.75-0.24
	c-0.73,0.08-1.31-0.55-1.29-1.26c0.02-1.35,1.31-1.45,2.31-0.98c1.35-0.14,2.61,0.28,3.76,0.91c0.94,0.26,2.25,0.01,2.85,0.93
	C2054.91,686.77,2053.84,687.86,2052.61,687.33z"/>
<path d="M2011.64,682.5c0.13,0.64-0.02,1.03-0.32,1.28c0,0,0,0,0,0c0,0-0.01,0.01-0.01,0.01c-0.04,0.03-0.07,0.05-0.11,0.08
	c-0.08,0.05-0.17,0.1-0.27,0.14c-0.07,0.03-0.13,0.05-0.2,0.08c-0.22,0.08-0.46,0.14-0.7,0.2c-0.09,0.02-0.19,0.04-0.28,0.07h0
	c-0.11,0.03-0.22,0.06-0.33,0.09c-0.04,0.01-0.09,0.03-0.13,0.04c-0.05,0.02-0.1,0.04-0.15,0.05s-0.09,0.04-0.14,0.06
	c-0.74,0.51-1.48,0.83-2.3,1.14c-0.11,0.05-0.22,0.09-0.33,0.12l0,0c-0.66,0.22-1.39,0.27-1.7-0.54c-0.2-0.51-0.09-1.07,0.27-1.45
	c0.07-0.08,0.15-0.15,0.25-0.21c0.14-0.05,0.29-0.11,0.43-0.16c0.02,0,0.04-0.01,0.05-0.02c0.06-0.02,0.12-0.04,0.18-0.07
	c0.43-0.14,0.85-0.29,1.25-0.49C2008.16,682.38,2011.09,680.59,2011.64,682.5z"/>
<path d="M1845.34,673.84c-0.28-1.17,0.94-1.5,1.86-1.38c0.68-0.33,1.27,0.33,1.19,0.99c-0.08,0.78-0.94,0.94-1.57,0.87
	C1846.17,674.51,1845.59,674.68,1845.34,673.84z"/>
<path d="M1845.83,674.48c-0.77-0.26-0.74-1.59,0.05-1.81c0.49-0.07,1.02-0.32,1.5-0.35c0.47-0.15,0.96-0.08,1.44-0.21
	c0.53-0.12,1.16-0.16,1.38,0.45c0.39,1.3-0.84,1.38-1.77,1.52C1847.53,674,1846.72,674.59,1845.83,674.48z"/>
<path class="st0" d="M1970.51,716.75c0.11-0.01,0.21,0,0.3,0.04c-0.12,0.12-0.23,0.24-0.35,0.37c-0.12,0.12-0.23,0.25-0.34,0.38
	c-0.21,0.24-0.43,0.48-0.64,0.73c-0.04,0.04-0.09,0.07-0.13,0.12c-0.04,0.04-0.08,0.08-0.12,0.12c-0.09,0-0.17-0.01-0.26-0.02
	c0.46-0.59,0.93-1.17,1.4-1.75h0c0.07,0,0.14,0,0.21,0C1970.56,716.74,1970.54,716.74,1970.51,716.75z"/>
<path class="st0" d="M2089.61,741.16c0,0.02,0.01,0.03,0.01,0.04C2089.61,741.19,2089.61,741.18,2089.61,741.16z"/>
<path class="st0" d="M2070.27,708.95c0.06,0.16,0.09,0.33,0.07,0.5c-0.41-0.31-0.82-0.61-1.24-0.89c0.04-0.02,0.08-0.04,0.11-0.06
	C2069.62,708.24,2070.12,708.55,2070.27,708.95z"/>
<path class="st1" d="M2005.84,683.45c-0.22,0.08-0.45,0.16-0.67,0.24c-0.09,0.06-0.18,0.13-0.25,0.21c-0.8,0.39-1.59,0.82-2.36,1.25
	c-1.12,0.62-2.22,1.27-3.3,1.95c-2.16,1.34-4.25,2.79-6.28,4.32c-4.07,3.06-7.93,6.39-11.59,9.93c-3.7,3.57-7.2,7.34-10.53,11.25
	c-1.07,1.26-2.23,2.67-3.36,4.09c-3.22,4.07-6.26,8.28-9.07,12.64c-0.39,0.62-0.8,1.27-1.22,1.92c-2.76,4.38-5.26,8.93-7.46,13.61
	l-0.04,0.08c-1.63,3.42-3.08,7-4.27,10.66c-0.01,0.02-0.02,0.05-0.02,0.07c0,0.02-0.01,0.04-0.02,0.07
	c-0.79,2.44-1.46,4.93-1.95,7.47c-0.31,1.62-0.55,3.42-0.69,5.25c-0.1,1.35-0.07,2.7,0.02,4.05c-2.45-0.35-4.9-0.7-7.34-1.05
	c-6.32-0.91-12.64-1.84-18.97-2.72c-3.75-0.52-7.49-1.08-11.23-1.62c-3.82-0.55-7.64-1.09-11.46-1.63
	c-7.94-1.14-15.88-2.28-23.82-3.43c-7.73-1.11-15.46-2.23-23.2-3.34c-7.7-1.11-15.39-2.21-23.09-3.31
	c-7.84-1.12-15.68-2.28-23.53-3.39c-7.66-1.09-15.32-2.2-22.98-3.3c-3.76-0.54-7.52-1.09-11.28-1.63c-1.86-0.27-3.71-0.54-5.57-0.8
	c-0.66-0.1-1.32-0.2-1.99-0.29c-0.18-0.2-0.42-0.33-0.74-0.33c-0.2,0-0.38,0.05-0.52,0.14c-0.26-0.03-0.52-0.03-0.77,0.05
	c-0.25-0.56-0.47-1.14-0.67-1.72c-0.21-0.68-0.39-1.36-0.54-2.05c-0.14-0.79-0.25-1.6-0.31-2.4c-0.05-0.82-0.05-1.65,0-2.47
	c0.07-1,0.2-1.98,0.38-2.97c0.19-0.98,0.47-2.13,0.83-3.25c0.01-0.04,0.05-0.16,0.09-0.27c0.44-1.27,0.93-2.52,1.5-3.75
	c0.03-0.06,0.08-0.18,0.14-0.29c0.76-1.58,1.66-3.2,2.66-4.76c1.42-2.2,2.99-4.3,4.67-6.3c0.08-0.09,0.16-0.19,0.23-0.28
	c2.45-2.87,5.17-5.59,8.03-8.14c0.32-0.29,0.77-0.68,1.21-1.06c3.82-3.29,7.9-6.28,12.11-9.05c2.03-1.32,4.18-2.64,6.38-3.91
	c4.4-2.54,8.93-4.85,13.56-6.93c3.29-1.46,6.63-2.83,10.02-4.08c4.58-1.69,9.24-3.17,13.96-4.42c0.01,0,0.02-0.01,0.04-0.01
	c0.03-0.01,0.06-0.02,0.09-0.02c2.29-0.6,4.61-1.15,6.94-1.64c0.02,0.01,0.04,0.02,0.05,0.03c0.17-0.04,0.34-0.06,0.51-0.1
	c0.2-0.04,0.39-0.06,0.59-0.09c0.16-0.01,0.32-0.04,0.48-0.07c0.22-0.05,0.43-0.12,0.66-0.16c0.2-0.03,0.41-0.07,0.61-0.11
	c0,0-0.01,0-0.02,0c0.21-0.05,0.41-0.14,0.62-0.19c0.1-0.02,0.2-0.03,0.3-0.04h0c0,0,0.01,0,0.01,0c-0.01-0.01-0.02-0.01-0.03-0.02
	c1.66-0.3,3.32-0.57,4.99-0.8c0.16-0.02,0.31-0.07,0.43-0.16c0.06-0.02,0.12-0.04,0.19-0.05c0.34,0.01,0.71-0.05,0.99-0.23
	c0.14-0.02,0.28-0.02,0.43-0.01c0.31-0.05,0.66-0.09,0.97-0.18c3.15,0.19,6.3,0.38,9.45,0.57c9.39,0.57,18.78,1.15,28.17,1.72
	c9.78,0.59,19.55,1.17,29.33,1.77c9.67,0.59,19.34,1.2,29.01,1.79c9.8,0.6,19.6,1.2,29.4,1.79c9.7,0.59,19.39,1.18,29.09,1.79
	C2004.51,683.36,2005.17,683.41,2005.84,683.45z"/>
<path class="st1" d="M2086.06,739.29c-0.02,0.01-0.04,0.02-0.06,0.03c-1.24,0.57-2.48,1.14-3.72,1.72
	c-4.17,1.94-8.34,3.87-12.52,5.8c-4.52,2.1-9.04,4.2-13.57,6.29c-4.69,2.16-9.37,4.34-14.05,6.51c-4.65,2.14-9.29,4.3-13.93,6.44
	c-4.54,2.1-9.08,4.2-13.62,6.3c-2.29,1.06-4.59,2.12-6.88,3.18c-1.19,0.55-2.38,1.09-3.57,1.63c0-0.03-0.02-0.05-0.02-0.08
	c-0.14-0.45-0.23-0.92-0.35-1.38c-0.19-0.79-0.36-1.58-0.52-2.38c-0.44-2.28-0.77-4.76-0.96-7.25c0-0.07-0.02-0.19-0.02-0.3
	c-0.17-2.47-0.18-5.13-0.04-7.78c0.16-2.73,0.48-5.48,0.96-8.21c0.01-0.04,0.02-0.11,0.04-0.18l0.01-0.05
	c0-0.02,0.01-0.05,0.01-0.07c0.49-2.6,1.15-5.2,1.94-7.75c0.8-2.5,1.73-4.97,2.83-7.37c0.08-0.17,0.16-0.33,0.23-0.5
	c1.06-2.23,2.24-4.43,3.56-6.57l0.02-0.02c0.01-0.02,0.02-0.04,0.04-0.06c0.71-1.11,1.48-2.24,2.28-3.34
	c0.81-1.12,1.68-2.2,2.55-3.26c1.46-1.7,3.11-3.42,4.88-5.04c1.65-1.46,3.4-2.84,5.25-4.11c0.2-0.13,0.4-0.27,0.6-0.4
	c1.62-1.08,3.48-2.09,5.38-2.99c2.08-0.94,4.21-1.73,6.42-2.34l0.04-0.01c0.02,0,0.04-0.01,0.06-0.02c1.88-0.48,3.79-0.84,5.74-1.04
	c2.02-0.18,4.04-0.21,6.06-0.07c1.91,0.17,3.8,0.47,5.66,0.93l0.02,0.01c0.01,0,0.02,0,0.03,0.01c1.8,0.48,3.59,1.08,5.32,1.84
	c1.61,0.72,3.2,1.57,4.74,2.54c0,0,0.09,0.05,0.17,0.11c1.57,1.01,3.05,2.14,4.46,3.37c1.27,1.12,2.59,2.44,3.81,3.84l0.01,0.01
	c0.03,0.03,0.05,0.06,0.08,0.09c1.26,1.47,2.45,3.06,3.55,4.73c1.12,1.73,2.12,3.54,3.03,5.39c0.95,1.99,1.8,4.1,2.52,6.25
	c0.03,0.1,0.08,0.25,0.13,0.4c0.3,0.97,0.62,2.03,0.89,3.1c0.12,0.48,0.24,0.95,0.36,1.44
	C2085.95,738.86,2085.99,739.07,2086.06,739.29z"/>
<path d="M2004.8,740.08c-0.16-0.41-0.05-1.04,0.39-1.25l0,0c0.03-0.01,0.06-0.03,0.08-0.04c0.01,0,0.01-0.01,0.02-0.01c0,0,0,0,0,0
	h0c1.72-0.82,3.44-1.62,5.16-2.43c1.84-0.87,3.69-1.75,5.53-2.62c3.69-1.75,7.38-3.5,11.07-5.24c3.64-1.73,7.29-3.46,10.93-5.18
	c3.66-1.73,7.32-3.48,10.99-5.21c3.48-1.63,6.94-3.29,10.41-4.93c3.01-1.43,6.01-2.86,9.02-4.28c0.18-0.09,0.37-0.17,0.55-0.26
	c0.08-0.04,0.18-0.07,0.25-0.12c0.41-0.26,0.91,0.05,1.06,0.45c0.17,0.44,0.03,1.02-0.39,1.25c-0.04,0.02-0.08,0.04-0.09,0.04
	c-0.65,0.3-1.29,0.63-1.95,0.92c-0.8,0.36-1.58,0.74-2.37,1.12c-0.84,0.39-1.67,0.79-2.51,1.19c-1.61,0.77-3.21,1.52-4.82,2.29
	c-3.52,1.66-7.03,3.32-10.55,4.99c-3.7,1.75-7.39,3.51-11.1,5.26c-3.68,1.73-7.34,3.48-11.02,5.21c-3.67,1.74-7.33,3.49-11.01,5.21
	c-2.88,1.35-5.74,2.75-8.62,4.11c-0.11,0.06-0.22,0.08-0.33,0.08C2005.21,740.62,2004.92,740.4,2004.8,740.08z"/>
<path d="M2082.21,720.73c0-0.04-0.01-0.07-0.01-0.1c0,0.02,0,0.03,0,0.04c0-0.06,0-0.12,0-0.18c0,0,0,0.01,0,0.01
	c0.04,0.1,0.06,0.2,0.07,0.31C2082.25,720.78,2082.23,720.75,2082.21,720.73z"/>
<path d="M2001.9,761.66c-0.49-0.21-0.66-0.78-0.48-1.27c0.07-0.19,0.21-0.38,0.39-0.48c0.09-0.04,0.18-0.09,0.27-0.13
	c0.2-0.1,0.4-0.2,0.6-0.3c0.41-0.21,0.82-0.41,1.24-0.62c0.84-0.42,1.69-0.85,2.53-1.27c1.8-0.9,3.6-1.8,5.4-2.71
	c3.7-1.86,7.4-3.72,11.1-5.58c3.71-1.86,7.42-3.73,11.13-5.59c3.7-1.86,7.41-3.73,11.12-5.59c3.64-1.83,7.28-3.68,10.92-5.5
	c3.52-1.76,7.03-3.54,10.55-5.3c3.25-1.63,6.51-3.27,9.76-4.91c0.65-0.33,1.3-0.66,1.96-0.98c0.43-0.22,0.86-0.46,1.3-0.66
	c0,0,0,0,0,0s0,0,0,0l0.01,0c0.33-0.17,0.66-0.33,0.98-0.5c0,0.03,0.01,0.07,0.02,0.1c0.05,0.11,0.12,0.2,0.21,0.29c0,0,0,0,0,0
	c0.18,0.29,0.36,0.57,0.54,0.86c0.06,0.1,0.13,0.2,0.19,0.3c-0.43,0.22-0.87,0.43-1.3,0.65v0c-0.59,0.27-1.16,0.58-1.74,0.87
	c-0.73,0.37-1.46,0.73-2.19,1.09c-1.54,0.77-3.07,1.55-4.61,2.32c-3.49,1.75-6.99,3.51-10.48,5.27c-3.62,1.82-7.25,3.64-10.87,5.46
	c-3.7,1.86-7.39,3.71-11.08,5.57c-3.65,1.84-7.31,3.68-10.96,5.52c-3.71,1.86-7.42,3.73-11.13,5.6c-3.63,1.82-7.27,3.66-10.9,5.49
	c-0.7,0.35-1.4,0.71-2.11,1.06c-0.36,0.18-0.73,0.36-1.09,0.55c-0.17,0.08-0.34,0.17-0.51,0.25c-0.18,0.09-0.37,0.2-0.57,0.2
	C2002.05,761.71,2001.97,761.7,2001.9,761.66z"/>
<path d="M1945.9,757.59c-0.03,0-0.06-0.01-0.09-0.01c-0.07,0-0.14-0.02-0.2-0.04c-0.25-0.03-0.51-0.06-0.75-0.09
	c-0.48-0.06-0.95-0.12-1.43-0.17c-0.83-0.1-1.66-0.21-2.49-0.31c-3.34-0.42-6.69-0.83-10.03-1.24c-7.39-0.91-14.77-1.82-22.16-2.73
	c-7.7-0.95-15.39-1.89-23.08-2.83c-7.7-0.94-15.39-1.9-23.09-2.84c-7.7-0.94-15.39-1.88-23.09-2.83c-7.59-0.95-15.17-1.88-22.76-2.8
	c-7.7-0.95-15.4-1.89-23.11-2.84c-7.48-0.91-14.96-1.84-22.43-2.75c-2.59-0.31-5.17-0.64-7.75-0.96c-2.82-0.34-5.66-0.67-8.48-1.02
	c-0.01,0-0.01,0-0.02,0c-0.01,0-0.01,0-0.02,0c-0.05-0.01-0.09-0.01-0.14-0.02c-0.49-0.06-0.73-0.64-0.67-1.07
	c0.06-0.46,0.42-0.85,0.91-0.79c3.93,0.48,7.85,1,11.78,1.46c3.64,0.43,7.28,0.89,10.91,1.34c7.65,0.95,15.3,1.9,22.95,2.84
	c7.7,0.94,15.39,1.89,23.08,2.84c7.5,0.92,15,1.83,22.49,2.75c7.78,0.96,15.55,1.92,23.33,2.87c7.68,0.93,15.35,1.89,23.03,2.84
	c7.58,0.93,15.16,1.86,22.74,2.79c7.41,0.91,14.83,1.82,22.25,2.72c1.67,0.2,3.33,0.41,5,0.6c1.1,0.12,2.19,0.29,3.29,0.41
	c0.06,0,0.14,0.01,0.21,0.02c0.02,0,0.03,0,0.03,0c0.01,0,0.02,0,0.02,0c0.48,0.08,0.73,0.62,0.67,1.07
	c-0.05,0.39-0.36,0.8-0.78,0.8C1945.98,757.61,1945.94,757.6,1945.9,757.59z"/>
<path d="M1992.52,693.39c-0.02,0-0.05,0-0.07-0.01h0c-0.05,0-0.09,0-0.14-0.01c-1.2-0.1-2.41-0.18-3.61-0.28
	c-2.89-0.23-5.78-0.43-8.67-0.65c-6.31-0.5-12.63-0.95-18.94-1.43c-6.55-0.5-13.09-1-19.64-1.5c-6.75-0.51-13.5-1.02-20.25-1.53
	c-6.88-0.52-13.75-1.04-20.62-1.55c-6.79-0.51-13.58-1.02-20.37-1.54c-6.79-0.52-13.59-1.02-20.38-1.54
	c-6.54-0.5-13.09-0.98-19.63-1.47c-2.91-0.22-5.82-0.44-8.74-0.66c-1.54-0.11-3.08-0.23-4.62-0.34c-1.14-0.08-2.29-0.15-3.44-0.25
	c-0.49-0.04-0.8-0.46-0.8-0.94c0-0.46,0.36-1.01,0.88-0.94c1.25,0.08,2.5,0.2,3.74,0.3c1.69,0.13,3.37,0.26,5.06,0.38
	c3.21,0.24,6.41,0.48,9.62,0.73c6.56,0.49,13.12,0.99,19.68,1.49c6.83,0.52,13.65,1.03,20.48,1.55c6.79,0.51,13.59,1.02,20.38,1.54
	c6.84,0.52,13.68,1.04,20.52,1.55c6.74,0.5,13.48,1.01,20.22,1.52c6.52,0.49,13.04,0.96,19.55,1.46c6.26,0.48,12.52,0.93,18.77,1.41
	c2.61,0.2,5.23,0.4,7.84,0.59c0.54,0.04,1.08,0.08,1.62,0.12c0.46,0.04,0.92,0.09,1.39,0.11c0.03,0,0.06,0,0.09,0
	c0.01,0,0.01,0,0.01,0c0,0,0.01,0,0.01,0c0.01,0,0.01,0,0.02,0c0.07,0.01,0.15,0.01,0.21,0.02c0.98,0.18,0.84,1.85-0.12,1.86
	c0,0,0,0,0,0.01C1992.57,693.39,1992.55,693.39,1992.52,693.39z"/>
<path d="M1980.93,704.38c-0.77-0.07-1.55-0.14-2.27-0.2c-0.08,0-0.16-0.01-0.22-0.02c-2.23-0.19-4.46-0.41-6.7-0.61
	c-2.71-0.25-5.43-0.49-8.15-0.74c-6.64-0.62-13.29-1.21-19.94-1.82c-7.07-0.64-14.14-1.29-21.21-1.93s-14.13-1.28-21.2-1.92
	c-6.69-0.61-13.38-1.21-20.07-1.82c-6.95-0.63-13.9-1.26-20.86-1.9c-7.27-0.66-14.53-1.32-21.79-1.98
	c-6.93-0.62-13.86-1.27-20.79-1.88c-4.81-0.43-9.62-0.88-14.32-1.29c-0.06,0-0.12-0.01-0.19-0.02c-0.02,0-0.04,0-0.05,0
	c-0.21-0.02-0.42-0.04-0.61-0.05c0,0,0,0-0.04,0c-0.03,0-0.06,0-0.09-0.01c-0.48-0.04-0.72-0.65-0.67-1.07
	c0.06-0.47,0.42-0.84,0.91-0.79c6.65,0.62,13.3,1.23,19.95,1.83c7.09,0.64,14.18,1.29,21.28,1.94c7.19,0.66,14.38,1.31,21.56,1.95
	c6.86,0.62,13.71,1.24,20.57,1.87c6.69,0.61,13.38,1.21,20.07,1.82c7.17,0.65,14.34,1.31,21.52,1.96c6.97,0.62,13.95,1.26,20.92,1.9
	c6.27,0.57,12.55,1.11,18.82,1.7c1.4,0.13,2.79,0.25,4.07,0.37c1.83,0.16,3.67,0.34,5.5,0.5c0.05,0,0.09,0.01,0.12,0.01
	c0.02,0,0.04,0,0.06,0c0.02,0,0.03,0,0.04,0c0.05,0,0.1,0.01,0.1,0.01c0.14,0.02,0.28,0.03,0.4,0.04c0.07,0.01,0.14,0.01,0.15,0.02
	l0.09,0c1.4,0.12,2.8,0.26,4.2,0.39c0.01,0,0.02,0,0.02,0c0.02,0,0.05,0,0.07,0c0.13,0.01,0.29,0.01,0.42,0.06c0,0,0.01,0,0.01,0
	s0,0,0.01,0c0.22,0.08,0.39,0.27,0.48,0.49c-0.08,0.08-0.17,0.17-0.25,0.25c-0.34,0.34-0.68,0.67-1.03,1
	c-0.02,0.01-0.03,0.03-0.05,0.04C1981.51,704.44,1981.22,704.41,1980.93,704.38z"/>
<path d="M1968.68,718.46c-0.02,0-0.04,0-0.06,0c-0.01,0-0.02,0-0.02,0s-0.02,0-0.02,0c-0.02,0-0.04,0-0.05-0.01
	c-0.05,0-0.09-0.01-0.11-0.01c-1.65-0.14-3.3-0.26-4.91-0.4c-0.03,0-0.06,0-0.09-0.01c-0.01,0-0.01,0-0.02,0l-0.03,0
	c-1.06-0.09-2.12-0.17-3.06-0.25c-0.18-0.02-0.36-0.03-0.42-0.04c-7.21-0.62-14.44-1.17-21.66-1.77
	c-7.59-0.63-15.19-1.25-22.79-1.86c-7.48-0.61-14.96-1.23-22.44-1.84c-7.65-0.62-15.31-1.24-22.96-1.88
	c-7.71-0.64-15.43-1.26-23.14-1.89c-7.66-0.63-15.31-1.25-22.96-1.88c-7.5-0.61-15-1.23-22.51-1.83c-7.23-0.58-14.46-1.2-21.69-1.75
	c-0.05,0-0.11-0.01-0.16-0.01h-0.01c-0.05,0-0.1-0.01-0.1-0.01c-0.46-0.06-0.75-0.47-0.75-0.93c0-0.42,0.31-0.97,0.8-0.94
	c0,0,0,0,0,0h0.02c0.04,0,0.07,0,0.11,0.01c0.01,0,0.02,0,0.03,0c0.14,0.01,0.28,0.02,0.3,0.03c7.3,0.63,14.6,1.2,21.89,1.8
	c7.5,0.62,14.99,1.23,22.49,1.85c7.65,0.62,15.3,1.25,22.95,1.87c7.73,0.62,15.46,1.27,23.19,1.89c7.62,0.61,15.24,1.24,22.86,1.87
	c7.54,0.62,15.08,1.22,22.62,1.84c7.56,0.62,15.13,1.23,22.69,1.84c7.18,0.59,14.36,1.2,21.55,1.75c1.48,0.12,2.95,0.23,4.43,0.36
	c0.67,0.05,1.34,0.11,2.01,0.16c0.6,0.05,1.2,0.12,1.8,0.15c0.03,0,0.07,0,0.11,0c0.04,0,0.07,0,0.11,0.01
	c0.04,0,0.09,0.01,0.14,0.01c0.43,0.04,0.85,0.07,1.16,0.1c0.2,0.02,0.41,0.05,0.61,0.04c-0.04,0-0.08,0.01-0.12,0.01
	c-0.01,0-0.02,0.01-0.04,0.01c0.13-0.03,0.26-0.02,0.38,0.02c-0.24,0.24-0.46,0.49-0.69,0.74c-0.21,0.24-0.43,0.48-0.64,0.73
	c-0.09,0.08-0.18,0.16-0.25,0.25C1969.05,718.49,1968.86,718.48,1968.68,718.46z"/>
<path d="M1956.81,736.21c0.02,0.12,0.02,0.23,0,0.35c0,0.03-0.01,0.05-0.01,0.08c0,0.03-0.01,0.05-0.02,0.08
	c0,0.03-0.01,0.05-0.02,0.08c-0.01,0.02-0.02,0.05-0.03,0.07c-0.01,0.02-0.02,0.05-0.04,0.07c-0.01,0.02-0.02,0.05-0.04,0.07
	c-0.01,0.02-0.03,0.04-0.04,0.06c-0.03,0.04-0.06,0.07-0.1,0.11c-0.1,0.08-0.21,0.14-0.35,0.16c0,0,0,0,0,0
	c-0.04,0-0.08,0.01-0.13,0.01c-0.19,0-0.39-0.04-0.57-0.05c-0.4-0.04-0.8-0.07-1.2-0.11c-0.17-0.02-0.35-0.04-0.52-0.05
	c-0.54-0.05-1.09-0.1-1.63-0.15c-2.61-0.25-5.21-0.49-7.81-0.73c-7.17-0.68-14.34-1.34-21.51-2.02c-7.64-0.73-15.29-1.42-22.93-2.14
	c-7.78-0.73-15.56-1.45-23.34-2.18c-7.88-0.73-15.75-1.47-23.62-2.21c-7.9-0.74-15.8-1.48-23.71-2.21
	c-7.79-0.73-15.59-1.44-23.38-2.17c-7.78-0.73-15.57-1.45-23.36-2.18c-3.52-0.33-7.03-0.66-10.55-0.98
	c-1.77-0.16-3.54-0.32-5.31-0.48c-1.41-0.12-2.82-0.23-4.22-0.38c-0.07-0.01-0.12-0.02-0.18-0.05c-0.36-0.16-0.54-0.65-0.49-1.02
	c0.06-0.47,0.42-0.84,0.91-0.79c0.29,0.02,0.59,0.05,0.88,0.08c1.25,0.11,2.5,0.24,3.75,0.36c1.99,0.19,3.97,0.38,5.96,0.56
	c3.84,0.36,7.69,0.72,11.53,1.08c7.81,0.72,15.62,1.45,23.42,2.18c7.82,0.74,15.65,1.47,23.48,2.2c7.91,0.73,15.82,1.47,23.74,2.21
	c7.82,0.73,15.64,1.45,23.47,2.18c7.77,0.73,15.53,1.44,23.3,2.17c7.62,0.71,15.24,1.42,22.86,2.12c7.1,0.65,14.2,1.32,21.3,1.98
	c2.82,0.25,5.63,0.53,8.45,0.78c0.43,0.04,0.87,0.08,1.3,0.12C1956.5,735.48,1956.75,735.82,1956.81,736.21L1956.81,736.21z"/>
<path class="st0" d="M1831.72,673.02c-0.01,0-0.02,0-0.03,0l0,0C1831.7,673.02,1831.71,673.02,1831.72,673.02z"/>
<path class="st0" d="M2034.9,685.42c-0.35,0.06-0.7,0.12-1.04,0.19c-0.46,0.09-0.93,0.19-1.39,0.3c-0.26,0.05-0.52,0.12-0.78,0.18
	c-0.36,0.08-0.71,0.17-1.06,0.27c-1.09,0.29-2.16,0.6-3.23,0.95c-0.27,0.09-0.53,0.18-0.8,0.27c-0.53,0.18-1.06,0.37-1.58,0.56
	s-1.05,0.4-1.57,0.61c-1.82,0.73-3.6,1.56-5.34,2.47c-4.52,2.35-8.72,5.31-12.52,8.68c-0.13,0.11-0.26,0.23-0.39,0.35
	c-0.26,0.23-0.52,0.47-0.77,0.71c-0.65,0.61-1.31,1.23-1.95,1.88c-3.79,3.8-7.12,8.03-10.01,12.54c-0.98,1.54-1.95,3.15-2.84,4.8
	c-2.46,4.52-4.53,9.25-6.17,14.12c-0.11,0.33-0.22,0.65-0.32,0.98c-1.3,3.97-2.39,8.19-3.2,12.46c-0.8,4.21-1.36,8.65-1.64,13.1
	l-0.02,0.27c-0.27,4.22-0.29,8.46-0.06,12.69c0.28,5.12,0.88,10.23,1.84,15.27c0.3,1.59,0.64,3.22,1.01,4.84
	c0.09,0.38,0.18,0.77,0.28,1.15c0.28,1.16,0.58,2.31,0.9,3.46c0.36,1.32,0.75,2.62,1.16,3.93c0,0,0,0,0,0.01
	c-0.67-0.11-1.34-0.22-2-0.33c-5.38-0.89-10.75-1.75-16.12-2.65c-3.58-0.6-7.16-1.16-10.74-1.76c-4.29-0.71-8.58-1.43-12.87-2.12
	c-6.3-1.04-12.6-2.08-18.9-3.12c-7.08-1.16-14.17-2.29-21.25-3.46c-8.21-1.36-16.42-2.74-24.63-4.09
	c-7.11-1.16-14.21-2.34-21.31-3.5c-0.78-0.13-1.55-0.25-2.33-0.38c-0.54-0.09-1.09-0.18-1.63-0.27c0.11-0.29,0.21-0.58,0.32-0.86
	c0.7-1.84,1.39-3.68,2.08-5.52c0.33-0.88,0.66-1.75,0.99-2.63c0.1-0.26,0.2-0.51,0.29-0.77c-0.29-0.05-0.59-0.13-0.88-0.19
	c-0.53-0.12-1.07-0.22-1.6-0.33c-0.97-0.21-1.95-0.41-2.92-0.61c-0.97-0.2-1.93-0.39-2.91-0.52c-0.87-0.11-1.73-0.22-2.6-0.33
	c-1.23-0.16-2.46-0.31-3.69-0.47c-0.82-0.11-1.64-0.23-2.47-0.31c-0.1,0.24-0.21,0.47-0.31,0.71c-0.4,0.92-0.8,1.84-1.2,2.75
	c-0.82,1.87-1.63,3.74-2.46,5.6c-0.09,0.19-0.17,0.38-0.25,0.57c-0.55-0.09-1.11-0.18-1.66-0.27c-0.93-0.16-1.86-0.31-2.79-0.46
	c-2.57-0.43-5.15-0.85-7.72-1.28c-2.89-0.47-5.78-0.96-8.68-1.42c-4.31-0.68-8.61-1.42-12.91-2.13c-2.74-0.45-5.48-0.9-8.22-1.35
	c-3.65-0.6-7.3-1.2-10.96-1.8h0c-3.65-0.6-7.31-1.2-10.96-1.8c-8.52-1.4-17.05-2.79-25.57-4.21c-4.64-0.77-9.29-1.52-13.93-2.29
	c-3.15-0.52-6.3-1.06-9.46-1.57c0,0,0,0-0.01,0l0,0c-0.04-0.04-0.08-0.07-0.12-0.11c-0.05-0.03-0.09-0.06-0.14-0.09
	c-0.1-0.05-0.21-0.08-0.34-0.09c0,0,0,0-0.01,0v0c-0.16-0.83-0.29-1.66-0.39-2.5c-0.08-0.58-0.14-1.16-0.2-1.74v-0.03
	c0-0.04-0.01-0.08-0.01-0.12v-0.02c-0.14-1.8-0.16-3.64-0.09-5.48c0.11-2.11,0.34-4.21,0.7-6.3l0.01-0.05
	c0-0.02,0.01-0.04,0.01-0.06c0.41-2.27,0.97-4.54,1.64-6.78c0.84-2.68,1.83-5.3,2.97-7.87c1.37-2.98,2.98-5.96,4.75-8.87
	c2.04-3.3,4.31-6.44,6.75-9.45c1.57-1.91,3.2-3.77,4.9-5.58c0.4-0.43,0.81-0.85,1.22-1.26c0.2-0.21,0.41-0.41,0.61-0.62
	c0.1-0.11,0.2-0.21,0.31-0.31c0.11-0.11,0.21-0.21,0.31-0.31c0.83-0.81,1.68-1.62,2.52-2.41c2.02-1.85,4.09-3.65,6.25-5.34
	c2.2-1.73,4.46-3.39,6.77-4.96c2.27-1.52,4.66-3.04,7.11-4.44c2.47-1.39,4.98-2.72,7.54-3.94c2.68-1.25,5.45-2.44,8.27-3.51
	c2.72-1.03,5.5-1.93,8.3-2.71c2.09-0.57,4.22-1.1,6.37-1.54c0.31-0.07,0.62-0.13,0.93-0.18c1.16-0.22,2.32-0.42,3.49-0.6
	c0.19-0.03,0.38-0.06,0.56-0.09c0.62-0.09,1.25-0.18,1.88-0.25c0.55-0.07,1.11-0.14,1.66-0.2l0.04,0c0.02,0,0.04,0,0.06-0.01
	c0.96-0.09,1.93-0.16,2.91-0.23l0,0h0c0.05-0.02,0.11-0.03,0.16-0.03c0.02,0,0.03,0,0.05,0c0.12,0,0.25,0,0.37,0
	c0.05,0,0.1,0,0.15-0.01c0,0,0,0,0.01,0.01c0.12,0,0.25,0,0.37-0.01c0.43-0.02,0.87-0.01,1.3,0.03c0.16,0.02,0.32,0.04,0.48,0.07
	c0.09,0.02,0.2,0.04,0.3,0.07c0.28-0.01,0.55-0.01,0.83-0.01c0.2,0,0.39,0,0.59,0.02c0.23,0.02,0.45,0.06,0.67,0.11
	c0.01,0,0.02,0,0.04,0h0c0,0,0,0,0.01,0c0.07,0.02,0.16,0.03,0.23,0.04c0.32,0.03,0.63,0.04,0.94,0.08
	c0.36,0.04,0.72,0.09,1.09,0.13c0.29,0.02,0.58,0.02,0.87,0.04c0.14,0.01,0.29,0.02,0.43,0.03c0.11,0.01,0.23,0.03,0.34,0.04
	c0.22,0.02,0.44,0.05,0.66,0.07c0.27,0.02,0.54,0.04,0.81,0.07c0.12,0.02,0.25,0.03,0.37,0.05c0.06,0.01,0.12,0.02,0.19,0.04
	c0.01,0,0.02,0,0.02,0c0.05,0.01,0.11,0.02,0.16,0.03c0.02,0,0.03,0,0.05,0c0.06,0.01,0.11,0.01,0.17,0.01
	c0.07,0,0.14,0.01,0.21,0.01c0.14,0.01,0.29,0,0.43,0.01c0.2,0,0.41,0.01,0.61,0.02c0.24,0.01,0.48,0.03,0.72,0.05
	c0.12,0.01,0.24,0.02,0.36,0.03c0.11,0.01,0.21,0.02,0.31,0.02c0.24,0,0.48,0,0.71,0.02c0.33,0.02,0.66,0.05,0.98,0.07
	c0.32,0.03,0.63,0.07,0.95,0.11c0.09,0.01,0.17,0.02,0.25,0.03c0.24,0.02,0.48,0.03,0.73,0.04c0.06-0.02,0.13-0.03,0.2-0.02
	c0.11,0.01,0.22,0.02,0.33,0.03c0,0,0.01,0,0.01,0c0.16,0.02,0.33,0.04,0.49,0.05c0.07,0,0.14,0.01,0.22,0.02c0,0,0,0,0.01,0h0
	c0,0,0.01,0,0.01,0s0.01,0,0.02,0c0.11-0.02,0.21,0,0.32,0.01c0.08,0.01,0.16,0.02,0.24,0.02c0,0,0.01,0,0.01,0
	c0.05,0,0.09,0.01,0.14,0.02c0.16,0.03,0.31,0.08,0.47,0.12c0.04,0,0.07,0,0.1,0c0.01,0,0.02,0,0.04,0c-0.01,0-0.03,0-0.04,0
	c0.27,0.02,0.54,0.02,0.81,0.05c0.22,0.03,0.45,0.06,0.67,0.08c0.07,0,0.13,0.01,0.2,0.01c0.13,0,0.27,0.01,0.4,0.02
	c0.14,0.02,0.28,0.04,0.42,0.06c0.01,0,0.01,0,0.02,0c0,0,0,0,0,0c0.25,0.01,0.5,0,0.75,0c0.23,0,0.47,0.01,0.7,0
	c0.42-0.02,0.84-0.01,1.27-0.01c0.07,0,0.15,0,0.23,0c0.32,0,0.65,0,0.98,0c0.17,0,0.34,0,0.52,0c0.03,0,0.05,0,0.07,0
	c0.11-0.01,0.21-0.02,0.32-0.02c0.17-0.01,0.34-0.03,0.51-0.04c0.17-0.01,0.38-0.02,0.51,0.11c0.06,0,0.12,0,0.19,0.01
	c0.04,0,0.07,0.01,0.11,0.02h0c0.01,0,0.03,0,0.04,0c0.02,0,0.05,0,0.07,0c0.01,0,0.02,0,0.04,0c0,0,0.01,0,0.02,0
	c0.03,0,0.05-0.01,0.08-0.01c0.01,0,0.01,0,0.02,0h0c0,0,0,0,0,0h0c0,0,0.01,0,0.02,0c0,0,0,0,0,0l0,0c0,0,0,0,0,0v0
	c0.05-0.01,0.1-0.02,0.15-0.03c0.16-0.02,0.32,0.07,0.37,0.23c0.09,0,0.18,0.01,0.27,0.02c-0.08,0.02-0.16,0.04-0.25,0.05h0
	c0,0.04,0,0.08-0.01,0.12c0,0.01,0,0.01,0,0.02c0,0.02-0.02,0.05-0.03,0.07c-0.04,0.07-0.1,0.12-0.18,0.15
	c-0.02,0.01-0.04,0.01-0.06,0.02c-0.01,0-0.03,0-0.04,0.01c-0.01,0-0.01,0-0.02,0c-0.02,0-0.04,0.01-0.05,0.01
	c-0.01,0-0.02,0-0.02,0c-0.03,0.01-0.05,0.01-0.08,0.01c-0.03,0-0.05,0.01-0.07,0.01c-0.01,0-0.02,0-0.02,0c-0.01,0-0.02,0-0.03,0
	c-0.05,0-0.09,0-0.13,0c-0.02,0-0.03,0-0.04,0c-0.05,0-0.09,0-0.14-0.01h0c-0.04-0.01-0.09-0.01-0.13-0.02c0,0-0.01,0-0.01,0
	c-0.02,0-0.04,0-0.06,0h0c0,0,0,0,0,0c0,0,0,0,0,0c-0.01,0.01-0.02,0.02-0.04,0.02c-0.01,0.01-0.03,0.02-0.04,0.02l0,0c0,0,0,0,0,0
	c0,0-0.01,0-0.02,0c-0.01,0-0.02,0-0.03,0c0,0-0.01,0-0.02,0s0,0-0.01,0c-0.01,0-0.01,0-0.02,0h0c-0.02,0-0.05,0-0.07,0
	c0,0-0.01,0-0.02,0l0,0c-0.03-0.01-0.05-0.02-0.08-0.03l0,0c-0.04,0.01-0.07,0.02-0.11,0.03c-0.06,0.02-0.12,0.04-0.19,0.06
	c0,0-0.01,0-0.01,0c-0.06,0.02-0.12,0.03-0.19,0.04c0,0-0.01,0-0.01,0c-0.06,0.01-0.13,0.02-0.19,0.03c0,0-0.01,0-0.01,0
	c-0.06,0.01-0.12,0.02-0.18,0.03c0,0-0.01,0-0.02,0c-0.06,0.01-0.12,0.02-0.19,0.02c-0.12,0.01-0.23,0.01-0.35,0.01c0,0,0,0-0.01,0
	c-0.01,0-0.02,0-0.04,0c-0.05,0-0.11,0.01-0.16,0.02c-0.05,0.01-0.1,0.02-0.14,0.03c-0.05,0.02-0.1,0.04-0.15,0.05
	c-0.02,0-0.03,0.01-0.05,0.02c-0.06,0.02-0.12,0.04-0.18,0.06c-0.01,0-0.01,0-0.02,0.01c0,0,0,0-0.01,0
	c-0.04,0.02-0.09,0.03-0.13,0.04c0,0-0.01,0-0.01,0c-0.04,0.01-0.08,0.02-0.12,0.03c0,0-0.01,0-0.01,0
	c-0.04,0.01-0.08,0.02-0.12,0.03c0,0-0.01,0-0.01,0c-0.04,0.01-0.08,0.02-0.12,0.03c0,0-0.01,0-0.01,0
	c-0.23,0.05-0.46,0.09-0.7,0.14c0,0,0,0-0.01,0h0c-0.05,0.01-0.1,0.02-0.15,0.03c-0.42,0.09-0.83,0.2-1.24,0.34
	c-0.13,0.04-0.27,0.09-0.4,0.14c-0.01,0-0.02,0.01-0.02,0.01l0,0c-0.05,0.02-0.1,0.03-0.14,0.03c-0.07,0-0.15-0.02-0.21-0.07
	c-0.17,0.04-0.34,0.09-0.5,0.13c0,0-0.02,0-0.03,0c-0.01,0-0.02,0.01-0.04,0.01c-2.17,0.57-4.34,1.17-6.5,1.83
	c-1.17,0.36-2.33,0.72-3.49,1.11c-0.58,0.19-1.16,0.39-1.73,0.59c-1.15,0.4-2.3,0.81-3.44,1.23c-1.71,0.64-3.42,1.3-5.11,2
	c-1.76,0.72-3.5,1.48-5.24,2.26c-1.15,0.52-2.3,1.06-3.44,1.61c-1.71,0.82-3.41,1.68-5.09,2.57c-4.56,2.41-9.01,5.04-13.27,7.95
	c-1.61,1.09-3.19,2.22-4.74,3.39c-1.03,0.78-2.05,1.57-3.06,2.38c-1.51,1.22-2.99,2.47-4.44,3.77c-2.77,2.45-5.47,5.23-7.96,8.17
	c-0.82,0.96-1.61,1.95-2.38,2.97c-0.51,0.68-1,1.36-1.48,2.06c-0.72,1.05-1.4,2.13-2.04,3.23c-1.33,2.29-2.5,4.71-3.37,7.23
	c-0.09,0.28-0.19,0.56-0.28,0.84c-0.09,0.28-0.17,0.56-0.25,0.84c-0.32,1.13-0.58,2.28-0.76,3.45c-0.09,0.58-0.17,1.16-0.22,1.74
	c-0.02,0.16-0.03,0.32-0.04,0.48c0,0.02,0,0.05,0,0.07c-0.03,0.33-0.04,0.66-0.05,1c0,0.01,0,0.02,0,0.02
	c-0.01,0.39-0.01,0.79,0,1.18c0.04,1.53,0.24,3.06,0.6,4.56c0.29,1.19,0.69,2.37,1.2,3.48c0.18,0.4,0.37,0.8,0.58,1.2
	c0.3,0.04,0.61,0.07,0.91,0.11c0.28,0.04,0.56,0.07,0.84,0.11c0.13,0.02,0.26,0.04,0.39,0.06v0c0.03-0.07,0.05-0.14,0.06-0.22h0
	c0.84,0.12,1.66,0.23,2.5,0.35c1.8,0.26,3.6,0.51,5.4,0.77c3.76,0.54,7.52,1.07,11.28,1.61c7.64,1.1,15.29,2.2,22.93,3.3
	c7.84,1.14,15.69,2.25,23.53,3.38c7.7,1.1,15.41,2.22,23.11,3.33c7.75,1.11,15.5,2.22,23.25,3.34c7.88,1.13,15.76,2.26,23.64,3.4
	c3.84,0.56,7.69,1.11,11.53,1.67c3.76,0.55,7.53,1.06,11.29,1.62c6.33,0.94,12.67,1.84,19,2.75c0.52,0.07,1.05,0.15,1.57,0.23
	c0.12,0.01,0.25,0.03,0.37,0.05c0.4,0.06,0.8,0.12,1.2,0.18c0,0,0,0,0.01,0c1.05,0.15,2.1,0.3,3.15,0.45
	c0.77,0.11,1.53,0.22,2.3,0.33c0.36,0.05,0.71,0.1,1.06,0.15c0.25,0.04,0.53,0.11,0.79,0.11c0.07,0,0.12,0,0.18-0.02
	c-0.02-0.04-0.03-0.08-0.04-0.12c0-0.05,0-0.11,0-0.16c0-0.13,0-0.26-0.01-0.39c0-0.21-0.01-0.43-0.02-0.64
	c-0.01-0.35-0.02-0.7-0.05-1.04c-0.01-0.05-0.01-0.09-0.01-0.13c-0.09-0.01-0.17-0.02-0.25-0.04h0v0c0-0.04-0.01-0.06-0.01-0.1
	c0-0.04,0-0.09-0.01-0.13v0c0-0.02-0.01-0.04-0.01-0.07c-0.01-0.13-0.02-0.27-0.03-0.41v0c-0.03-0.52-0.04-1.04-0.04-1.55
	c0-0.33,0-0.66,0.02-1c0,0,0,0,0,0c0-0.23,0.02-0.45,0.03-0.68c0-0.11,0-0.21,0.01-0.32c0.02-0.34,0.05-0.68,0.09-1.02
	c0.03-0.29,0.06-0.58,0.09-0.87c0.07-0.6,0.16-1.19,0.25-1.78c0.06-0.39,0.13-0.78,0.2-1.17c0-0.01,0.01-0.02,0.01-0.04
	c0,0,0,0,0-0.01c0.01-0.03,0.02-0.05,0.02-0.08c0.47-2.38,1.09-4.72,1.84-7.02l0.05-0.17l0,0c1.16-3.51,2.62-7.11,4.27-10.61
	c0.02-0.04,0.05-0.11,0.09-0.18c0,0,0,0,0-0.01c0,0,0-0.01,0.01-0.02c0.02-0.03,0.03-0.06,0.05-0.09c0.14-0.3,0.29-0.61,0.44-0.91
	c0.86-1.75,1.76-3.47,2.7-5.18c0.38-0.69,0.76-1.38,1.16-2.06c0,0,0,0,0,0c0.14-0.02,0.25-0.08,0.35-0.16
	c0.04-0.04,0.07-0.07,0.1-0.11c0.02-0.02,0.03-0.04,0.04-0.06c0.02-0.02,0.03-0.04,0.04-0.07c0.02-0.02,0.03-0.05,0.04-0.07
	c0.01-0.02,0.02-0.05,0.03-0.07c0.01-0.03,0.02-0.05,0.02-0.08c0.01-0.02,0.02-0.05,0.02-0.08c0-0.02,0.01-0.05,0.01-0.08
	c0.02-0.11,0.01-0.23,0-0.35v0c0.04-0.06,0.07-0.12,0.11-0.19c0.99-1.68,2-3.34,3.05-4.98c0,0,0.02-0.02,0.04-0.05
	c0.02-0.02,0.03-0.05,0.05-0.07c0.03-0.05,0.06-0.1,0.1-0.16c1-1.54,2.02-3.06,3.07-4.56c1.84-2.63,3.76-5.2,5.75-7.71
	c0.09,0.01,0.17,0.02,0.26,0.02c0.04-0.04,0.08-0.09,0.12-0.12c0.04-0.04,0.09-0.08,0.13-0.12c0.21-0.25,0.42-0.49,0.64-0.73
	c0.11-0.13,0.23-0.25,0.34-0.38c0.11-0.12,0.23-0.25,0.35-0.37c-0.09-0.04-0.19-0.05-0.3-0.04c0.03,0,0.05,0,0.08-0.01
	c-0.07,0-0.14,0-0.21,0c0.75-0.93,1.51-1.84,2.28-2.76l0.12-0.14c0.01-0.01,0.02-0.03,0.03-0.04c0.02-0.02,0.04-0.04,0.05-0.06
	c0-0.01,0.04-0.04,0.06-0.07c0.94-1.1,1.93-2.23,2.94-3.34c0.73-0.8,1.47-1.6,2.22-2.39c0.45-0.48,0.91-0.96,1.38-1.43
	c-0.01-0.11,0.05-0.23,0.14-0.3c0.14-0.1,0.28-0.19,0.42-0.28c0,0,0.01-0.01,0.01-0.01c0.25-0.25,0.49-0.5,0.74-0.75
	c0.25-0.24,0.49-0.48,0.74-0.73h0h0c0.09,0.01,0.18,0.02,0.28,0.02c0.02-0.02,0.03-0.03,0.04-0.04v0c0.35-0.33,0.69-0.66,1.03-1
	c0.09-0.08,0.17-0.16,0.25-0.25c-0.03-0.07-0.06-0.13-0.1-0.19l0,0c0.12-0.11,0.23-0.23,0.35-0.34c1.13-1.08,2.28-2.14,3.45-3.18
	c0.09-0.08,0.2-0.18,0.31-0.27l0,0c0.7-0.61,1.52-1.32,2.36-2.02c1.95-1.62,3.94-3.19,5.99-4.67c1.07-0.77,2.15-1.52,3.25-2.24
	c0.02-0.01,0.04-0.02,0.05-0.04c0.13-0.07,0.25-0.16,0.37-0.24c0,0,0,0,0,0l0.09-0.06c1.12-0.71,2.38-1.48,3.67-2.21
	c1.07-0.61,2.18-1.16,3.28-1.72c0.04-0.02,0.08-0.04,0.12-0.07c0.01-0.01,0.03-0.02,0.04-0.03l0,0c0.11-0.04,0.23-0.08,0.33-0.12
	c0.83-0.3,1.56-0.63,2.3-1.14c0.04-0.02,0.09-0.04,0.14-0.06s0.1-0.04,0.15-0.05c0.04-0.02,0.09-0.03,0.13-0.04
	c0.11-0.04,0.22-0.07,0.33-0.09h0c0.09-0.03,0.19-0.05,0.28-0.07c0.24-0.06,0.48-0.12,0.7-0.2c0.07-0.02,0.14-0.05,0.2-0.08
	c0.09-0.04,0.18-0.09,0.27-0.14c0.04-0.03,0.08-0.05,0.11-0.08c0,0,0-0.01,0.01-0.01c6.36,0.39,12.72,0.78,19.08,1.17
	c1.25,0.07,2.51,0.15,3.76,0.23c0.06,0.04,0.13,0.07,0.2,0.09c0.05,0.02,0.09,0.03,0.14,0.05c0.05,0.02,0.1,0.03,0.15,0.04
	c0.05,0.01,0.1,0.02,0.15,0.04C2034.83,685.41,2034.86,685.41,2034.9,685.42z"/>
<path class="st0" d="M2082.27,720.8c-0.01-0.11-0.03-0.21-0.07-0.3c0,0,0,0,0-0.01c0,0.05,0,0.1,0,0.14c0,0.01,0,0.01,0,0.02
	c0,0.03,0,0.05,0.01,0.08C2082.23,720.75,2082.25,720.77,2082.27,720.8z M2088.66,740.77c-0.01-0.02-0.01-0.04-0.01-0.06
	c-0.02-0.02-0.03-0.04-0.05-0.06c-0.02-0.05-0.03-0.1-0.04-0.15c-0.02-0.12-0.04-0.25-0.05-0.38c-0.02-0.18-0.03-0.36-0.05-0.53
	c-0.02-0.07-0.04-0.14-0.05-0.21c0,0-0.01,0,0-0.01c0,0,0,0,0,0c0,0,0,0,0-0.01c-0.09-0.29-0.16-0.57-0.25-0.86
	c-0.02-0.05-0.03-0.09-0.05-0.14c-0.02,0.01-0.04,0.02-0.06,0.03c0,0,0-0.01,0-0.01h0c-0.02-0.09-0.05-0.19-0.07-0.28
	c-0.02-0.09-0.04-0.18-0.06-0.26c-0.12-0.49-0.24-0.99-0.38-1.48c-0.3-1.11-0.63-2.22-0.99-3.31c-0.17-0.52-0.4-1.2-0.64-1.87
	c-0.12-0.33-0.24-0.65-0.37-0.98c-0.06-0.16-0.12-0.31-0.18-0.46c-0.11-0.27-0.22-0.55-0.33-0.82c-0.03-0.07-0.05-0.13-0.08-0.2
	c-0.15-0.36-0.3-0.71-0.46-1.07c-0.01-0.02-0.02-0.03-0.02-0.05c-0.16-0.35-0.32-0.7-0.48-1.04c-0.04-0.09-0.08-0.17-0.12-0.26
	c-0.16-0.34-0.33-0.68-0.5-1.01c-0.18-0.36-0.36-0.71-0.55-1.06c-0.17-0.32-0.34-0.63-0.52-0.95c-0.09-0.16-0.18-0.31-0.27-0.47
	c-0.16-0.28-0.33-0.57-0.5-0.84c0-0.02-0.02-0.03-0.02-0.04c0.05-0.03,0.11-0.05,0.16-0.08c-0.06-0.1-0.13-0.2-0.19-0.3
	c-0.18-0.29-0.36-0.57-0.54-0.86c0,0,0,0,0,0c-0.09-0.09-0.16-0.18-0.21-0.29c-0.02-0.04-0.02-0.07-0.02-0.1
	c-0.06,0.03-0.12,0.06-0.18,0.09c-0.04-0.06-0.09-0.13-0.13-0.19c-0.19-0.29-0.39-0.57-0.59-0.86c-0.18-0.25-0.35-0.49-0.53-0.73
	c-0.19-0.25-0.38-0.51-0.57-0.76c-1.35-1.77-2.82-3.44-4.41-4.99c-0.23-0.22-0.46-0.45-0.7-0.66c-0.22-0.21-0.45-0.41-0.68-0.61
	c-0.23-0.21-0.46-0.41-0.7-0.6c-0.21-0.19-0.43-0.36-0.65-0.54c-0.03-0.02-0.06-0.05-0.09-0.07c-0.19-0.16-0.39-0.31-0.58-0.46
	c-0.11-0.09-0.21-0.17-0.32-0.25c-0.04-0.04-0.09-0.07-0.13-0.1c-0.03-0.03-0.07-0.05-0.1-0.08c0.02-0.17,0-0.34-0.07-0.5
	c-0.16-0.4-0.65-0.71-1.06-0.45c-0.04,0.02-0.07,0.04-0.11,0.06h0c-0.18-0.13-0.36-0.25-0.54-0.37c-0.25-0.18-0.51-0.34-0.77-0.51
	c-3.76-2.43-8.12-4.12-12.66-5.02c-2.13-0.43-4.34-0.63-6.52-0.63c-0.33,0-0.66,0-0.99,0.01c-2.52,0.07-5.02,0.37-7.47,0.94
	c-2.55,0.59-5.06,1.41-7.45,2.48c-1.21,0.55-2.41,1.15-3.58,1.8c-1.16,0.64-2.28,1.36-3.39,2.09c0,0-0.01,0.01-0.02,0.02
	c-0.01,0.01-0.02,0.02-0.04,0.02c-4.18,2.79-7.84,6.31-11.05,10.16c-1.67,2.01-3.19,4.16-4.56,6.37c-1.37,2.21-2.62,4.49-3.71,6.85
	c-0.26,0.55-0.57,1.27-0.89,1.98c-1.01,2.31-1.86,4.72-2.58,7.14c-0.35,1.18-0.67,2.38-0.96,3.57c0,0,0,0,0,0.01
	c-0.3,1.2-0.55,2.4-0.78,3.62c-0.24,1.29-0.45,2.61-0.61,3.93c-0.59,4.8-0.71,9.66-0.28,14.49c0.21,2.34,0.56,4.66,1.03,6.96
	c0,0,0,0,0,0.01c0.14,0.68,0.28,1.36,0.44,2.03c0.11,0.47,0.25,0.93,0.36,1.4c0,0.02,0.01,0.04,0.01,0.05
	c0.01,0.02,0.02,0.05,0.02,0.07c0.01,0.02,0.02,0.04,0.02,0.06c0,0,0,0,0,0.01c-0.07,0.03-0.14,0.06-0.21,0.1
	c0.17,0.32,0.34,0.65,0.49,0.98c0.02,0.05,0.04,0.09,0.06,0.14c0,0.01,0.01,0.03,0.02,0.04c0.16,0.35,0.32,0.7,0.43,1.07
	c1.95-0.89,3.89-1.82,5.84-2.72c4.55-2.11,9.11-4.22,13.66-6.32c4.64-2.14,9.27-4.3,13.91-6.44c4.62-2.14,9.25-4.28,13.88-6.42
	c4.61-2.14,9.23-4.26,13.84-6.4c4.53-2.1,9.07-4.19,13.61-6.29c1.88-0.87,3.77-1.73,5.65-2.61c1.52-0.7,3.03-1.42,4.55-2.11
	c0.01,0,0.02-0.01,0.03-0.01c0.04-0.02,0.08-0.03,0.11-0.05C2088.23,740.98,2088.44,740.86,2088.66,740.77z M2112.24,736.46
	c0.03,0.07,0.07,0.14,0.1,0.21c-0.11,0.06-0.22,0.11-0.33,0.17c-1.06,0.55-2.13,1.09-3.2,1.64c-1.76,0.91-3.53,1.8-5.28,2.72
	c-4.37,2.27-8.75,4.52-13.13,6.77c-4.3,2.21-8.59,4.43-12.89,6.65c-4.25,2.19-8.49,4.38-12.74,6.56c-4.45,2.29-8.89,4.6-13.34,6.88
	c-2.29,1.17-4.57,2.36-6.85,3.54c-2.43,1.25-4.87,2.5-7.3,3.76c-4.48,2.31-8.96,4.61-13.45,6.93c-4.44,2.29-8.88,4.57-13.32,6.86
	c-4.38,2.26-8.75,4.52-13.13,6.76c-2.14,1.09-4.26,2.21-6.39,3.3c-1.16,0.6-2.32,1.2-3.49,1.79c-0.65,0.33-1.3,0.66-1.95,0.99
	c-0.07-0.21-0.13-0.42-0.2-0.63c-0.21-0.65-0.41-1.32-0.61-2c-0.92-3.11-1.69-6.26-2.34-9.44c-0.09-0.46-0.18-0.91-0.27-1.37
	l-0.03-0.17c-0.83-4.38-1.4-8.99-1.7-13.62c-0.26-4.5-0.28-9-0.03-13.5c0.01-0.05,0.01-0.11,0.01-0.17
	c0.01-0.11,0.02-0.21,0.02-0.31c0.28-4.19,0.81-8.35,1.57-12.48c0.02-0.08,0.04-0.21,0.07-0.34c0.73-3.82,1.73-7.76,2.98-11.63
	c0.04-0.12,0.09-0.26,0.13-0.4c1.09-3.29,2.43-6.68,3.96-9.97c1.44-3.05,3.14-6.16,5.04-9.14c0.05-0.09,0.11-0.17,0.16-0.25
	c1.74-2.68,3.64-5.26,5.71-7.73c0.09-0.11,0.18-0.21,0.27-0.31c1.9-2.22,4.05-4.41,6.33-6.47c2.36-2.08,4.84-4,7.47-5.73
	c2.54-1.66,5.25-3.14,8.07-4.42c2.82-1.25,5.73-2.29,8.72-3.09c0,0,0.02,0,0.05-0.01c0.03-0.01,0.05-0.02,0.08-0.02
	c3.02-0.78,6.12-1.31,9.25-1.6c3.2-0.27,6.53-0.27,9.85,0.01c3.35,0.29,6.72,0.89,10.04,1.75c3.42,0.91,6.75,2.09,9.98,3.53
	c3.4,1.54,6.68,3.32,9.8,5.36c3.17,2.07,6.3,4.47,9.26,7.07c0.21,0.19,0.43,0.38,0.64,0.58s0.43,0.39,0.64,0.59
	c0.3,0.27,0.59,0.55,0.89,0.84c0.4,0.38,0.8,0.77,1.19,1.16c1.82,1.8,3.57,3.69,5.24,5.64c0.11,0.13,0.18,0.21,0.24,0.28
	c0.01,0.01,0.04,0.04,0.06,0.07c0.01,0.01,0.02,0.02,0.02,0.03c2.7,3.2,5.17,6.59,7.43,10.12c2.37,3.72,4.51,7.62,6.43,11.64
	c0.03,0.06,0.06,0.12,0.09,0.19C2112.11,736.18,2112.18,736.32,2112.24,736.46z"/>
<path d="M1961.28,788.54c-2.88-0.05-4.8-2.78-4.54-5.53c-0.09-1.18,1.35-5.12,2.87-3.5c0.29,0.51,0.01,1.1-0.43,1.42
	c-1.11,1.24-1.16,3.38-0.16,4.7c1.84,2,6.66,1.16,7.39-1.57c0.33-2.7-1.28-5.97-4.31-5.87c4.13-2.76,6.81,3.45,5.71,6.83
	C1966.95,787.64,1963.82,788.71,1961.28,788.54z"/>
<path d="M1964.17,758.39c-3.53-1.09-3.12-6.01-1.08-8.34c0.29-0.36,0.79-0.44,1.12-0.09c0.56,0.57,0.16,1.32-0.29,1.81
	c-1.85,2.59-0.41,6.32,3.01,4.41c2.57-1.93,1.8-5.96-0.15-8.05c-0.29-0.38-0.73-0.72-1-1.05
	C1972.47,748.1,1971.03,759.86,1964.17,758.39z"/>
<path d="M1976.53,729.84c-3.36-0.54-3.82-5.31-2.37-7.8c0.42-1.13,2.81-3.4,3.25-1.17c0.01,0.5-0.36,0.88-0.84,0.94
	c-0.4,0.21-0.66,0.6-0.91,0.96c-1.18,1.55-0.99,5.64,1.66,5.16c2.96-0.98,2.34-4.92,2.8-7.39
	C1981.62,723.86,1981.42,729.92,1976.53,729.84z"/>
<path d="M1990.77,708.91c-2.05-0.11-3.59-2.42-2.58-4.29c0.41-1.08,2.47-2.2,2.66-0.43c0,0.47-0.3,0.88-0.78,0.92
	c-0.11,0-0.19,0.07-0.27,0.13c-0.26,0.2-0.36,0.57-0.32,0.86c0.44,1.06,1.85,1.13,2.77,0.7c2.16-0.95,3.82-3.75,2.7-5.99
	c-0.38-0.65-1.04-1.04-1.65-1.45c0.37-0.15,0.89-0.21,1.32-0.17c1.55,0.13,2.36,1.71,2.28,3.13
	C1996.86,705.54,1994.16,709.05,1990.77,708.91z"/>
<path d="M2009.83,692.68c-2.53-0.95-2.46-4.7-0.14-5.88c0.3-0.18,0.65-0.32,1-0.32c0.86,0,1.04,1.37,0.32,1.73
	c-2.33,0.66-1.78,3.26,0.61,2.79c1.37-0.4,2.03-1.89,2.68-3.03C2016.19,690.51,2012.46,693.91,2009.83,692.68z"/>
<path d="M1731.86,746.9c1.06,0,1.06,1.9,0,1.9S1730.8,746.9,1731.86,746.9z"/>
<path d="M1732.95,753.22c-3.7-1.46-3.56-5.42-1.21-8.08c0.8-0.95,1.85,0.42,1.2,1.23c-2.33,2.62-1.42,5.09,2.08,5.47
	c4.56,0.51,6.05-3.29,3.9-6.87c-0.94-1.67-3.11-1.86-4.76-2.07c5.02-2.52,7.94,2.16,7.17,6.77
	C1740.66,753.41,1736.07,754.52,1732.95,753.22z"/>
<path d="M1739.81,731.2c-2.71-0.58-4.2-3.64-3.2-6.17c0.4-0.98,1.03-2.62,2.32-2.46c1.06,0.22,0.92,2.28-0.26,2.02
	c-2.71,3.93,2.15,6.26,5.3,4.02c3.08-1.97,2.65-6.97-0.48-8.68c-0.17-0.13-0.52-0.25-0.67-0.41c1.16-0.18,2.41,0.05,3.3,0.85
	C1750.25,724.76,1745.77,732.61,1739.81,731.2z"/>
<path d="M1751.95,709.99c-1.61-1.4-1.8-4.59,0.29-5.61c1.06-0.32,1.42,1.46,0.46,1.8c-0.11,0.05-0.21,0.22-0.25,0.28
	c-0.98,3.37,3.91,2.93,5.73,1.8c1.37-0.97,0.97-2.86,0.35-4.17c-0.58-1.65-2.23-2.41-3.79-2.66c0.98-0.25,2.04-0.39,3.01-0.01
	c2.64,1.23,3.84,5.06,2.16,7.5C1758.3,711,1754.03,711.75,1751.95,709.99z"/>
<path d="M1770.8,694.9c-1.94-1.31-1.24-4.51,1.05-4.91c1.07-0.14,1.24,1.66,0.24,1.86c-0.45,0.08-0.99,0.54-0.83,1.03
	c-0.03-0.04-0.02-0.06-0.05-0.11c1.34,2.51,8.88,1.29,8.14-2.06c0.01,0.05,0.02,0.08,0.02,0.13c-0.51-1.69-2.1-2.67-3.55-3.46
	c0.68-0.16,1.56-0.11,2.28,0.07c2.3,0.57,3.55,3.3,2.5,5.42C1778.97,696.06,1773.64,696.84,1770.8,694.9z"/>
<path d="M1795.63,684.04c-4.15,0.15-5.62-4.15-1.95-6.26c1.26-0.48,1.59,1.51,0.42,1.81c0.04-0.02,0.07-0.03,0.11-0.05
	c-0.54,0.34-1.42,1.21-0.89,1.86c-0.02-0.02-0.03-0.04-0.05-0.06c-0.01-0.02-0.03-0.04-0.04-0.06c1.28,1.52,5.36,0.94,6.83-0.05
	c-0.03,0.04-0.05,0.06-0.08,0.09c0.08-0.09,0.13-0.16,0.18-0.25c-0.02,0.04-0.04,0.07-0.07,0.1c0.4-1.02-0.02-2.34-0.68-3.17
	c-0.47-0.49-1.13-0.7-1.65-1c3.26-1.12,5.45,3.71,3.11,5.83C1799.39,683.88,1797.4,683.96,1795.63,684.04z"/>
<path d="M1845.8,797.81c-0.94-0.23-1.88-0.45-2.82-0.68c-1.88-0.45-3.75-0.9-5.62-1.38c-1.87-0.48-3.74-0.96-5.61-1.43
	c-1.01-0.25-2.03-0.5-3.04-0.76c-0.36-0.09-0.73-0.18-1.1-0.29c-0.52-0.14-1.04-0.32-1.31-0.82c-0.38-0.67,0.06-1.39,0.34-2.01
	c0.16-0.36,0.32-0.73,0.48-1.09c0.3-0.67,0.6-1.33,0.9-2c0.79-1.77,1.58-3.54,2.38-5.31c1.62-3.62,3.24-7.23,4.81-10.87
	c0.41-0.96,0.82-1.91,1.23-2.87c0.08-0.19,0.17-0.38,0.25-0.57c-0.13-0.22-0.19-0.49-0.16-0.72c0.06-0.46,0.42-0.85,0.91-0.79
	c0.08,0.01,0.16,0.02,0.24,0.03c0.02,0,0.04-0.01,0.07-0.01c0.15-0.02,0.3,0.01,0.42,0.07c2.45,0.32,4.89,0.62,7.34,0.93
	c0.79,0.1,1.58,0.2,2.36,0.31c0.84,0.12,1.67,0.31,2.5,0.48c0.8,0.16,1.6,0.32,2.39,0.48c0.5,0.1,1,0.2,1.5,0.3
	c0.31,0.07,0.62,0.13,0.93,0.2c0.27,0.06,0.54,0.09,0.68,0.13c0.43,0.11,0.97,0.18,1.19,0.63c0.1,0.2,0.16,0.39,0.15,0.61
	c0,0.18-0.05,0.34-0.11,0.51c-0.03,0.08-0.06,0.15-0.09,0.23c-0.29,0.74-0.56,1.48-0.84,2.22c-0.68,1.79-1.36,3.58-2.03,5.38
	c-0.71,1.89-1.41,3.79-2.09,5.68c-0.68,1.9-1.36,3.8-2.04,5.69c-0.41,1.14-0.82,2.3-1.23,3.45c-0.18,0.51-0.36,1.03-0.54,1.54
	c-0.11,0.3-0.21,0.6-0.32,0.9c-0.1,0.29-0.19,0.59-0.3,0.84c-0.07,0.18-0.12,0.36-0.21,0.53c-0.12,0.24-0.36,0.45-0.62,0.52
	c-0.09,0.03-0.18,0.04-0.27,0.04C1846.25,797.94,1846.02,797.87,1845.8,797.81z M1842.19,795.05c0.75,0.18,1.51,0.36,2.26,0.54
	c0.36,0.09,0.73,0.18,1.09,0.26c0.2,0.05,0.41,0.11,0.61,0.15c0.19-0.53,0.39-1.07,0.58-1.61c0.34-0.96,0.7-1.92,1.04-2.88
	c0.71-1.97,1.41-3.94,2.12-5.91c0.68-1.91,1.34-3.81,2.05-5.7c0.7-1.84,1.39-3.68,2.08-5.52c0.33-0.88,0.66-1.75,0.99-2.63
	c0.1-0.25,0.2-0.51,0.3-0.76c-0.3-0.06-0.59-0.13-0.89-0.19c-0.53-0.12-1.07-0.22-1.6-0.33c-0.97-0.21-1.95-0.41-2.92-0.61
	c-0.97-0.2-1.93-0.39-2.91-0.52c-0.87-0.11-1.73-0.22-2.6-0.33c-1.23-0.16-2.46-0.31-3.69-0.47c-0.82-0.1-1.64-0.23-2.47-0.31
	c-0.1,0.24-0.21,0.48-0.32,0.72c-0.4,0.92-0.8,1.84-1.2,2.75c-0.82,1.87-1.63,3.74-2.46,5.6c-1.58,3.55-3.18,7.09-4.75,10.64
	c-0.3,0.68-0.61,1.36-0.91,2.04c-0.22,0.5-0.45,0.99-0.67,1.48l0,0c0.91,0.24,1.83,0.46,2.63,0.67c0.14,0.04,0.29,0.07,0.32,0.08
	C1834.66,793.19,1838.41,794.14,1842.19,795.05z"/>
<path d="M1841.73,784.53c0.01-0.34,0-0.69-0.03-1.03c-0.27-0.45-0.54-0.89-0.82-1.34c-0.07,0.03-0.13,0.05-0.2,0.09
	c-0.1,0.05-0.2,0.11-0.3,0.16c-0.14,0.1-0.26,0.2-0.38,0.31c-0.01,0.01-0.02,0.02-0.03,0.03c-0.08,0.12-0.17,0.24-0.26,0.36
	c-0.14,0.2-0.29,0.4-0.43,0.61c-0.21,0.29-0.41,0.58-0.62,0.87c-0.02,0.05-0.04,0.1-0.06,0.14c-0.06,0.12-0.12,0.25-0.18,0.37
	c-0.21,0.47-0.38,0.96-0.54,1.45c-0.15,0.51-0.27,1.02-0.35,1.41c-0.07,0.45-0.13,0.89-0.15,1.32c-0.01,0.27,0,0.53,0.02,0.79
	c0.02,0.16,0.04,0.33,0.07,0.49c0.03,0.13,0.06,0.25,0.1,0.38c0.01,0.02,0.02,0.03,0.02,0.05c0.38,0.09,0.74,0.22,1.12,0.33
	c0.14-0.12,0.29-0.23,0.33-0.28c0.04-0.04,0.08-0.07,0.11-0.11c0.35-0.51,0.69-1.02,1.04-1.52c0.17-0.24,0.33-0.5,0.5-0.74
	c0.07-0.23,0.17-0.46,0.25-0.68c0.11-0.28,0.2-0.57,0.29-0.85c0.14-0.48,0.27-0.98,0.36-1.48
	C1841.66,785.29,1841.71,784.91,1841.73,784.53z M1843.27,783.15c0.02,0.42,0.09,0.84,0.07,1.12c-0.03,0.81-0.12,1.6-0.3,2.39
	c-0.03,0.13-0.06,0.27-0.09,0.4s-0.07,0.27-0.11,0.4c-0.06,0.22-0.13,0.45-0.2,0.66c-0.01,0.03-0.02,0.05-0.03,0.08
	c0,0.01-0.01,0.03-0.01,0.04c-0.1,0.3-0.23,0.58-0.34,0.88c0,0.06-0.01,0.12-0.03,0.18c-0.05,0.2-0.15,0.36-0.27,0.53
	c-0.11,0.16-0.21,0.32-0.32,0.48c-0.05,0.08-0.11,0.16-0.16,0.24c-0.21,0.31-0.41,0.61-0.62,0.92c-0.11,0.15-0.21,0.3-0.31,0.45
	c-0.09,0.13-0.17,0.28-0.28,0.39l-0.04,0.03c-0.04,0.04-0.08,0.07-0.09,0.09c-0.18,0.17-0.38,0.31-0.54,0.45
	c-0.01,0.01-0.02,0.02-0.03,0.02l-0.01,0.02c-0.09,0.08-0.16,0.16-0.27,0.23c-0.13,0.07-0.27,0.1-0.41,0.1
	c-0.18,0-0.36-0.04-0.53-0.09c-0.36-0.09-0.7-0.22-1.05-0.32c-0.35-0.08-0.73-0.2-0.91-0.54c-0.05-0.11-0.11-0.22-0.16-0.33
	c-0.08-0.16-0.14-0.34-0.19-0.52c-0.09-0.32-0.16-0.65-0.19-0.98c-0.02-0.15-0.03-0.3-0.04-0.44c-0.01-0.16-0.01-0.32-0.01-0.48
	c0-0.02,0-0.04,0-0.05c0-0.12,0-0.25,0.01-0.37c0-0.02,0-0.04,0-0.06c0-0.11,0.01-0.23,0.02-0.34c0.01-0.1,0.02-0.2,0.03-0.3
	c0.01-0.12,0.03-0.24,0.05-0.35v0c0.01-0.08,0.02-0.16,0.04-0.23c0.09-0.55,0.21-1.1,0.36-1.63c0.16-0.59,0.35-1.16,0.57-1.68
	c0.03-0.06,0.05-0.12,0.08-0.18c0.01-0.02,0.02-0.03,0.02-0.05v0c0.05-0.11,0.1-0.22,0.15-0.33c0.01-0.04,0.02-0.08,0.04-0.12
	c0.07-0.21,0.22-0.39,0.34-0.57c0.09-0.13,0.18-0.26,0.27-0.39c0.34-0.47,0.67-0.94,0.99-1.39c0.05-0.07,0.11-0.14,0.18-0.2
	c0.01-0.02,0.03-0.03,0.04-0.04c0.02-0.02,0.05-0.04,0.07-0.06c0.11-0.1,0.22-0.19,0.34-0.27c0.39-0.29,0.84-0.47,1.26-0.65
	c0.3-0.13,0.58-0.17,0.88,0.02c0.28,0.18,0.45,0.49,0.62,0.76c0.14,0.24,0.29,0.48,0.45,0.73c0.16,0.27,0.33,0.54,0.49,0.8
	c0.09,0.12,0.14,0.27,0.16,0.42C1843.26,783.06,1843.27,783.1,1843.27,783.15C1843.27,783.14,1843.27,783.15,1843.27,783.15z"/>
<path d="M1851.55,795.59c0.33,0.84,0.34,1.79,0.32,2.68c-0.04,0.98-0.15,1.95-0.35,2.91c-0.13,0.64-0.31,1.26-0.49,1.89
	c-0.12,0.41-0.23,0.82-0.32,1.24c-0.09,0.46-0.24,0.92-0.36,1.38c-0.06,0.23-0.12,0.47-0.18,0.7c-0.02,0.08-0.05,0.15-0.09,0.22
	c-0.14,0.25-0.39,0.45-0.68,0.45c-0.07,0-0.15-0.01-0.23-0.04c-0.34-0.12-0.54-0.47-0.57-0.82c-0.01-0.12,0-0.24,0.03-0.35
	c0.12-0.46,0.25-0.91,0.36-1.37c0.11-0.43,0.2-0.87,0.31-1.3c0.25-0.95,0.55-1.88,0.71-2.71c0.11-0.61,0.19-1.22,0.22-1.7
	c0.03-0.5,0.04-1,0.02-1.5c-0.01-0.18-0.03-0.35-0.06-0.52c-0.02-0.09-0.04-0.18-0.07-0.27c-0.03-0.08-0.06-0.16-0.09-0.24
	c-0.1-0.2-0.21-0.39-0.32-0.57c-0.01-0.01-0.01-0.02-0.02-0.03c-0.02-0.03-0.03-0.05-0.03-0.05c-0.35-0.54-0.7-1.08-1.07-1.6
	c-0.2-0.27-0.39-0.53-0.6-0.79c-0.19-0.22-0.39-0.44-0.6-0.64c-0.02-0.01-0.03-0.03-0.04-0.04c-0.12-0.11-0.23-0.23-0.36-0.34
	c-0.14-0.12-0.29-0.23-0.45-0.34c-0.66-0.4-1.37-0.72-2.07-1.04c-0.65-0.27-1.3-0.52-1.98-0.71c-0.11-0.03-0.21-0.05-0.32-0.08
	c-0.05,0.06-0.1,0.11-0.16,0.16c-0.02,0.02-0.04,0.03-0.06,0.04c-0.01,0.01-0.02,0.01-0.02,0.02c-0.02,0.02-0.05,0.03-0.07,0.04
	c-0.04,0.02-0.08,0.03-0.12,0.04c-0.02,0-0.04,0.01-0.06,0.01c-0.01,0-0.01,0-0.02,0c-0.02,0-0.03,0-0.04,0
	c-0.5,0-0.79-0.49-0.8-0.94c-0.01-0.55,0.25-1.16,0.85-1.26c0.31-0.05,0.64,0.02,0.96,0.1c0.08,0.02,0.16,0.05,0.24,0.07
	c0.24,0.07,0.49,0.14,0.73,0.22c0.98,0.33,1.94,0.75,2.86,1.22c0.45,0.22,0.9,0.46,1.29,0.78c0.11,0.09,0.21,0.18,0.32,0.27
	c0.26,0.23,0.52,0.48,0.75,0.74c0.17,0.18,0.33,0.38,0.48,0.57c0.43,0.54,0.82,1.11,1.21,1.69
	C1850.87,794.35,1851.29,794.94,1851.55,795.59z"/>
<path d="M1836.31,786.21c2.54,1.35,0.32,3.83-0.39,1.87v0c0-0.01-0.01-0.02-0.01-0.02c-0.22-0.08-0.43-0.16-0.65-0.23
	c-0.21-0.07-0.43-0.14-0.64-0.2s-0.42-0.12-0.62-0.17s-0.41-0.1-0.61-0.14c-0.19-0.04-0.37-0.07-0.55-0.1
	c-0.03,0-0.06-0.01-0.09-0.01c-0.1-0.02-0.2-0.03-0.29-0.04c-0.07-0.01-0.15-0.02-0.22-0.03c-0.03,0-0.05-0.01-0.08-0.01
	c-0.18-0.02-0.34-0.03-0.52-0.04c-0.08-0.01-0.15-0.01-0.23-0.01c-0.21-0.01-0.42-0.01-0.63,0c-0.08,0-0.16,0-0.25,0.01
	c-0.12,0.01-0.23,0.02-0.35,0.03c-0.1,0-0.2,0.02-0.29,0.03c-0.7,0.08-1.37,0.24-2,0.48c-3.25,1.2-5.55,4.32-6.89,8.67
	c-0.23,0.4-0.36,1.13-0.61,1.68c-0.23,0.52-0.57,0.89-1.19,0.68c-0.46-0.27-0.5-0.75-0.39-1.21v0c0.05-0.24,0.16-0.47,0.26-0.67
	c0.5-1.25,0.91-2.52,1.46-3.74c1.6-4.06,4.57-6.81,8.33-7.59c0.61-0.13,1.23-0.21,1.88-0.23c0.6-0.02,1.23,0.01,1.86,0.08
	c0.38,0.05,0.76,0.11,1.14,0.19c0.13,0.03,0.26,0.05,0.39,0.09c0.12,0.02,0.23,0.04,0.35,0.05c0.08,0.02,0.16,0.03,0.24,0.05
	c0.25,0.05,0.48,0.11,0.68,0.17c0.09,0.03,0.17,0.05,0.25,0.08c0.04,0.01,0.07,0.02,0.1,0.04c0.11,0.04,0.21,0.08,0.31,0.12
	C1836.14,786.12,1836.23,786.16,1836.31,786.21z"/>
<path d="M1841.51,832.46c-0.11-0.05-0.22-0.1-0.22-0.1c-0.91-0.4-1.81-0.84-2.71-1.27c-0.93-0.44-1.86-0.87-2.79-1.3
	c-1.9-0.89-3.8-1.77-5.71-2.66c-3.68-1.71-7.35-3.43-11.03-5.14c-3.67-1.71-7.34-3.43-11.02-5.14c-0.46-0.21-0.93-0.43-1.39-0.64
	c-0.11-0.05-0.21-0.1-0.31-0.14c-0.23-0.11-0.41-0.29-0.55-0.48c-0.29-0.39-0.3-0.95-0.17-1.39c0.14-0.46,0.36-0.9,0.55-1.34
	c0.68-1.54,1.35-3.09,2.03-4.64c1.5-3.42,3-6.84,4.49-10.26c0.14-0.33,0.29-0.66,0.44-0.99c0.08-0.19,0.17-0.39,0.25-0.58
	c0.15-0.34,0.33-0.69,0.71-0.83c0.48-0.17,0.98,0.15,1.41,0.35c0.91,0.39,1.79,0.84,2.69,1.25c0.31,0.14,0.61,0.29,0.92,0.43
	c0.12,0.04,0.24,0.08,0.36,0.11c0.44,0.13,0.88,0.27,1.32,0.4c0.98,0.3,1.95,0.59,2.93,0.89c1.9,0.57,3.8,1.15,5.71,1.71
	c1.77,0.53,3.53,1.07,5.3,1.6c1.76,0.53,3.53,1,5.3,1.5c3.16,0.88,6.32,1.77,9.48,2.65c0.22,0.06,0.43,0.12,0.64,0.18
	c0.01,0,0.01,0,0.02,0l0.02,0c0.03,0.01,0.06,0.01,0.1,0.03c0.18,0.05,0.37,0.11,0.55,0.16c0.2,0.05,0.39,0.11,0.59,0.16
	c0.23,0.07,0.46,0.13,0.69,0.2c0.39,0.1,0.77,0.22,1.16,0.33c0.17,0.05,0.35,0.08,0.5,0.17c0.38,0.23,0.54,0.67,0.49,1.1
	c-0.05,0.43-0.32,0.82-0.5,1.21c0.01-0.04,0.03-0.07,0.05-0.11c0,0,0-0.01,0-0.01c-0.02,0.04-0.04,0.09-0.06,0.13
	c-0.16,0.32-0.31,0.63-0.46,0.95c-0.14,0.29-0.29,0.58-0.43,0.88c-0.22,0.45-0.44,0.91-0.68,1.35c-0.44,0.84-0.84,1.7-1.25,2.55
	c-0.84,1.73-1.7,3.45-2.55,5.18c-1.62,3.3-3.24,6.61-4.87,9.91c-0.16,0.33-0.32,0.66-0.48,0.98c-0.15,0.31-0.31,0.62-0.66,0.75
	c-0.09,0.03-0.18,0.05-0.27,0.05C1841.88,832.61,1841.69,832.54,1841.51,832.46z M1808.34,815c0.46,0.21,0.92,0.43,1.38,0.64
	c0.9,0.42,1.8,0.84,2.71,1.27c1.85,0.86,3.7,1.73,5.55,2.59c3.68,1.71,7.36,3.43,11.04,5.14c3.74,1.75,7.47,3.51,11.22,5.22
	c0.51,0.24,1.02,0.48,1.53,0.72c0.16-0.32,0.31-0.64,0.47-0.95c0.41-0.84,0.82-1.68,1.24-2.51c0.82-1.66,1.63-3.33,2.45-4.99
	c0.82-1.66,1.64-3.32,2.45-4.98c0.39-0.8,0.79-1.61,1.19-2.42c0.41-0.84,0.84-1.66,1.18-2.39c0.49-1.07,1.03-2.13,1.55-3.19
	c-0.21-0.06-0.43-0.11-0.53-0.14c-1.36-0.35-2.7-0.75-4.05-1.13c-1.52-0.43-3.04-0.86-4.56-1.29c-3.57-1-7.14-1.98-10.69-3.05
	c-3.73-1.12-7.44-2.25-11.17-3.37c-0.61-0.18-1.22-0.37-1.83-0.55c-0.08,0.01-0.16,0.01-0.24,0c-0.09-0.01-0.16-0.04-0.22-0.08
	c0,0,0,0.01,0.01,0.01c0,0,0,0,0,0c-0.14-0.06-0.28-0.12-0.42-0.19c-0.03-0.01-0.06-0.02-0.09-0.03c-0.08-0.02-0.16-0.07-0.23-0.12
	c-0.6-0.28-1.2-0.58-1.7-0.8c-0.58-0.26-1.15-0.53-1.73-0.8c-0.02-0.01-0.05-0.02-0.07-0.04c-0.04-0.02-0.09-0.04-0.13-0.06
	c-1.42,3.23-2.84,6.46-4.25,9.7c-0.65,1.49-1.3,2.98-1.95,4.46c-0.29,0.67-0.58,1.33-0.87,2c-0.12,0.27-0.25,0.54-0.36,0.81
	C1807.59,814.67,1807.97,814.83,1808.34,815z"/>
<path d="M1828.98,816.1c-0.69-0.21-0.92-0.89-1.42-1.31c-1.23-1.48-0.04-3.46,1.28-4.41c1.1-0.53,3.2-0.21,2.94,1.39
	C1832.98,813.52,1831.09,816.64,1828.98,816.1z"/>
<path d="M1826.48,820.47c-0.53-0.53-0.42-1.37-0.04-1.96c0.29-0.87,0.55-1.66,0.78-2.54c-0.11-1.82,2.25-1.72,2.14,0.06
	c0.84,1.25-0.62,2.52-1.05,3.68C1828.12,820.53,1827.18,821.18,1826.48,820.47z"/>
<path class="st2" d="M1829.44,816.16c1.91,0.03,3.46-2.77,2.35-4.39c0.26-1.6-1.84-1.91-2.94-1.39c-1.32,0.95-2.51,2.92-1.28,4.41
	c0.03,0.02,0.05,0.04,0.07,0.07c-0.27,0.21-0.45,0.58-0.42,1.11c-0.23,0.88-0.49,1.67-0.78,2.54c-0.38,0.59-0.49,1.42,0.04,1.96
	c0.7,0.71,1.64,0.06,1.83-0.77C1828.73,818.6,1830.09,817.38,1829.44,816.16z M1851.78,809c0.1,0.03,0.32,0.08,0.53,0.14
	c-0.52,1.06-1.06,2.11-1.55,3.19c-0.34,0.73-0.77,1.55-1.18,2.39c-0.4,0.8-0.79,1.61-1.19,2.42c-0.82,1.66-1.63,3.32-2.45,4.98
	c-0.82,1.66-1.63,3.33-2.45,4.99c-0.41,0.84-0.82,1.68-1.24,2.51c-0.16,0.32-0.31,0.64-0.46,0.95c-0.51-0.23-1.02-0.48-1.54-0.71
	c-3.75-1.71-7.48-3.48-11.22-5.22c-3.68-1.71-7.36-3.44-11.04-5.14c-1.86-0.86-3.7-1.72-5.55-2.59c-0.9-0.42-1.8-0.84-2.71-1.27
	c-0.46-0.21-0.92-0.43-1.38-0.64c-0.37-0.18-0.75-0.33-1.11-0.51c0.11-0.27,0.24-0.54,0.36-0.82c0.29-0.67,0.58-1.33,0.87-2
	c0.65-1.48,1.3-2.97,1.95-4.46c1.41-3.23,2.83-6.46,4.25-9.7c0.04,0.02,0.09,0.04,0.13,0.06c0.02,0.02,0.04,0.03,0.07,0.04
	c0.57,0.27,1.15,0.54,1.73,0.8c0.5,0.22,1.1,0.52,1.7,0.8c0.07,0.05,0.14,0.09,0.22,0.12c0.03,0.01,0.06,0.02,0.09,0.03
	c0.14,0.06,0.28,0.12,0.42,0.18c0,0,0-0.01,0-0.01c0.07,0.04,0.14,0.07,0.22,0.09c0.08,0.02,0.16,0.02,0.24,0
	c0.61,0.18,1.22,0.36,1.82,0.54c3.73,1.11,7.44,2.25,11.17,3.37c3.55,1.06,7.12,2.05,10.69,3.05c1.52,0.43,3.04,0.86,4.56,1.29
	C1849.07,808.25,1850.42,808.65,1851.78,809z"/>
<path class="st3" d="M1855.31,770.99c-0.1,0.25-0.2,0.51-0.29,0.77c-0.33,0.88-0.66,1.75-0.99,2.63c-0.7,1.84-1.39,3.68-2.08,5.52
	c-0.11,0.29-0.21,0.57-0.32,0.86c-5.87-0.96-11.73-1.93-17.6-2.89c0.09-0.19,0.17-0.38,0.25-0.57c0.83-1.86,1.64-3.73,2.46-5.6
	c0.4-0.92,0.79-1.84,1.2-2.75c0.11-0.24,0.21-0.48,0.31-0.71c0.83,0.08,1.65,0.2,2.47,0.31c1.23,0.16,2.46,0.31,3.69,0.47
	c0.87,0.11,1.73,0.21,2.6,0.33c0.98,0.13,1.94,0.32,2.91,0.52c0.97,0.2,1.95,0.4,2.92,0.61c0.53,0.11,1.07,0.21,1.6,0.33
	C1854.72,770.86,1855.02,770.93,1855.31,770.99z"/>
<path class="st3" d="M1839.06,781.2c-0.02,0.02-0.05,0.04-0.07,0.06c-0.01,0.01-0.03,0.02-0.04,0.04c-0.07,0.06-0.12,0.12-0.18,0.2
	c-0.32,0.45-0.66,0.93-0.99,1.39c-0.09,0.13-0.18,0.26-0.27,0.39c-0.12,0.18-0.27,0.36-0.34,0.57c-0.02,0.04-0.03,0.08-0.04,0.12
	c-0.05,0.11-0.11,0.22-0.15,0.33v0c-0.01,0.02-0.02,0.03-0.02,0.05c-0.03,0.06-0.05,0.12-0.08,0.18c-0.22,0.52-0.41,1.09-0.57,1.68
	c-0.08-0.04-0.16-0.09-0.25-0.12c-0.1-0.04-0.2-0.09-0.31-0.12c-0.04-0.02-0.07-0.03-0.1-0.04c-0.08-0.03-0.16-0.05-0.25-0.08
	c-0.21-0.06-0.43-0.12-0.68-0.17c-0.08-0.02-0.16-0.03-0.24-0.05c-0.11-0.02-0.23-0.04-0.35-0.05c-0.13-0.03-0.26-0.06-0.39-0.09
	c-0.39-0.08-0.77-0.14-1.14-0.19c-0.63-0.07-1.26-0.1-1.86-0.08c0.74-1.67,1.49-3.34,2.24-5.01
	C1835.01,780.54,1837.04,780.87,1839.06,781.2z"/>
<path class="st3" d="M1847.35,792.52c0.02,0.01,0.03,0.03,0.04,0.04c-0.22,0.61-0.45,1.23-0.66,1.84c-0.2,0.54-0.39,1.07-0.58,1.61
	c-0.2-0.05-0.41-0.11-0.61-0.15c-0.36-0.09-0.73-0.18-1.09-0.26c-0.75-0.18-1.51-0.36-2.26-0.54c-3.77-0.91-7.53-1.86-11.29-2.83
	c-0.03-0.01-0.18-0.04-0.32-0.08c-0.8-0.21-1.71-0.44-2.63-0.68c0.22-0.5,0.45-0.98,0.67-1.48c0.3-0.68,0.61-1.36,0.91-2.04
	c0.12-0.27,0.23-0.53,0.36-0.8c0.1-0.01,0.2-0.02,0.29-0.03c0.12-0.01,0.23-0.02,0.35-0.03c0.08,0,0.16-0.01,0.25-0.01
	c0.21-0.01,0.41-0.01,0.63,0c0.08,0,0.15,0,0.23,0.01c0.17,0.01,0.34,0.02,0.52,0.04c0.03,0,0.05,0,0.08,0.01
	c0.07,0.01,0.15,0.02,0.22,0.03c0.1,0.01,0.2,0.02,0.29,0.04c0.03,0,0.06,0.01,0.09,0.01c0.18,0.03,0.37,0.06,0.55,0.1
	c0.2,0.04,0.41,0.09,0.61,0.14c0.21,0.05,0.41,0.11,0.62,0.17c0.21,0.06,0.42,0.13,0.64,0.2c0.21,0.07,0.43,0.15,0.65,0.23
	c0,0.01,0.01,0.02,0.01,0.02v0c-0.02,0.11-0.04,0.23-0.05,0.35c-0.01,0.1-0.02,0.2-0.03,0.3c-0.01,0.11-0.02,0.22-0.02,0.34
	c0,0.02,0,0.04,0,0.06c-0.01,0.12-0.01,0.25-0.01,0.37c0,0.02,0,0.04,0,0.05c0,0.16,0,0.32,0.01,0.48c0.01,0.14,0.02,0.29,0.04,0.44
	c0.04,0.33,0.1,0.66,0.19,0.98c0.05,0.18,0.11,0.35,0.19,0.52c0.05,0.11,0.11,0.22,0.16,0.33c0.17,0.34,0.56,0.46,0.91,0.54
	c0.36,0.1,0.7,0.23,1.05,0.32c0.18,0.04,0.36,0.09,0.53,0.09c0.14,0,0.27-0.02,0.41-0.1c0.11-0.06,0.18-0.14,0.27-0.23l0.01-0.02
	c0.01-0.01,0.02-0.02,0.03-0.02c0.16-0.14,0.36-0.28,0.54-0.45c0.01-0.01,0.05-0.05,0.09-0.09l0.04-0.03
	c0.11-0.11,0.19-0.27,0.28-0.39c0.1-0.15,0.2-0.3,0.31-0.45c0.21-0.31,0.41-0.61,0.62-0.92c0.05-0.08,0.11-0.16,0.16-0.24
	c0.01,0,0.01,0,0.02,0c0.02,0,0.04,0,0.06-0.01c0.04-0.01,0.09-0.02,0.12-0.04c0.03-0.01,0.05-0.02,0.07-0.04
	c0.01,0,0.02-0.01,0.02-0.02c0.02-0.01,0.04-0.02,0.06-0.04c0.06-0.04,0.12-0.1,0.16-0.16c0.11,0.02,0.21,0.05,0.32,0.08
	c0.68,0.2,1.33,0.44,1.98,0.71c0.7,0.31,1.41,0.64,2.07,1.04c0.16,0.11,0.3,0.22,0.45,0.34
	C1847.12,792.29,1847.24,792.4,1847.35,792.52z"/>
<path class="st3" d="M1850.77,783.12c-0.3,0.82-0.59,1.65-0.88,2.48c-0.61,1.72-1.23,3.45-1.85,5.16c-0.1-0.09-0.21-0.18-0.32-0.27
	c-0.39-0.32-0.84-0.56-1.29-0.78c-0.93-0.47-1.88-0.89-2.86-1.22c-0.24-0.08-0.48-0.15-0.73-0.22c-0.08-0.02-0.16-0.05-0.24-0.07
	c0.01-0.03,0.02-0.05,0.03-0.08c0.07-0.22,0.14-0.44,0.2-0.66c0.04-0.13,0.07-0.27,0.11-0.4s0.06-0.27,0.09-0.4
	c0.17-0.79,0.27-1.58,0.3-2.39c0.02-0.28-0.05-0.7-0.07-1.12c0,0,0,0,0-0.01c0-0.04-0.01-0.08-0.01-0.14
	c-0.02-0.15-0.07-0.29-0.16-0.42c-0.16-0.27-0.33-0.54-0.49-0.8C1845.33,782.23,1848.05,782.68,1850.77,783.12z"/>
<path class="st4" d="M1841.7,783.5c0.03,0.34,0.04,0.69,0.03,1.03c-0.02,0.38-0.07,0.77-0.13,1.14c-0.09,0.5-0.21,0.99-0.36,1.48
	c-0.09,0.29-0.19,0.57-0.29,0.85c-0.09,0.22-0.19,0.45-0.25,0.68c-0.17,0.24-0.33,0.5-0.5,0.74c-0.34,0.51-0.69,1.02-1.04,1.52
	c-0.04,0.04-0.07,0.07-0.11,0.11c-0.05,0.05-0.19,0.16-0.33,0.28c-0.38-0.11-0.74-0.24-1.12-0.33c0-0.02-0.01-0.04-0.02-0.05
	c-0.04-0.12-0.07-0.25-0.1-0.38c-0.03-0.16-0.05-0.33-0.07-0.49c-0.02-0.26-0.02-0.53-0.02-0.79c0.02-0.42,0.07-0.87,0.15-1.32
	c0.07-0.39,0.2-0.9,0.35-1.41c0.16-0.49,0.33-0.98,0.54-1.45c0.05-0.12,0.11-0.25,0.18-0.37c0.02-0.05,0.04-0.09,0.06-0.14
	c0.21-0.29,0.41-0.58,0.62-0.87c0.14-0.2,0.29-0.4,0.43-0.61c0.09-0.12,0.18-0.24,0.26-0.36c0.01-0.01,0.02-0.02,0.03-0.03
	c0.12-0.11,0.25-0.21,0.38-0.31c0.1-0.06,0.2-0.11,0.3-0.16c0.07-0.03,0.13-0.06,0.2-0.09
	C1841.16,782.61,1841.43,783.05,1841.7,783.5z"/>
</svg>
