<?xml version="1.0" encoding="utf-8"?>
<!-- Generator: Adobe Adobe Illustrator 24.2.0, SVG Export Plug-In . SVG Version: 6.00 Build 0)  -->
<svg version="1.1" id="Vektorebene_1_" xmlns="http://www.w3.org/2000/svg" xmlns:xlink="http://www.w3.org/1999/xlink" x="0px"
	 y="0px" width="2360px" height="1640px" viewBox="0 0 2360 1640" style="enable-background:new 0 0 2360 1640;"
	 xml:space="preserve">
<style type="text/css">
	.st0{fill:#59270A;}
</style>
<path id="Pfad1.0" class="st0" d="M499.74,623.05c-9.18-13.6,10.83-21.45,18.71-29.32c11.29-9.1,22.58-18.2,33.87-27.3
	c11.49-9.07,25.52,9.02,13.84,17.93c-15.29,12.33-30.59,24.65-45.88,36.98C514.84,627.24,505.44,630.45,499.74,623.05z"/>
<path id="Pfad1.1" class="st0" d="M427.37,681.38c-4.69-5.98-1.8-13.93,4.24-17.65c10.94-8.82,21.89-17.64,32.83-26.45
	c4.9-5.31,13.65-5.81,18.21,0.17c3.83,4.96,2.75,12.02-2.05,15.89c-11.7,9.42-23.39,18.85-35.08,28.28
	C440.63,686.87,431.93,687.34,427.37,681.38z"/>
<path id="Pfad2.0" class="st0" d="M217.53,881.19c-4.89-3.78-5.8-10.99-2.04-15.89c10.78-14.07,21.57-28.12,32.36-42.18
	c4.76-7.34,12.69-16.88,21.89-9.88c4.89,3.78,5.8,10.99,2.05,15.89c-11.74,15.3-23.48,30.61-35.22,45.91
	C232.77,881.83,224.49,886.64,217.53,881.19z"/>
<path id="Pfad2.1" class="st0" d="M169.74,943.49c-4.91-3.79-5.79-10.98-2.05-15.89c8.42-11.05,16.91-22.04,25.36-33.06
	c3.75-4.89,11.02-5.81,15.89-2.05c4.89,3.78,5.8,10.99,2.05,15.89c-8.46,11.02-16.95,22.02-25.36,33.06
	C181.88,946.37,174.58,947.23,169.74,943.49z"/>
<path id="Pfad3.0" class="st0" d="M159.43,1167c-6.51-17.16-13.01-34.32-19.52-51.49c-1.22-2.99-1.46-6.24-0.17-9.26
	c3.42-8.99,17.49-9.11,20.87,0c6.44,17.05,12.92,34.09,19.38,51.14C186.9,1170.93,165.24,1181.08,159.43,1167z"/>
<path id="Pfad3.1" class="st0" d="M201.89,1279.05c-7.14-18.88-14.3-37.75-21.46-56.62c-3.59-7.66-7.41-19.01,2.83-23.27
	c5.52-2.34,12.66,0.26,14.85,6.03c7.16,18.91,14.33,37.81,21.49,56.72C231.75,1282.16,211.38,1294.79,201.89,1279.05z"/>
<path id="Pfad4.0" class="st0" d="M414.22,1431.22c-24.19-4.33-48.41-8.51-72.58-12.91c-9.46-2.17-11.2-16.16-2.71-20.7
	c2.46-1.44,5.22-1.79,7.25-1.44c18.01,3.1,35.99,6.38,53.98,9.58c8.04,2.36,18.53,0.71,24.55,7.34
	C430.97,1420.57,423.83,1433.02,414.22,1431.22z"/>
<path id="Pfad4.1" class="st0" d="M532.25,1452.17c-20.32-3.61-40.64-7.21-60.96-10.82c-7.81-0.4-17.04-4.49-15.61-13.81
	c0.81-5.93,6.68-10.77,12.76-9.69c19.34,3.43,38.68,6.86,58.03,10.3C550.67,1428.23,550.2,1452.26,532.25,1452.17z"/>
<path id="Pfad5.0" class="st0" d="M739.15,1367.42c-5.38-3.02-7.12-10.22-4.07-15.5c7.56-14.74,15.25-29.42,22.86-44.13
	c4.48-8.62,18.52-6.65,20.7,2.71c0.83,3.04,0.28,5.98-1.14,8.73c-7.62,14.71-15.3,29.39-22.86,44.13
	C751.79,1368.71,744.28,1370.56,739.15,1367.42z"/>
<path id="Pfad5.1" class="st0" d="M795.88,1257.91c-5.37-3.02-7.13-10.24-4.06-15.5c8.83-17.01,17.64-34.04,26.45-51.06
	c2.84-11.41,19.45-13.47,22.85-1.45c0.84,3.03,0.28,5.98-1.14,8.73c-8.79,16.96-17.57,33.92-26.36,50.87
	C811.24,1256.98,803.27,1262.26,795.88,1257.91z"/>
<path id="Pfad6.0" class="st0" d="M970.69,965.31c-5.15-3.02-7.41-10.31-4.06-15.5c11.18-17.32,22.36-34.64,33.54-51.96
	c2.58-3.92,4.83-8.67,9.79-9.89c9.29-2.94,18.16,8.37,12.79,16.64c-11.02,17.07-22.04,34.14-33.07,51.22
	C986.19,962.93,978.98,970.33,970.69,965.31z"/>
<path id="Pfad6.1" class="st0" d="M1031.37,871.31c-5.62-3.26-7.55-11.39-3.34-16.59c9.48-14.49,18.77-29.09,28.16-43.64
	c1.62-2.5,3.85-4.4,6.77-5.21c9.29-2.94,18.16,8.37,12.79,16.64c-9.62,14.91-19.15,29.89-28.88,44.74
	C1043.79,872.51,1036.63,874.52,1031.37,871.31z"/>
<path id="Pfad7.0" class="st0" d="M1220.45,723.41c-14.85,0.52-15.2-22.76-0.33-22.66c14,0,28,0,41.99,0
	c14.65-0.12,14.67,22.78,0,22.66C1248.23,723.41,1234.34,723.41,1220.45,723.41z"/>
<path id="Pfad7.1" class="st0" d="M1307.16,723.41c-15.4,1-16.49-22.35-1.03-22.66c15.01,0,30.02,0,45.03,0
	c14.65-0.12,14.68,22.78,0,22.66C1336.49,723.41,1321.83,723.41,1307.16,723.41z"/>
<path id="Pfad8.0" class="st0" d="M1447,890.4c-7.3-0.86-11.54-8.81-9.15-15.55c3.64-18.89,7.25-37.78,10.88-56.67
	c0.55-3.65,1.61-7.28,4.71-9.59c7.52-6.25,19.9,0.84,18.14,10.5c-3.68,19.24-7.39,38.47-11.08,57.71
	C1460.13,884.11,1455.17,891.7,1447,890.4z"/>
<path id="Pfad8.1" class="st0" d="M1420.71,1027.31c-14.75-2.59-8.29-19.09-6.56-29.05c3.29-17.13,6.58-34.27,9.87-51.41
	c0.52-3.51,1.67-6.91,4.62-9.12c7.52-6.26,19.9,0.84,18.14,10.5c-3.4,17.73-6.81,35.45-10.21,53.18
	C1434.1,1011.14,1435.1,1028.81,1420.71,1027.31z"/>
<path id="Pfad9.0" class="st0" d="M1483.48,1289.24c-11.56-4.02-17.09-17.87-25.82-26c-7.04-10.19-30.17-26.26-11.92-36.78
	c14.28-4.55,20.78,15.16,29.78,22.85c6.16,7.26,12.31,14.52,18.47,21.78C1500.35,1278.58,1493.06,1290.94,1483.48,1289.24z"/>
<path id="Pfad9.1" class="st0" d="M1566.34,1386.97c-3.03-0.41-5.49-2.01-7.43-4.3c-12.36-14.58-24.74-29.14-37.08-43.73
	c-6.51-7.45,0.77-19.96,10.41-18.25c3.02,0.41,5.49,2.01,7.43,4.3c11.99,14.17,24,28.31,36,42.46
	C1583.66,1374.58,1576.86,1388.75,1566.34,1386.97z"/>
<path id="Pfad10.0" class="st0" d="M1695.36,1378.94c-6.17-2.58-8.95-10.56-5.32-16.34c7.41-15.63,14.82-31.26,22.24-46.89
	c1.27-2.69,3.25-4.86,6.03-6.03c8.84-4.13,19.1,5.94,14.84,14.84c-7.47,15.75-14.93,31.51-22.41,47.26
	C1708.6,1377.95,1701.49,1381.69,1695.36,1378.94z"/>
<path id="Pfad10.1" class="st0" d="M1734.16,1297.1c-6.19-2.59-8.96-10.61-5.29-16.38c7.64-16.05,15.23-32.13,22.85-48.2
	c1.28-2.69,3.25-4.85,6.03-6.03c8.84-4.13,19.11,5.94,14.85,14.84c-7.71,16.26-15.39,32.53-23.13,48.77
	C1747.3,1296.2,1740.22,1299.81,1734.16,1297.1z"/>
<path id="Pfad11.0" class="st0" d="M1859.03,1030.43c-5.58-4.12-5.52-12.21-1.15-17.19c8.95-9.17,16.21-36.92,32.69-26.59
	c13.63,11.36-10.36,30.37-15.65,41.74C1871.4,1033.45,1863.73,1034.07,1859.03,1030.43z"/>
</svg>
